B612Mono-Bold.sfdir
StartChar: quotedbl
Encoding: 396 34 396
GlifName: quotedbl
Width: 1300
VWidth: 0
Flags: W
LayerCount: 2
Fore
SplineSet
861 1500 m 257
NamedP: "sh01"
 861 1367 l 257
 861 1349 861 1349 860.5 1324.5 c 128
 860 1300 860 1300 859 1273 c 128
 858 1246 858 1246 856 1218.5 c 128
 854 1191 854 1191 851 1168 c 257
 828 1013 l 257
 648 1013 l 257
NamedP: "sv01"
 625 1168 l 257
 622 1191 622 1191 620 1218.5 c 128
 618 1246 618 1246 617 1273 c 128
 616 1300 616 1300 615.5 1324.5 c 128
 615 1349 615 1349 615 1367 c 257
 615 1500 l 257
NamedP: "ah02"
 861 1500 l 257
NamedP: "sh01"
561 1500 m 257
NamedP: "sh02"
 561 1367 l 257
 561 1349 561 1349 560.5 1324.5 c 128
 560 1300 560 1300 559 1273 c 128
 558 1246 558 1246 556 1218.5 c 128
 554 1191 554 1191 551 1168 c 257
 528 1013 l 257
 348 1013 l 257
NamedP: "sv02"
 325 1168 l 257
 322 1191 322 1191 320 1218.5 c 128
 318 1246 318 1246 317 1273 c 128
 316 1300 316 1300 315.5 1324.5 c 128
 315 1349 315 1349 315 1367 c 257
 315 1500 l 257
NamedP: "ah01"
 561 1500 l 257
NamedP: "sh02"
EndSplineSet
PickledDataWithLists: "(dp0
Vcom.adobe.type.autohint
p1
(c_codecs
encode
p2
(Vdata
p3
Vlatin1
p4
tp5
Rp6
g2
(V<data>\\u000a        <hintSetList>\\u000a          <hintset pointTag=\"sh01\">\\u000a            <hstem pos=\"1013\" width=\"487\"/>\\u000a            <vstem pos=\"315\" width=\"246\"/>\\u000a            <vstem pos=\"615\" width=\"246\"/>\\u000a          </hintset>\\u000a        </hintSetList>\\u000a      </data>
p7
g4
tp8
Rp9
Ntp10
sVcom.fontlab.ttprogram
p11
(g2
(Vdata
p12
g4
tp13
Rp14
g2
(V<data>\\u000a        <ttProgram>\\u000a          <ttc align=\"round\" code=\"alignh\" point=\"ah01\"/>\\u000a          <ttc align=\"round\" code=\"alignh\" point=\"ah02\"/>\\u000a          <ttc code=\"singleh\" point1=\"ah02\" point2=\"sh01\" stem=\"eq X: ecart du B\"/>\\u000a          <ttc code=\"singleh\" point1=\"ah01\" point2=\"sh02\" stem=\"eq X: ecart du B\"/>\\u000a          <ttc code=\"alignt\" point=\"sh02\" zone=\"t: 1\"/>\\u000a          <ttc code=\"alignt\" point=\"sh01\" zone=\"t: 1\"/>\\u000a          <ttc code=\"singlev\" point1=\"sh01\" point2=\"sv01\" round=\"true\"/>\\u000a          <ttc code=\"singlev\" point1=\"sh02\" point2=\"sv02\" round=\"true\"/>\\u000a        </ttProgram>\\u000a      </data>
p15
g4
tp16
Rp17
Ntp18
s."
EndChar
StartChar: numbersign
Encoding: 337 35 337
GlifName: numbersign
Width: 1300
VWidth: 0
Flags: W
LayerCount: 2
Fore
SplineSet
1051 885 m 257
NamedP: "hr00"
 1046 845 1046 845 1041.5 809 c 128
 1037 773 1037 773 1032 738 c 128
 1027 703 1027 703 1022.5 666 c 128
 1018 629 1018 629 1013 587 c 257
 1266 587 l 257
 1239 373 l 257
 989 373 l 257
 984 329 984 329 978 281 c 128
 972 233 972 233 965.5 184.5 c 128
 959 136 959 136 953 89 c 128
 947 42 947 42 942 0 c 257
 636 -17 l 257
 686 373 l 257
 520 373 l 257
 515 329 515 329 508.5 281 c 128
 502 233 502 233 495.5 184.5 c 128
 489 136 489 136 482.5 89 c 128
 476 42 476 42 471 0 c 257
 166 -17 l 257
 219 373 l 257
 42 373 l 257
 42 587 l 257
 244 587 l 257
 281 885 l 257
 38 885 l 257
 65 1100 l 257
 307 1100 l 257
 312 1135 312 1135 315.5 1167.5 c 128
 319 1200 319 1200 324 1235 c 257
 324 1500 l 257
 661 1520 l 257
 608 1100 l 257
 775 1100 l 257
 780 1144 780 1144 786.5 1196 c 128
 793 1248 793 1248 800.5 1301.5 c 128
 808 1355 808 1355 814.5 1406.5 c 128
 821 1458 821 1458 826 1500 c 257
 1134 1520 l 257
 1077 1100 l 257
 1263 1100 l 257
 1263 885 l 257
 1051 885 l 257
NamedP: "hr00"
748 885 m 257
 584 885 l 257
 579 845 579 845 574.5 809 c 128
 570 773 570 773 565.5 738 c 128
 561 703 561 703 556.5 666 c 128
 552 629 552 629 547 587 c 257
 711 587 l 257
 748 885 l 257
EndSplineSet
PickledDataWithLists: "(dp0
Vcom.adobe.type.autohint
p1
(c_codecs
encode
p2
(Vdata
p3
Vlatin1
p4
tp5
Rp6
g2
(V<data>\\u000a        <hintSetList>\\u000a          <hintset pointTag=\"hr00\">\\u000a            <hstem pos=\"4\" width=\"-21\"/>\\u000a            <hstem pos=\"373\" width=\"214\"/>\\u000a            <hstem pos=\"885\" width=\"215\"/>\\u000a            <hstem pos=\"1520\" width=\"-20\"/>\\u000a          </hintset>\\u000a        </hintSetList>\\u000a      </data>
p7
g4
tp8
Rp9
Ntp10
s."
EndChar
StartChar: dollar
Encoding: 213 36 213
GlifName: dollar
Width: 1300
VWidth: 0
Flags: W
LayerCount: 2
Fore
SplineSet
500 -14 m 257
 394 -6 394 -6 302.5 27.5 c 128
 211 61 211 61 117 121 c 257
 255 348 l 257
 277 333 277 333 305.5 316 c 128
 334 299 334 299 366 283 c 128
 398 267 398 267 432.5 253.5 c 128
 467 240 467 240 500 233 c 257
 500 712 l 257
 431 745 431 745 364.5 781 c 128
 298 817 298 817 246 862 c 128
 194 907 194 907 162 964.5 c 128
 130 1022 130 1022 130 1097 c 257
 130 1179 130 1179 159.5 1245.5 c 128
 189 1312 189 1312 239.5 1363 c 128
 290 1414 290 1414 357.5 1448.5 c 128
 425 1483 425 1483 500 1500 c 257
 500 1681 l 257
 800 1719 l 257
 800 1499 l 257
 875 1482 875 1482 946 1450 c 128
 1017 1418 1017 1418 1090 1369 c 257
 940 1178 l 257
 898 1202 898 1202 863.5 1220 c 128
 829 1238 829 1238 800 1252 c 257
 800 866 l 257
 865 835 865 835 927 797 c 128
 989 759 989 759 1037.5 709.5 c 128
 1086 660 1086 660 1115.5 596 c 128
 1145 532 1145 532 1145 448 c 257
 1145 363 1145 363 1117.5 293.5 c 128
 1090 224 1090 224 1042 170 c 128
 994 116 994 116 929.5 77.5 c 128
 865 39 865 39 790 16 c 257
 790 -190 l 257
 500 -190 l 257
 500 -14 l 257
859 430 m 257
 859 484 859 484 826 524 c 128
 793 564 793 564 742 596 c 257
 742 249 l 257
 766 258 766 258 787.5 272.5 c 128
 809 287 809 287 825 308.5 c 128
 841 330 841 330 850 360 c 128
 859 390 859 390 859 430 c 257
436 1125 m 257
NamedP: "hr01"
 436 1096 436 1096 445.5 1073 c 128
 455 1050 455 1050 471.5 1031.5 c 128
 488 1013 488 1013 510 998.5 c 128
 532 984 532 984 558 972 c 257
 558 1268 l 257
 533 1260 533 1260 511 1248.5 c 128
 489 1237 489 1237 472.5 1219.5 c 128
 456 1202 456 1202 446 1179 c 128
 436 1156 436 1156 436 1125 c 257
NamedP: "hr01"
EndSplineSet
PickledDataWithLists: "(dp0
Vcom.adobe.type.autohint
p1
(c_codecs
encode
p2
(Vdata
p3
Vlatin1
p4
tp5
Rp6
g2
(V<data>\\u000a        <hintSetList>\\u000a          <hintset pointTag=\"hr01\">\\u000a            <hstem pos=\"-169\" width=\"-21\"/>\\u000a            <hstem pos=\"-169\" width=\"-21\"/>\\u000a            <hstem pos=\"1719\" width=\"-20\"/>\\u000a            <hstem pos=\"1719\" width=\"-20\"/>\\u000a            <vstem pos=\"130\" width=\"306\"/>\\u000a            <vstem pos=\"130\" width=\"306\"/>\\u000a            <vstem pos=\"500\" width=\"242\"/>\\u000a            <vstem pos=\"558\" width=\"242\"/>\\u000a            <vstem pos=\"859\" width=\"286\"/>\\u000a            <vstem pos=\"859\" width=\"286\"/>\\u000a          </hintset>\\u000a        </hintSetList>\\u000a      </data>
p7
g4
tp8
Rp9
Ntp10
s."
EndChar
StartChar: percent
Encoding: 370 37 370
GlifName: percent
Width: 1300
VWidth: 0
Flags: W
LayerCount: 2
Fore
SplineSet
461 0 m 257
 157 0 l 257
 821 1473 l 257
 1125 1473 l 257
 461 0 l 257
370 746 m 257
NamedP: "av03"
 284 746 284 746 224 774.5 c 128
 164 803 164 803 126 853 c 128
 88 903 88 903 71 972 c 128
 54 1041 54 1041 54 1121 c 257
NamedP: "ah04"
 54 1200 54 1200 70 1267.5 c 128
 86 1335 86 1335 123 1384 c 128
 160 1433 160 1433 220.5 1461 c 128
 281 1489 281 1489 370 1489 c 257
NamedP: "av02"
 455 1489 455 1489 515 1461 c 128
 575 1433 575 1433 612.5 1384 c 128
 650 1335 650 1335 667.5 1267.5 c 128
 685 1200 685 1200 685 1121 c 257
NamedP: "ah01"
 685 1041 685 1041 669 972 c 128
 653 903 653 903 616 853 c 128
 579 803 579 803 518.5 774.5 c 128
 458 746 458 746 370 746 c 257
NamedP: "av03"
423 1165 m 257
 423 1190 423 1190 421.5 1213 c 128
 420 1236 420 1236 414.5 1253 c 128
 409 1270 409 1270 397.5 1280.5 c 128
 386 1291 386 1291 367 1291 c 257
 350 1291 350 1291 340 1282 c 128
 330 1273 330 1273 325.5 1257.5 c 128
 321 1242 321 1242 320 1221.5 c 128
 319 1201 319 1201 319 1178 c 257
NamedP: "mh01"
 319 1084 l 257
 319 1058 319 1058 320.5 1035 c 128
 322 1012 322 1012 327.5 994.5 c 128
 333 977 333 977 344 966.5 c 128
 355 956 355 956 375 956 c 257
 391 956 391 956 401 965 c 128
 411 974 411 974 415.5 989.5 c 128
 420 1005 420 1005 421.5 1025 c 128
 423 1045 423 1045 423 1068 c 257
 423 1165 l 257
913 -16 m 257
NamedP: "ab01"
 827 -16 827 -16 767 12.5 c 128
 707 41 707 41 669.5 91 c 128
 632 141 632 141 614.5 210 c 128
 597 279 597 279 597 359 c 257
NamedP: "ah02"
 597 438 597 438 613 505.5 c 128
 629 573 629 573 666 622.5 c 128
 703 672 703 672 763.5 699.5 c 128
 824 727 824 727 913 727 c 257
NamedP: "av01"
 998 727 998 727 1058 699.5 c 128
 1118 672 1118 672 1156 622.5 c 128
 1194 573 1194 573 1211 505.5 c 128
 1228 438 1228 438 1228 359 c 257
NamedP: "ah03"
 1228 279 1228 279 1212 210 c 128
 1196 141 1196 141 1159 91 c 128
 1122 41 1122 41 1061.5 12.5 c 128
 1001 -16 1001 -16 913 -16 c 257
NamedP: "ab01"
966 404 m 257
 966 429 966 429 964.5 451.5 c 128
 963 474 963 474 957.5 491.5 c 128
 952 509 952 509 940.5 519 c 128
 929 529 929 529 910 529 c 257
 893 529 893 529 883.5 520 c 128
 874 511 874 511 869.5 495.5 c 128
 865 480 865 480 863.5 459.5 c 128
 862 439 862 439 862 417 c 257
NamedP: "mh02"
 862 323 l 257
 862 297 862 297 863.5 273.5 c 128
 865 250 865 250 871 232.5 c 128
 877 215 877 215 888.5 204.5 c 128
 900 194 900 194 920 194 c 257
 936 194 936 194 945 203 c 128
 954 212 954 212 958.5 227.5 c 128
 963 243 963 243 964.5 263 c 128
 966 283 966 283 966 306 c 257
 966 404 l 257
EndSplineSet
PickledDataWithLists: "(dp0
Vcom.adobe.type.autohint
p1
(c_codecs
encode
p2
(Vdata
p3
Vlatin1
p4
tp5
Rp6
g2
(V<data>\\u000a        <hintSetList/>\\u000a      </data>
p7
g4
tp8
Rp9
Ntp10
sVcom.fontlab.ttprogram
p11
(g2
(Vdata
p12
g4
tp13
Rp14
g2
(V<data>\\u000a        <ttProgram>\\u000a          <ttc align=\"round\" code=\"alignh\" point=\"ah01\"/>\\u000a          <ttc align=\"round\" code=\"alignh\" point=\"ah02\"/>\\u000a          <ttc align=\"round\" code=\"alignh\" point=\"ah03\"/>\\u000a          <ttc align=\"round\" code=\"alignh\" point=\"ah04\"/>\\u000a          <ttc code=\"mdeltah\" delta=\"-2\" point=\"mh01\" ppm1=\"16\" ppm2=\"16\"/>\\u000a          <ttc code=\"mdeltah\" delta=\"-1\" point=\"mh02\" ppm1=\"13\" ppm2=\"13\"/>\\u000a          <ttc align=\"round\" code=\"alignv\" point=\"av01\"/>\\u000a          <ttc align=\"round\" code=\"alignv\" point=\"av02\"/>\\u000a          <ttc align=\"round\" code=\"alignv\" point=\"av03\"/>\\u000a          <ttc code=\"alignb\" point=\"ab01\" zone=\"b: 0\"/>\\u000a        </ttProgram>\\u000a      </data>
p15
g4
tp16
Rp17
Ntp18
s."
EndChar
StartChar: ampersand
Encoding: 99 38 99
GlifName: ampersand
Width: 1300
VWidth: 0
Flags: W
LayerCount: 2
Fore
SplineSet
1200 740 m 257
 1200 642 1200 642 1184 559.5 c 128
 1168 477 1168 477 1141 409.5 c 128
 1114 342 1114 342 1077.5 289.5 c 128
 1041 237 1041 237 1000 200 c 257
 1077 200 l 257
 1241 -17 l 257
 862 -17 l 257
 786 100 l 257
 750 11 l 257
NamedP: "ah03"
 727 5 727 5 703.5 0 c 128
 680 -5 680 -5 654.5 -9 c 128
 629 -13 629 -13 599.5 -15 c 128
 570 -17 570 -17 534 -17 c 257
NamedP: "ab01"
 421 -17 421 -17 330 21.5 c 128
 239 60 239 60 174.5 124.5 c 128
 110 189 110 189 75.5 274.5 c 128
 41 360 41 360 41 454 c 257
NamedP: "ah01"
 41 532 41 532 63 597 c 128
 85 662 85 662 120 713.5 c 128
 155 765 155 765 198.5 803.5 c 128
 242 842 242 842 285 867 c 257
 268 896 268 896 251 930 c 128
 234 964 234 964 220.5 999.5 c 128
 207 1035 207 1035 198.5 1069.5 c 128
 190 1104 190 1104 190 1134 c 257
NamedP: "ah04"
 190 1208 190 1208 212.5 1274.5 c 128
 235 1341 235 1341 284 1391 c 128
 333 1441 333 1441 410.5 1470.5 c 128
 488 1500 488 1500 598 1500 c 257
NamedP: "at01"
 675 1500 675 1500 733.5 1482.5 c 128
 792 1465 792 1465 838 1435.5 c 128
 884 1406 884 1406 920.5 1367.5 c 128
 957 1329 957 1329 991 1286 c 257
 850 1100 l 257
 822 1137 822 1137 797 1165 c 128
 772 1193 772 1193 745.5 1212 c 128
 719 1231 719 1231 688.5 1240.5 c 128
 658 1250 658 1250 620 1250 c 257
 584 1250 584 1250 562 1238.5 c 128
 540 1227 540 1227 527.5 1210 c 128
 515 1193 515 1193 510.5 1172.5 c 128
 506 1152 506 1152 506 1133 c 257
 506 1121 506 1121 507.5 1108.5 c 128
 509 1096 509 1096 513 1084 c 257
 518 1064 518 1064 531.5 1037 c 128
 545 1010 545 1010 571.5 965.5 c 128
 598 921 598 921 639.5 854 c 128
 681 787 681 787 742 688 c 257
 761 657 761 657 773 637.5 c 128
 785 618 785 618 798 598 c 128
 811 578 811 578 827.5 551.5 c 128
 844 525 844 525 872 480 c 257
 886 498 886 498 894 527 c 257
 901 554 901 554 900 621 c 257
NamedP: "ah02"
 900 720 l 257
 1200 740 l 257
400 694 m 257
 400 596 l 257
 366 543 366 543 366 463 c 257
 366 405 366 405 383.5 362 c 128
 401 319 401 319 428.5 290.5 c 128
 456 262 456 262 490 247.5 c 128
 524 233 524 233 557 233 c 257
 599 233 599 233 625.5 243.5 c 128
 652 254 652 254 672 269 c 257
 400 694 l 257
EndSplineSet
PickledDataWithLists: "(dp0
Vcom.adobe.type.autohint
p1
(c_codecs
encode
p2
(Vdata
p3
Vlatin1
p4
tp5
Rp6
g2
(V<data>\\u000a        <hintSetList>\\u000a          <hintset pointTag=\"ah02\">\\u000a            <hstem pos=\"-17\" width=\"250\"/>\\u000a            <hstem pos=\"1250\" width=\"250\"/>\\u000a            <vstem pos=\"41\" width=\"325\"/>\\u000a            <vstem pos=\"900\" width=\"300\"/>\\u000a          </hintset>\\u000a        </hintSetList>\\u000a      </data>
p7
g4
tp8
Rp9
Ntp10
sVcom.fontlab.ttprogram
p11
(g2
(Vdata
p12
g4
tp13
Rp14
g2
(V<data>\\u000a        <ttProgram>\\u000a          <ttc align=\"round\" code=\"alignh\" point=\"ah01\"/>\\u000a          <ttc align=\"round\" code=\"alignh\" point=\"ah02\"/>\\u000a          <ttc align=\"round\" code=\"alignh\" point=\"ah03\"/>\\u000a          <ttc align=\"round\" code=\"alignh\" point=\"ah04\"/>\\u000a          <ttc code=\"alignt\" point=\"at01\" zone=\"t: 1\"/>\\u000a          <ttc code=\"alignb\" point=\"ab01\" zone=\"b: 0\"/>\\u000a        </ttProgram>\\u000a      </data>
p15
g4
tp16
Rp17
Ntp18
s."
EndChar
StartChar: quotesingle
Encoding: 403 39 403
GlifName: quotesingle
Width: 1300
VWidth: 0
Flags: W
LayerCount: 2
Fore
SplineSet
230 1500 m 257,0,-1
NamedP: "hr00"
 500 1500 l 257,1,-1
 500 1367 l 257,2,3
 500 1331 500 1331 493 1298.5 c 128,-1,4
 486 1266 486 1266 469.5 1231.5 c 128,-1,5
 453 1197 453 1197 426 1157.5 c 128,-1,6
 399 1118 399 1118 359 1068 c 257,7,-1
 220 1068 l 257,8,9
 222 1149 222 1149 226 1225 c 128,-1,10
 230 1301 230 1301 230 1367 c 257,11,-1
 230 1500 l 257,0,-1
NamedP: "hr00"
EndSplineSet
PickledDataWithLists: "(dp0
Vcom.adobe.type.autohint
p1
(c_codecs
encode
p2
(Vdata
p3
Vlatin1
p4
tp5
Rp6
g2
(V<data>\\u000a        <hintSetList>\\u000a          <hintset pointTag=\"hr00\">\\u000a            <hstem pos=\"1068\" width=\"432\"/>\\u000a            <vstem pos=\"220\" width=\"280\"/>\\u000a          </hintset>\\u000a        </hintSetList>\\u000a      </data>
p7
g4
tp8
Rp9
Ntp10
s."
EndChar
StartChar: parenleft
Encoding: 365 40 365
GlifName: parenleft
Width: 1300
VWidth: 0
Flags: W
LayerCount: 2
Fore
SplineSet
379 1158 m 257
NamedP: "hr00"
 379 1251 379 1251 389 1331.5 c 128
 399 1412 399 1412 434.5 1472 c 128
 470 1532 470 1532 537.5 1566 c 128
 605 1600 605 1600 719 1600 c 257
NamedP: "av01"
 744 1600 744 1600 772.5 1596.5 c 128
 801 1593 801 1593 829.5 1586 c 128
 858 1579 858 1579 884 1568.5 c 128
 910 1558 910 1558 931 1545 c 257
NamedP: "ah01"
 841 1431 l 257
 823 1431 823 1431 798.5 1426 c 128
 774 1421 774 1421 752 1400.5 c 128
 730 1380 730 1380 715 1339 c 128
 700 1298 700 1298 700 1227 c 257
 700 -46 l 257
 700 -120 700 -120 715.5 -160 c 128
 731 -200 731 -200 752 -219 c 128
 773 -238 773 -238 795.5 -241.5 c 128
 818 -245 818 -245 833 -245 c 257
 931 -365 l 257
NamedP: "ah02"
 910 -378 910 -378 884 -388.5 c 128
 858 -399 858 -399 829.5 -406 c 128
 801 -413 801 -413 772.5 -416.5 c 128
 744 -420 744 -420 719 -420 c 257
NamedP: "av02"
 605 -420 605 -420 537.5 -383.5 c 128
 470 -347 470 -347 434.5 -284 c 128
 399 -221 399 -221 389 -138 c 128
 379 -55 379 -55 379 38 c 257
 379 1158 l 257
NamedP: "hr00"
EndSplineSet
PickledDataWithLists: "(dp0
Vcom.adobe.type.autohint
p1
(c_codecs
encode
p2
(Vdata
p3
Vlatin1
p4
tp5
Rp6
g2
(V<data>\\u000a        <hintSetList>\\u000a          <hintset pointTag=\"hr00\">\\u000a            <hstem pos=\"-399\" width=\"-21\"/>\\u000a            <hstem pos=\"1600\" width=\"-20\"/>\\u000a            <vstem pos=\"379\" width=\"321\"/>\\u000a          </hintset>\\u000a        </hintSetList>\\u000a      </data>
p7
g4
tp8
Rp9
Ntp10
sVcom.fontlab.ttprogram
p11
(g2
(Vdata
p12
g4
tp13
Rp14
g2
(V<data>\\u000a        <ttProgram>\\u000a          <ttc align=\"round\" code=\"alignh\" point=\"ah01\"/>\\u000a          <ttc align=\"round\" code=\"alignh\" point=\"ah02\"/>\\u000a          <ttc align=\"round\" code=\"alignv\" point=\"av01\"/>\\u000a          <ttc align=\"round\" code=\"alignv\" point=\"av02\"/>\\u000a        </ttProgram>\\u000a      </data>
p15
g4
tp16
Rp17
Ntp18
s."
EndChar
StartChar: parenright
Encoding: 366 41 366
GlifName: parenright
Width: 1300
VWidth: 0
Flags: W
LayerCount: 2
Fore
SplineSet
1020 38 m 257
NamedP: "hr00"
 1020 -55 1020 -55 1010 -138 c 128
 1000 -221 1000 -221 964.5 -284 c 128
 929 -347 929 -347 861.5 -383.5 c 128
 794 -420 794 -420 680 -420 c 257
NamedP: "av02"
 654 -420 654 -420 626 -416.5 c 128
 598 -413 598 -413 569.5 -406 c 128
 541 -399 541 -399 515 -388.5 c 128
 489 -378 489 -378 468 -365 c 257
NamedP: "ah02"
 566 -245 l 257
 581 -245 581 -245 603.5 -241.5 c 128
 626 -238 626 -238 647 -219 c 128
 668 -200 668 -200 683.5 -160 c 128
 699 -120 699 -120 699 -46 c 257
 699 1227 l 257
 699 1298 699 1298 684 1339 c 128
 669 1380 669 1380 647 1400.5 c 128
 625 1421 625 1421 600.5 1426 c 128
 576 1431 576 1431 558 1431 c 257
 468 1545 l 257
NamedP: "ah01"
 489 1558 489 1558 515 1568.5 c 128
 541 1579 541 1579 569.5 1586 c 128
 598 1593 598 1593 626 1596.5 c 128
 654 1600 654 1600 680 1600 c 257
NamedP: "av01"
 794 1600 794 1600 861.5 1566 c 128
 929 1532 929 1532 964.5 1472 c 128
 1000 1412 1000 1412 1010 1331.5 c 128
 1020 1251 1020 1251 1020 1158 c 257
 1020 38 l 257
NamedP: "hr00"
EndSplineSet
PickledDataWithLists: "(dp0
Vcom.adobe.type.autohint
p1
(c_codecs
encode
p2
(Vdata
p3
Vlatin1
p4
tp5
Rp6
g2
(V<data>\\u000a        <hintSetList>\\u000a          <hintset pointTag=\"hr00\">\\u000a            <hstem pos=\"-399\" width=\"-21\"/>\\u000a            <hstem pos=\"1600\" width=\"-20\"/>\\u000a            <vstem pos=\"699\" width=\"321\"/>\\u000a          </hintset>\\u000a        </hintSetList>\\u000a      </data>
p7
g4
tp8
Rp9
Ntp10
sVcom.fontlab.ttprogram
p11
(g2
(Vdata
p12
g4
tp13
Rp14
g2
(V<data>\\u000a        <ttProgram>\\u000a          <ttc align=\"round\" code=\"alignh\" point=\"ah01\"/>\\u000a          <ttc align=\"round\" code=\"alignh\" point=\"ah02\"/>\\u000a          <ttc align=\"round\" code=\"alignv\" point=\"av01\"/>\\u000a          <ttc align=\"round\" code=\"alignv\" point=\"av02\"/>\\u000a        </ttProgram>\\u000a      </data>
p15
g4
tp16
Rp17
Ntp18
s."
EndChar
StartChar: asterisk
Encoding: 125 42 125
GlifName: asterisk
Width: 1300
VWidth: 0
Flags: W
LayerCount: 2
Fore
SplineSet
744 1037 m 257
NamedP: "hr00"
 967 1037 l 257
 1105 1083 l 257
 1011 1294 l 257
 867 1247 l 257
 720 1117 l 257
 797 1309 l 257
 797 1470 l 257
 568 1446 l 257
 568 1315 l 257
 635 1120 l 257
 476 1259 l 257
 291 1309 l 257
 247 1090 l 257
 398 1041 l 257
 608 1041 l 257
 447 950 l 257
 325 781 l 257
 524 656 l 257
 625 800 l 257
 675 990 l 257
 730 800 l 257
 842 654 l 257
 1010 805 l 257
 918 926 l 257
 744 1037 l 257
NamedP: "hr00"
EndSplineSet
PickledDataWithLists: "(dp0
Vcom.adobe.type.autohint
p1
(c_codecs
encode
p2
(Vdata
p3
Vlatin1
p4
tp5
Rp6
g2
(V<data>\\u000a        <hintSetList>\\u000a          <hintset pointTag=\"hr00\">\\u000a            <hstem pos=\"675\" width=\"-21\"/>\\u000a            <hstem pos=\"1470\" width=\"-20\"/>\\u000a            <vstem pos=\"568\" width=\"229\"/>\\u000a          </hintset>\\u000a        </hintSetList>\\u000a      </data>
p7
g4
tp8
Rp9
Ntp10
s."
EndChar
StartChar: plus
Encoding: 384 43 384
GlifName: plus
Width: 1300
VWidth: 0
Flags: W
LayerCount: 2
Fore
SplineSet
179 700 m 257,0,-1
NamedP: "hr00"
 539 700 l 257,1,-1
 539 1117 l 257,2,-1
 759 1117 l 257,3,-1
 759 700 l 257,4,-1
 1119 700 l 257,5,-1
 1119 500 l 257,6,-1
 759 500 l 257,7,-1
 759 100 l 257,8,-1
 539 100 l 257,9,-1
 539 500 l 257,10,-1
 179 500 l 257,11,-1
 179 700 l 257,0,-1
NamedP: "hr00"
EndSplineSet
PickledDataWithLists: "(dp0
Vcom.adobe.type.autohint
p1
(c_codecs
encode
p2
(Vdata
p3
Vlatin1
p4
tp5
Rp6
g2
(V<data>\\u000a        <hintSetList>\\u000a          <hintset pointTag=\"hr00\">\\u000a            <hstem pos=\"121\" width=\"-21\"/>\\u000a            <hstem pos=\"500\" width=\"200\"/>\\u000a            <hstem pos=\"1117\" width=\"-20\"/>\\u000a            <vstem pos=\"539\" width=\"220\"/>\\u000a          </hintset>\\u000a        </hintSetList>\\u000a      </data>
p7
g4
tp8
Rp9
Ntp10
s."
EndChar
StartChar: comma
Encoding: 191 44 191
GlifName: comma
Width: 1300
VWidth: 0
Flags: W
LayerCount: 2
Fore
SplineSet
122 156 m 257
NamedP: "ah01"
 122 191 122 191 136 222.5 c 128
 150 254 150 254 174.5 277.5 c 128
 199 301 199 301 231.5 315 c 128
 264 329 264 329 300 329 c 257
NamedP: "av01"
 334 329 334 329 366 316.5 c 128
 398 304 398 304 423 279.5 c 128
 448 255 448 255 463 219 c 128
 478 183 478 183 478 136 c 257
NamedP: "ah02"
 478 73 478 73 470 12.5 c 128
 462 -48 462 -48 437.5 -108.5 c 128
 413 -169 413 -169 367.5 -232.5 c 128
 322 -296 322 -296 247 -365 c 257
 185 -337 l 257
 199 -311 199 -311 211 -283.5 c 128
 223 -256 223 -256 234 -228 c 257
 252 -180 252 -180 267 -125.5 c 128
 282 -71 282 -71 282 -17 c 257
NamedP: "ab01"
 252 -16 252 -16 223 -4.5 c 128
 194 7 194 7 171.5 29 c 128
 149 51 149 51 135.5 82.5 c 128
 122 114 122 114 122 156 c 257
NamedP: "ah01"
EndSplineSet
PickledDataWithLists: "(dp0
Vcom.adobe.type.autohint
p1
(c_codecs
encode
p2
(Vdata
p3
Vlatin1
p4
tp5
Rp6
g2
(V<data>\\u000a        <hintSetList>\\u000a          <hintset pointTag=\"ah01\">\\u000a            <hstem pos=\"-344\" width=\"-21\"/>\\u000a            <hstem pos=\"329\" width=\"-20\"/>\\u000a            <vstem pos=\"122\" width=\"356\"/>\\u000a          </hintset>\\u000a        </hintSetList>\\u000a      </data>
p7
g4
tp8
Rp9
Ntp10
sVcom.fontlab.ttprogram
p11
(g2
(Vdata
p12
g4
tp13
Rp14
g2
(V<data>\\u000a        <ttProgram>\\u000a          <ttc align=\"round\" code=\"alignh\" point=\"ah01\"/>\\u000a          <ttc align=\"round\" code=\"alignh\" point=\"ah02\"/>\\u000a          <ttc align=\"round\" code=\"alignv\" point=\"av01\"/>\\u000a          <ttc code=\"alignb\" point=\"ab01\" zone=\"b: 0\"/>\\u000a        </ttProgram>\\u000a      </data>
p15
g4
tp16
Rp17
Ntp18
s."
EndChar
StartChar: hyphen
Encoding: 283 45 283
GlifName: hyphen
Width: 1300
VWidth: 0
Flags: W
LayerCount: 2
Fore
SplineSet
335 624 m 257
NamedP: "hr00"
 962 624 l 257
 962 400 l 257
 335 400 l 257
 335 624 l 257
NamedP: "hr00"
EndSplineSet
PickledDataWithLists: "(dp0
Vcom.adobe.type.autohint
p1
(c_codecs
encode
p2
(Vdata
p3
Vlatin1
p4
tp5
Rp6
g2
(V<data>\\u000a        <hintSetList>\\u000a          <hintset pointTag=\"hr00\">\\u000a            <hstem pos=\"400\" width=\"224\"/>\\u000a          </hintset>\\u000a        </hintSetList>\\u000a      </data>
p7
g4
tp8
Rp9
Ntp10
s."
EndChar
StartChar: period
Encoding: 371 46 371
GlifName: period
Width: 1300
VWidth: 0
Flags: W
LayerCount: 2
Fore
SplineSet
103 183 m 257
NamedP: "ah01"
 103 224 103 224 118.5 260 c 128
 134 296 134 296 161 323 c 128
 188 350 188 350 223.5 365.5 c 128
 259 381 259 381 300 381 c 257
NamedP: "av01"
 341 381 341 381 377 365.5 c 128
 413 350 413 350 440 323 c 128
 467 296 467 296 482.5 260 c 128
 498 224 498 224 498 183 c 257
NamedP: "ah02"
 498 142 498 142 482.5 105.5 c 128
 467 69 467 69 440.5 42 c 128
 414 15 414 15 378 -1 c 128
 342 -17 342 -17 302 -17 c 257
NamedP: "ab01"
 261 -17 261 -17 224.5 -1 c 128
 188 15 188 15 161 42 c 128
 134 69 134 69 118.5 105.5 c 128
 103 142 103 142 103 183 c 257
NamedP: "ah01"
EndSplineSet
PickledDataWithLists: "(dp0
Vcom.adobe.type.autohint
p1
(c_codecs
encode
p2
(Vdata
p3
Vlatin1
p4
tp5
Rp6
g2
(V<data>\\u000a        <hintSetList>\\u000a          <hintset pointTag=\"ah01\">\\u000a            <hstem pos=\"-17\" width=\"398\"/>\\u000a            <vstem pos=\"103\" width=\"395\"/>\\u000a          </hintset>\\u000a        </hintSetList>\\u000a      </data>
p7
g4
tp8
Rp9
Ntp10
sVcom.fontlab.ttprogram
p11
(g2
(Vdata
p12
g4
tp13
Rp14
g2
(V<data>\\u000a        <ttProgram>\\u000a          <ttc align=\"round\" code=\"alignh\" point=\"ah01\"/>\\u000a          <ttc align=\"round\" code=\"alignh\" point=\"ah02\"/>\\u000a          <ttc align=\"round\" code=\"alignv\" point=\"av01\"/>\\u000a          <ttc code=\"alignb\" point=\"ab01\" zone=\"b: 0\"/>\\u000a        </ttProgram>\\u000a      </data>
p15
g4
tp16
Rp17
Ntp18
s."
EndChar
StartChar: zero
Encoding: 585 48 585
GlifName: zero
Width: 1300
VWidth: 0
Flags: W
LayerCount: 2
Fore
SplineSet
628 -16 m 257
NamedP: "hr00"
 535 -16 535 -16 457 16.5 c 128
 379 49 379 49 317 105 c 128
 255 161 255 161 208 236 c 128
 161 311 161 311 130 396 c 128
 99 481 99 481 83.5 572 c 128
 68 663 68 663 68 750 c 257
 68 840 68 840 81 931.5 c 128
 94 1023 94 1023 122.5 1108.5 c 128
 151 1194 151 1194 195.5 1268 c 128
 240 1342 240 1342 302 1397.5 c 128
 364 1453 364 1453 445 1484.5 c 128
 526 1516 526 1516 628 1516 c 257
 721 1516 721 1516 799 1483.5 c 128
 877 1451 877 1451 939 1395 c 128
 1001 1339 1001 1339 1048 1264 c 128
 1095 1189 1095 1189 1126 1104 c 128
 1157 1019 1157 1019 1172.5 928 c 128
 1188 837 1188 837 1188 750 c 257
 1188 660 1188 660 1174.5 568.5 c 128
 1161 477 1161 477 1133 391.5 c 128
 1105 306 1105 306 1060.5 232 c 128
 1016 158 1016 158 953.5 102.5 c 128
 891 47 891 47 810 15.5 c 128
 729 -16 729 -16 628 -16 c 257
NamedP: "hr00"
396 791 m 257
 396 740 396 740 400.5 678 c 128
 405 616 405 616 415.5 553.5 c 128
 426 491 426 491 444 432 c 128
 462 373 462 373 488.5 327 c 128
 515 281 515 281 551 253.5 c 128
 587 226 587 226 635 226 c 257
 677 226 677 226 710 246.5 c 128
 743 267 743 267 768 302.5 c 128
 793 338 793 338 810.5 385.5 c 128
 828 433 828 433 839 487 c 128
 850 541 850 541 855 597.5 c 128
 860 654 860 654 860 709 c 257
 860 760 860 760 855.5 822 c 128
 851 884 851 884 840.5 946.5 c 128
 830 1009 830 1009 812 1068 c 128
 794 1127 794 1127 767.5 1172.5 c 128
 741 1218 741 1218 704.5 1245.5 c 128
 668 1273 668 1273 620 1273 c 257
 578 1273 578 1273 545 1252.5 c 128
 512 1232 512 1232 487 1196.5 c 128
 462 1161 462 1161 444.5 1113.5 c 128
 427 1066 427 1066 416.5 1012.5 c 128
 406 959 406 959 401 902 c 128
 396 845 396 845 396 791 c 257
EndSplineSet
PickledDataWithLists: "(dp0
Vcom.adobe.type.autohint
p1
(c_codecs
encode
p2
(Vdata
p3
Vlatin1
p4
tp5
Rp6
g2
(V<data>\\u000a        <hintSetList>\\u000a          <hintset pointTag=\"hr00\">\\u000a            <hstem pos=\"-16\" width=\"242\"/>\\u000a            <hstem pos=\"1273\" width=\"243\"/>\\u000a            <vstem pos=\"68\" width=\"328\"/>\\u000a            <vstem pos=\"860\" width=\"328\"/>\\u000a          </hintset>\\u000a        </hintSetList>\\u000a      </data>
p7
g4
tp8
Rp9
Ntp10
s."
EndChar
StartChar: one
Encoding: 348 49 348
GlifName: one
Width: 1300
VWidth: 0
Flags: W
LayerCount: 2
Fore
SplineSet
545 200 m 257
NamedP: "hr00"
 302 200 l 257
 302 0 l 257
 1119 0 l 257
 1119 200 l 257
 876 200 l 257
 876 1500 l 257
 633 1520 l 257
 153 1083 l 257
 308 898 l 257
 392 972 l 257
 619 1243 l 257
 545 880 l 257
 545 200 l 257
NamedP: "hr00"
EndSplineSet
PickledDataWithLists: "(dp0
Vcom.adobe.type.autohint
p1
(c_codecs
encode
p2
(Vdata
p3
Vlatin1
p4
tp5
Rp6
g2
(V<data>\\u000a        <hintSetList>\\u000a          <hintset pointTag=\"hr00\">\\u000a            <hstem pos=\"0\" width=\"200\"/>\\u000a            <hstem pos=\"1520\" width=\"-20\"/>\\u000a            <vstem pos=\"545\" width=\"331\"/>\\u000a          </hintset>\\u000a        </hintSetList>\\u000a      </data>
p7
g4
tp8
Rp9
Ntp10
s."
EndChar
StartChar: two
Encoding: 534 50 534
GlifName: two
Width: 1300
VWidth: 0
Flags: W
LayerCount: 2
Fore
SplineSet
1122 0 m 257
NamedP: "hr00"
 1122 200 l 257
 480 200 l 257
 506 236 506 236 563 303.5 c 0
 620 371 620 371 702 465.5 c 0
 784 560 784 560 835 621 c 256
 853 643 853 643 899 696.5 c 0
 945 750 945 750 963.5 773 c 0
 982 796 982 796 1014.5 842 c 0
 1047 888 1047 888 1060.5 919.5 c 0
 1074 951 1074 951 1085.5 996 c 0
 1097 1041 1097 1041 1097 1086 c 256
 1097 1166 1097 1166 1064 1242.5 c 0
 1031 1319 1031 1319 972 1380.5 c 0
 913 1442 913 1442 820.5 1479.5 c 0
 728 1517 728 1517 618 1517 c 256
 430 1517 430 1517 303 1429 c 0
 176 1341 176 1341 116 1183 c 257
 349 1096 l 257
 453 1300 453 1300 603 1300 c 256
 681 1300 681 1300 730.5 1238 c 0
 780 1176 780 1176 780 1097 c 256
 780 1073 780 1073 776.5 1052.5 c 0
 773 1032 773 1032 770.5 1016.5 c 0
 768 1001 768 1001 755 980 c 0
 742 959 742 959 736.5 948.5 c 0
 731 938 731 938 708 911.5 c 0
 685 885 685 885 676 874.5 c 0
 667 864 667 864 632.5 827.5 c 0
 598 791 598 791 583 775 c 256
 461 643 461 643 328.5 482.5 c 0
 196 322 196 322 112 190 c 257
 112 0 l 257
 1122 0 l 257
NamedP: "hr00"
EndSplineSet
PickledDataWithLists: "(dp0
Vcom.adobe.type.autohint
p1
(c_codecs
encode
p2
(Vdata
p3
Vlatin1
p4
tp5
Rp6
g2
(V<data>\\u000a        <hintSetList>\\u000a          <hintset pointTag=\"hr00\">\\u000a            <hstem pos=\"0\" width=\"200\"/>\\u000a            <hstem pos=\"1300\" width=\"217\"/>\\u000a            <vstem pos=\"780\" width=\"317\"/>\\u000a          </hintset>\\u000a        </hintSetList>\\u000a      </data>
p7
g4
tp8
Rp9
Ntp10
s."
EndChar
StartChar: three
Encoding: 522 51 522
GlifName: three
Width: 1300
VWidth: 0
Flags: W
LayerCount: 2
Fore
SplineSet
283 760 m 257
NamedP: "`-+BFQAyAAA"
 410 770 410 770 489 770 c 256
 554 770 554 770 607 759 c 0
 660 748 660 748 703.5 725 c 0
 747 702 747 702 771 660.5 c 0
 795 619 795 619 795 563 c 256
 795 459 795 459 703.5 376.5 c 0
 612 294 612 294 471 250 c 0
 330 206 330 206 170 200 c 257
 170 0 l 257
 283 0 283 0 395.5 15 c 0
 508 30 508 30 617 60 c 0
 726 90 726 90 819.5 138.5 c 0
 913 187 913 187 984 248.5 c 0
 1055 310 1055 310 1095.5 393.5 c 0
 1136 477 1136 477 1136 573 c 256
 1136 756 1136 756 1008.5 862.5 c 0
 881 969 881 969 669 969 c 257
 825 1052 l 257
 907 1126 907 1126 961 1190.5 c 0
 1015 1255 1015 1255 1043 1327 c 257
 1043 1500 l 257
 201 1500 l 257
 180 1300 l 257
 511 1300 l 257
 771 1374 l 257
 674 1220 674 1220 283 938 c 257
 283 760 l 257
NamedP: "`-+BFQAyAAA"
EndSplineSet
PickledDataWithLists: "(dp0
Vcom.adobe.type.autohint
p1
(c_codecs
encode
p2
(Vdata
p3
Vlatin1
p4
tp5
Rp6
g2
(V<data>\\u000a        <hintSetList>\\u000a          <hintset pointTag=\"hr00\">\\u000a            <hstem pos=\"0\" width=\"200\"/>\\u000a            <hstem pos=\"770\" width=\"199\"/>\\u000a            <hstem pos=\"1300\" width=\"200\"/>\\u000a            <vstem pos=\"795\" width=\"341\"/>\\u000a          </hintset>\\u000a        </hintSetList>\\u000a      </data>
p7
g4
tp8
Rp9
Ntp10
s."
EndChar
StartChar: four
Encoding: 260 52 260
GlifName: four
Width: 1300
VWidth: 0
Flags: W
LayerCount: 2
Fore
SplineSet
1200 500 m 257
NamedP: "hr00"
 1001 500 l 257
 1001 800 l 257
 680 780 l 257
 680 500 l 257
 389 500 l 257
 563 763 l 257
 894 1500 l 257
 613 1520 l 257
 120 500 l 257
 120 300 l 257
 680 300 l 257
 680 0 l 257
 1001 0 l 257
 1001 300 l 257
 1179 300 l 257
 1200 500 l 257
NamedP: "hr00"
EndSplineSet
PickledDataWithLists: "(dp0
Vcom.adobe.type.autohint
p1
(c_codecs
encode
p2
(Vdata
p3
Vlatin1
p4
tp5
Rp6
g2
(V<data>\\u000a        <hintSetList>\\u000a          <hintset pointTag=\"hr00\">\\u000a            <hstem pos=\"21\" width=\"-21\"/>\\u000a            <hstem pos=\"300\" width=\"200\"/>\\u000a            <hstem pos=\"1520\" width=\"-20\"/>\\u000a            <vstem pos=\"680\" width=\"321\"/>\\u000a          </hintset>\\u000a        </hintSetList>\\u000a      </data>
p7
g4
tp8
Rp9
Ntp10
s."
EndChar
StartChar: five
Encoding: 252 53 252
GlifName: five
Width: 1300
VWidth: 0
Flags: W
LayerCount: 2
Fore
SplineSet
521 1300 m 257
NamedP: "hr00"
 1038 1300 l 257
 1038 1500 l 257
 172 1500 l 257
 172 759 l 257
 397 759 l 257
 491 822 491 822 611 822 c 256
 694 822 694 822 748.5 756.5 c 0
 803 691 803 691 803 606 c 256
 803 503 803 503 703.5 415 c 0
 604 327 604 327 460.5 278.5 c 0
 317 230 317 230 172 226 c 257
 172 0 l 257
 304 0 304 0 437.5 25 c 0
 571 50 571 50 695.5 102.5 c 0
 820 155 820 155 917 228 c 0
 1014 301 1014 301 1072 404 c 0
 1130 507 1130 507 1130 626 c 256
 1130 811 1130 811 996 935 c 0
 862 1059 862 1059 637 1059 c 256
 573 1059 573 1059 521 1046 c 257
 521 1300 l 257
NamedP: "hr00"
EndSplineSet
PickledDataWithLists: "(dp0
Vcom.adobe.type.autohint
p1
(c_codecs
encode
p2
(Vdata
p3
Vlatin1
p4
tp5
Rp6
g2
(V<data>\\u000a        <hintSetList>\\u000a          <hintset pointTag=\"hr00\">\\u000a            <hstem pos=\"0\" width=\"226\"/>\\u000a            <hstem pos=\"822\" width=\"237\"/>\\u000a            <hstem pos=\"1300\" width=\"200\"/>\\u000a            <vstem pos=\"172\" width=\"349\"/>\\u000a            <vstem pos=\"803\" width=\"327\"/>\\u000a          </hintset>\\u000a        </hintSetList>\\u000a      </data>
p7
g4
tp8
Rp9
Ntp10
s."
EndChar
StartChar: six
Encoding: 447 54 447
GlifName: six
Width: 1300
VWidth: 0
Flags: W
LayerCount: 2
Fore
SplineSet
1038 1498 m 257
NamedP: "$+AP4ArAAA"
 970 1517 970 1517 902 1517 c 256
 758 1517 758 1517 629.5 1470 c 0
 501 1423 501 1423 404.5 1339.5 c 0
 308 1256 308 1256 237.5 1144.5 c 0
 167 1033 167 1033 131 900.5 c 0
 95 768 95 768 95 627 c 256
 95 566 95 566 106.5 499.5 c 0
 118 433 118 433 142 359 c 0
 166 285 166 285 210 219 c 0
 254 153 254 153 312.5 99.5 c 0
 371 46 371 46 458 14.5 c 0
 545 -17 545 -17 648 -17 c 256
 808 -17 808 -17 935.5 57 c 0
 1063 131 1063 131 1131.5 254 c 0
 1200 377 1200 377 1200 525 c 256
 1200 635 1200 635 1158.5 720 c 0
 1117 805 1117 805 1045.5 855 c 0
 974 905 974 905 886 930.5 c 0
 798 956 798 956 698 956 c 256
 654 956 654 956 597 945 c 257
 432 800 l 257
 449 914 449 914 498 1011 c 0
 547 1108 547 1108 612 1169.5 c 0
 677 1231 677 1231 750 1265.5 c 0
 823 1300 823 1300 893 1300 c 256
 967 1300 967 1300 1004 1280 c 257
 1038 1498 l 257
NamedP: "$+AP4ArAAA"
684 756 m 256
 760 756 760 756 811.5 686.5 c 0
 863 617 863 617 863 516 c 256
 863 438 863 438 841 368 c 0
 819 298 819 298 769.5 249 c 0
 720 200 720 200 651 200 c 256
 581 200 581 200 528 266.5 c 0
 475 333 475 333 449 434 c 257
 432 492 432 492 432 601 c 257
 478 659 478 659 548.5 707.5 c 0
 619 756 619 756 684 756 c 256
EndSplineSet
PickledDataWithLists: "(dp0
Vcom.adobe.type.autohint
p1
(c_codecs
encode
p2
(Vdata
p3
Vlatin1
p4
tp5
Rp6
g2
(V<data>\\u000a        <hintSetList>\\u000a          <hintset pointTag=\"hr00\">\\u000a            <hstem pos=\"-17\" width=\"217\"/>\\u000a            <hstem pos=\"756\" width=\"200\"/>\\u000a            <hstem pos=\"1300\" width=\"217\"/>\\u000a            <vstem pos=\"863\" width=\"337\"/>\\u000a          </hintset>\\u000a        </hintSetList>\\u000a      </data>
p7
g4
tp8
Rp9
Ntp10
s."
EndChar
StartChar: seven
Encoding: 440 55 440
GlifName: seven
Width: 1300
VWidth: 0
Flags: W
LayerCount: 2
Fore
SplineSet
140 1272 m 257
NamedP: "hr00"
 776 1272 l 257
 760 1229 760 1229 672 1086 c 256
 419 678 419 678 364 418 c 256
 340 309 340 309 340 0 c 257
 677 0 l 257
 677 250 677 250 688 346 c 256
 697 417 697 417 724 497.5 c 0
 751 578 751 578 798.5 671 c 0
 846 764 846 764 879 822 c 0
 912 880 912 880 969 976 c 257
 1057 1118 1057 1118 1102 1205 c 0
 1147 1292 1147 1292 1147 1339 c 258
 1147 1500 l 257
 140 1500 l 257
 140 1272 l 257
NamedP: "hr00"
EndSplineSet
PickledDataWithLists: "(dp0
Vcom.adobe.type.autohint
p1
(c_codecs
encode
p2
(Vdata
p3
Vlatin1
p4
tp5
Rp6
g2
(V<data>\\u000a        <hintSetList>\\u000a          <hintset pointTag=\"hr00\">\\u000a            <hstem pos=\"21\" width=\"-21\"/>\\u000a            <hstem pos=\"1272\" width=\"228\"/>\\u000a          </hintset>\\u000a        </hintSetList>\\u000a      </data>
p7
g4
tp8
Rp9
Ntp10
s."
EndChar
StartChar: eight
Encoding: 225 56 225
GlifName: eight
Width: 1300
VWidth: 0
Flags: W
LayerCount: 2
Fore
SplineSet
616 1517 m 256
 554 1517 554 1517 491 1502.5 c 0
 428 1488 428 1488 367.5 1456.5 c 0
 307 1425 307 1425 260 1380.5 c 0
 213 1336 213 1336 184 1269.5 c 0
 155 1203 155 1203 155 1124 c 256
 155 975 155 975 370 848 c 257
 238 786 238 786 160 682 c 0
 82 578 82 578 82 441 c 256
NamedP: "180"
 82 354 82 354 111.5 279 c 0
 141 204 141 204 192.5 150.5 c 0
 244 97 244 97 312.5 58.5 c 0
 381 20 381 20 459.5 1.5 c 0
 538 -17 538 -17 622 -17 c 256
 732 -17 732 -17 831 10 c 0
 930 37 930 37 1010.5 89 c 0
 1091 141 1091 141 1139 228.5 c 0
 1187 316 1187 316 1187 427 c 256
 1187 562 1187 562 1100 668.5 c 0
 1013 775 1013 775 870 844 c 257
 1094 973 1094 973 1094 1134 c 256
NamedP: "176"
 1094 1309 1094 1309 960 1413 c 0
 826 1517 826 1517 616 1517 c 256
862 422 m 256
NamedP: "6"
 862 322 862 322 790.5 261 c 0
 719 200 719 200 623 200 c 256
 541 200 541 200 473.5 264 c 0
 406 328 406 328 406 421 c 256
 406 614 406 614 607 711 c 257
 862 592 862 592 862 422 c 256
NamedP: "6"
475 1156 m 256
NamedP: "5"
 475 1215 475 1215 525 1257.5 c 0
 575 1300 575 1300 634 1300 c 256
 682 1300 682 1300 728 1260.5 c 0
 774 1221 774 1221 774 1152 c 256
 774 1037 774 1037 643 964 c 257
 475 1042 475 1042 475 1156 c 256
NamedP: "5"
EndSplineSet
PickledDataWithLists: "(dp0
Vcom.adobe.type.autohint
p1
(c_codecs
encode
p2
(Vdata
p3
Vlatin1
p4
tp5
Rp6
g2
(V<data>\\u000a        <hintSetList>\\u000a          <hintset pointTag=\"hr01\">\\u000a            <hstem pos=\"-17\" width=\"217\"/>\\u000a            <hstem pos=\"1300\" width=\"217\"/>\\u000a            <vstem pos=\"82\" width=\"324\"/>\\u000a            <vstem pos=\"862\" width=\"325\"/>\\u000a          </hintset>\\u000a          <hintset pointTag=\"hr02\">\\u000a            <hstem pos=\"-17\" width=\"217\"/>\\u000a            <hstem pos=\"1300\" width=\"217\"/>\\u000a            <vstem pos=\"82\" width=\"324\"/>\\u000a            <vstem pos=\"774\" width=\"320\"/>\\u000a          </hintset>\\u000a          <hintset pointTag=\"hr03\">\\u000a            <hstem pos=\"-17\" width=\"217\"/>\\u000a            <hstem pos=\"1300\" width=\"217\"/>\\u000a            <vstem pos=\"82\" width=\"324\"/>\\u000a            <vstem pos=\"862\" width=\"325\"/>\\u000a          </hintset>\\u000a          <hintset pointTag=\"hr04\">\\u000a            <hstem pos=\"-17\" width=\"217\"/>\\u000a            <hstem pos=\"1300\" width=\"217\"/>\\u000a            <vstem pos=\"155\" width=\"320\"/>\\u000a            <vstem pos=\"774\" width=\"320\"/>\\u000a          </hintset>\\u000a        </hintSetList>\\u000a      </data>
p7
g4
tp8
Rp9
Ntp10
s."
EndChar
StartChar: nine
Encoding: 330 57 330
GlifName: nine
Width: 1300
VWidth: 0
Flags: W
LayerCount: 2
Fore
SplineSet
361 -17 m 257
 517 -4 517 -4 650 46.5 c 0
 783 97 783 97 883 178.5 c 0
 983 260 983 260 1053.5 367.5 c 0
 1124 475 1124 475 1159.5 603 c 0
 1195 731 1195 731 1195 873 c 256
 1195 952 1195 952 1180.5 1033 c 0
 1166 1114 1166 1114 1126.5 1203 c 0
 1087 1292 1087 1292 1027 1360 c 0
 967 1428 967 1428 867 1472.5 c 0
 767 1517 767 1517 641 1517 c 256
 395 1517 395 1517 247.5 1379 c 0
 100 1241 100 1241 100 1017 c 256
 100 877 100 877 169 768.5 c 0
 238 660 238 660 355.5 602 c 0
 473 544 473 544 619 544 c 256
 657 544 657 544 685 548 c 257
 863 700 l 257
 861 580 861 580 783 465 c 0
 705 350 705 350 578.5 276.5 c 0
 452 203 452 203 318 199 c 257
 361 -17 l 257
628 761 m 256
NamedP: "+BBQAyAAA"
 538 761 538 761 484 841.5 c 0
 430 922 430 922 430 1034 c 256
 430 1143 430 1143 493 1221.5 c 0
 556 1300 556 1300 648 1300 c 256
 710 1300 710 1300 760 1245.5 c 0
 810 1191 810 1191 836.5 1111.5 c 0
 863 1032 863 1032 867 945 c 257
 833 873 833 873 763.5 817 c 0
 694 761 694 761 628 761 c 256
NamedP: "+BBQAyAAA"
EndSplineSet
PickledDataWithLists: "(dp0
Vcom.adobe.type.autohint
p1
(c_codecs
encode
p2
(Vdata
p3
Vlatin1
p4
tp5
Rp6
g2
(V<data>\\u000a        <hintSetList>\\u000a          <hintset pointTag=\"hr01\">\\u000a            <hstem pos=\"4\" width=\"-21\"/>\\u000a            <hstem pos=\"544\" width=\"217\"/>\\u000a            <hstem pos=\"1300\" width=\"217\"/>\\u000a            <vstem pos=\"100\" width=\"330\"/>\\u000a            <vstem pos=\"867\" width=\"328\"/>\\u000a          </hintset>\\u000a        </hintSetList>\\u000a      </data>
p7
g4
tp8
Rp9
Ntp10
s."
EndChar
StartChar: colon
Encoding: 190 58 190
GlifName: colon
Width: 1300
VWidth: 0
Flags: W
LayerCount: 2
Fore
SplineSet
103 183 m 257,0,1
NamedP: "ah03"
 103 224 103 224 118.5 260 c 128,-1,2
 134 296 134 296 161 323 c 128,-1,3
 188 350 188 350 223.5 365.5 c 128,-1,4
 259 381 259 381 300 381 c 257,5,6
NamedP: "av03"
 341 381 341 381 377 365.5 c 128,-1,7
 413 350 413 350 440 323 c 128,-1,8
 467 296 467 296 482.5 260 c 128,-1,9
 498 224 498 224 498 183 c 257,10,11
NamedP: "ah04"
 498 142 498 142 482.5 105.5 c 128,-1,12
 467 69 467 69 440.5 42 c 128,-1,13
 414 15 414 15 378 -1 c 128,-1,14
 342 -17 342 -17 302 -17 c 257,15,16
NamedP: "ab01"
 261 -17 261 -17 224.5 -1 c 128,-1,17
 188 15 188 15 161 42 c 128,-1,18
 134 69 134 69 118.5 105.5 c 128,-1,19
 103 142 103 142 103 183 c 257,0,1
NamedP: "ah03"
103 700 m 257,20,21
NamedP: "ah01"
 103 741 103 741 118.5 777 c 128,-1,22
 134 813 134 813 161 840 c 128,-1,23
 188 867 188 867 223.5 882.5 c 128,-1,24
 259 898 259 898 300 898 c 257,25,26
NamedP: "av02"
 341 898 341 898 377 882.5 c 128,-1,27
 413 867 413 867 440 840 c 128,-1,28
 467 813 467 813 482.5 777 c 128,-1,29
 498 741 498 741 498 700 c 257,30,31
NamedP: "ah02"
 498 659 498 659 482.5 622.5 c 128,-1,32
 467 586 467 586 440.5 559 c 128,-1,33
 414 532 414 532 378 516 c 128,-1,34
 342 500 342 500 302 500 c 257,35,36
NamedP: "av01"
 261 500 261 500 224.5 516 c 128,-1,37
 188 532 188 532 161 559 c 128,-1,38
 134 586 134 586 118.5 622.5 c 128,-1,39
 103 659 103 659 103 700 c 257,20,21
NamedP: "ah01"
EndSplineSet
PickledDataWithLists: "(dp0
Vcom.adobe.type.autohint
p1
(c_codecs
encode
p2
(Vdata
p3
Vlatin1
p4
tp5
Rp6
g2
(V<data>\\u000a        <hintSetList>\\u000a          <hintset pointTag=\"ah03\">\\u000a            <hstem pos=\"-17\" width=\"398\"/>\\u000a            <hstem pos=\"500\" width=\"398\"/>\\u000a            <vstem pos=\"103\" width=\"395\"/>\\u000a          </hintset>\\u000a        </hintSetList>\\u000a      </data>
p7
g4
tp8
Rp9
Ntp10
sVcom.fontlab.ttprogram
p11
(g2
(Vdata
p12
g4
tp13
Rp14
g2
(V<data>\\u000a        <ttProgram>\\u000a          <ttc align=\"round\" code=\"alignh\" point=\"ah01\"/>\\u000a          <ttc align=\"round\" code=\"alignh\" point=\"ah02\"/>\\u000a          <ttc align=\"round\" code=\"alignh\" point=\"ah03\"/>\\u000a          <ttc align=\"round\" code=\"alignh\" point=\"ah04\"/>\\u000a          <ttc align=\"round\" code=\"alignv\" point=\"av01\"/>\\u000a          <ttc align=\"round\" code=\"alignv\" point=\"av02\"/>\\u000a          <ttc align=\"round\" code=\"alignv\" point=\"av03\"/>\\u000a          <ttc code=\"alignb\" point=\"ab01\" zone=\"b: 0\"/>\\u000a        </ttProgram>\\u000a      </data>
p15
g4
tp16
Rp17
Ntp18
s."
EndChar
StartChar: semicolon
Encoding: 438 59 438
GlifName: semicolon
Width: 1300
VWidth: 0
Flags: W
LayerCount: 2
Fore
SplineSet
122 156 m 257
NamedP: "ah03"
 122 191 122 191 136 222.5 c 128
 150 254 150 254 174.5 277.5 c 128
 199 301 199 301 231.5 315 c 128
 264 329 264 329 300 329 c 257
NamedP: "av03"
 334 329 334 329 366 316.5 c 128
 398 304 398 304 423 279.5 c 128
 448 255 448 255 463 219 c 128
 478 183 478 183 478 136 c 257
NamedP: "ah04"
 478 73 478 73 470 12.5 c 128
 462 -48 462 -48 437.5 -108.5 c 128
 413 -169 413 -169 367.5 -232.5 c 128
 322 -296 322 -296 247 -365 c 257
NamedP: "av04"
 185 -337 l 257
 199 -311 199 -311 211 -283.5 c 128
 223 -256 223 -256 234 -228 c 257
 252 -180 252 -180 267 -125.5 c 128
 282 -71 282 -71 282 -17 c 257
NamedP: "ab01"
 252 -16 252 -16 223 -4.5 c 128
 194 7 194 7 171.5 29 c 128
 149 51 149 51 135.5 82.5 c 128
 122 114 122 114 122 156 c 257
NamedP: "ah03"
103 700 m 257
NamedP: "ah01"
 103 741 103 741 118.5 777 c 128
 134 813 134 813 161 840 c 128
 188 867 188 867 223.5 882.5 c 128
 259 898 259 898 300 898 c 257
NamedP: "av01"
 341 898 341 898 377 882.5 c 128
 413 867 413 867 440 840 c 128
 467 813 467 813 482.5 777 c 128
 498 741 498 741 498 700 c 257
NamedP: "ah02"
 498 659 498 659 482.5 622.5 c 128
 467 586 467 586 440.5 559 c 128
 414 532 414 532 378 516 c 128
 342 500 342 500 302 500 c 257
NamedP: "av02"
 261 500 261 500 224.5 516 c 128
 188 532 188 532 161 559 c 128
 134 586 134 586 118.5 622.5 c 128
 103 659 103 659 103 700 c 257
NamedP: "ah01"
EndSplineSet
PickledDataWithLists: "(dp0
Vcom.adobe.type.autohint
p1
(c_codecs
encode
p2
(Vdata
p3
Vlatin1
p4
tp5
Rp6
g2
(V<data>\\u000a        <hintSetList/>\\u000a      </data>
p7
g4
tp8
Rp9
Ntp10
sVcom.fontlab.ttprogram
p11
(g2
(Vdata
p12
g4
tp13
Rp14
g2
(V<data>\\u000a        <ttProgram>\\u000a          <ttc align=\"round\" code=\"alignh\" point=\"ah01\"/>\\u000a          <ttc align=\"round\" code=\"alignh\" point=\"ah02\"/>\\u000a          <ttc align=\"round\" code=\"alignh\" point=\"ah03\"/>\\u000a          <ttc align=\"round\" code=\"alignh\" point=\"ah04\"/>\\u000a          <ttc align=\"round\" code=\"alignv\" point=\"av01\"/>\\u000a          <ttc align=\"round\" code=\"alignv\" point=\"av02\"/>\\u000a          <ttc align=\"round\" code=\"alignv\" point=\"av03\"/>\\u000a          <ttc align=\"round\" code=\"alignv\" point=\"av04\"/>\\u000a          <ttc code=\"alignb\" point=\"ab01\" zone=\"b: 0\"/>\\u000a        </ttProgram>\\u000a      </data>
p15
g4
tp16
Rp17
Ntp18
s."
EndChar
StartChar: less
Encoding: 308 60 308
GlifName: less
Width: 1300
VWidth: 0
Flags: W
LayerCount: 2
Fore
SplineSet
1137 1277 m 257
NamedP: "hr00"
 1137 1009 l 257
 470 654 l 257
 1137 302 l 257
 1137 34 l 257
 130 545 l 257
 130 770 l 257
 1137 1277 l 257
NamedP: "hr00"
EndSplineSet
PickledDataWithLists: "(dp0
Vcom.adobe.type.autohint
p1
(c_codecs
encode
p2
(Vdata
p3
Vlatin1
p4
tp5
Rp6
g2
(V<data>\\u000a        <hintSetList>\\u000a          <hintset pointTag=\"hr00\">\\u000a            <hstem pos=\"55\" width=\"-21\"/>\\u000a            <hstem pos=\"1277\" width=\"-20\"/>\\u000a          </hintset>\\u000a        </hintSetList>\\u000a      </data>
p7
g4
tp8
Rp9
Ntp10
s."
EndChar
StartChar: equal
Encoding: 235 61 235
GlifName: equal
Width: 1300
VWidth: 0
Flags: W
LayerCount: 2
Fore
SplineSet
200 800 m 257
NamedP: "hr00"
 1000 800 l 257
NamedP: "sv01"
 1000 581 l 257
 200 581 l 257
NamedP: "av01"
 200 800 l 257
NamedP: "hr00"
200 400 m 257
 1000 400 l 257
NamedP: "sv02"
 1000 181 l 257
 200 181 l 257
NamedP: "av02"
 200 400 l 257
EndSplineSet
PickledDataWithLists: "(dp0
Vcom.adobe.type.autohint
p1
(c_codecs
encode
p2
(Vdata
p3
Vlatin1
p4
tp5
Rp6
g2
(V<data>\\u000a        <hintSetList>\\u000a          <hintset pointTag=\"hr00\">\\u000a            <hstem pos=\"181\" width=\"219\"/>\\u000a            <hstem pos=\"581\" width=\"219\"/>\\u000a          </hintset>\\u000a        </hintSetList>\\u000a      </data>
p7
g4
tp8
Rp9
Ntp10
sVcom.fontlab.ttprogram
p11
(g2
(Vdata
p12
g4
tp13
Rp14
g2
(V<data>\\u000a        <ttProgram>\\u000a          <ttc align=\"round\" code=\"alignv\" point=\"av01\"/>\\u000a          <ttc align=\"round\" code=\"alignv\" point=\"av02\"/>\\u000a          <ttc code=\"singlev\" point1=\"av01\" point2=\"sv01\" stem=\"eq Y: 171\"/>\\u000a          <ttc code=\"singlev\" point1=\"av02\" point2=\"sv02\" stem=\"eq Y: 171\"/>\\u000a        </ttProgram>\\u000a      </data>
p15
g4
tp16
Rp17
Ntp18
s."
EndChar
StartChar: greater
Encoding: 269 62 269
GlifName: greater
Width: 1300
VWidth: 0
Flags: W
LayerCount: 2
Fore
SplineSet
1137 770 m 257
NamedP: "hr00"
 1137 545 l 257
 130 34 l 257
 130 302 l 257
 797 654 l 257
 130 1009 l 257
 130 1278 l 257
 1137 770 l 257
NamedP: "hr00"
EndSplineSet
PickledDataWithLists: "(dp0
Vcom.adobe.type.autohint
p1
(c_codecs
encode
p2
(Vdata
p3
Vlatin1
p4
tp5
Rp6
g2
(V<data>\\u000a        <hintSetList>\\u000a          <hintset pointTag=\"hr00\">\\u000a            <hstem pos=\"55\" width=\"-21\"/>\\u000a            <hstem pos=\"1278\" width=\"-20\"/>\\u000a          </hintset>\\u000a        </hintSetList>\\u000a      </data>
p7
g4
tp8
Rp9
Ntp10
s."
EndChar
StartChar: question
Encoding: 393 63 393
GlifName: question
Width: 1300
VWidth: 0
Flags: W
LayerCount: 2
Fore
SplineSet
1111 1124 m 257,0,1
NamedP: "hr00"
 1111 1064 1111 1064 1091 1014.5 c 128,-1,2
 1071 965 1071 965 1038.5 922.5 c 128,-1,3
 1006 880 1006 880 964.5 841.5 c 128,-1,4
 923 803 923 803 880 765 c 257,5,6
 851 740 851 740 821.5 708.5 c 128,-1,7
 792 677 792 677 768.5 637 c 128,-1,8
 745 597 745 597 730.5 547 c 128,-1,9
 716 497 716 497 716 434 c 257,10,-1
NamedP: "av03"
 405 399 l 257,11,12
NamedP: "av02"
 406 486 406 486 418.5 562 c 128,-1,13
 431 638 431 638 460 704.5 c 128,-1,14
 489 771 489 771 536 830 c 128,-1,15
 583 889 583 889 654 942 c 257,16,17
 676 961 676 961 697 981 c 128,-1,18
 718 1001 718 1001 734 1023.5 c 128,-1,19
 750 1046 750 1046 760 1072.5 c 128,-1,20
 770 1099 770 1099 770 1132 c 257,21,22
 770 1172 770 1172 755.5 1200.5 c 128,-1,23
 741 1229 741 1229 716.5 1247.5 c 128,-1,24
 692 1266 692 1266 660 1274.5 c 128,-1,25
 628 1283 628 1283 594 1283 c 257,26,27
 568 1283 568 1283 530 1274.5 c 128,-1,28
 492 1266 492 1266 450 1246.5 c 128,-1,29
 408 1227 408 1227 365.5 1195 c 128,-1,30
 323 1163 323 1163 289 1117 c 257,31,-1
 107 1268 l 257,32,33
 164 1344 164 1344 228.5 1392.5 c 128,-1,34
 293 1441 293 1441 360 1468.5 c 128,-1,35
 427 1496 427 1496 493 1506.5 c 128,-1,36
 559 1517 559 1517 618 1517 c 257,37,38
 713 1517 713 1517 802 1493.5 c 128,-1,39
 891 1470 891 1470 959.5 1421.5 c 128,-1,40
 1028 1373 1028 1373 1069.5 1299 c 128,-1,41
 1111 1225 1111 1225 1111 1124 c 257,0,1
NamedP: "hr00"
409 149 m 257,42,43
NamedP: "ah01"
 409 183 409 183 422 212.5 c 128,-1,44
 435 242 435 242 457 264.5 c 128,-1,45
 479 287 479 287 508.5 300 c 128,-1,46
 538 313 538 313 572 313 c 257,47,48
NamedP: "av01"
 606 313 606 313 635.5 300 c 128,-1,49
 665 287 665 287 687 264.5 c 128,-1,50
 709 242 709 242 722 212.5 c 128,-1,51
 735 183 735 183 735 149 c 257,52,53
NamedP: "ah02"
 735 116 735 116 722.5 85.5 c 128,-1,54
 710 55 710 55 688 32.5 c 128,-1,55
 666 10 666 10 636.5 -3.5 c 128,-1,56
 607 -17 607 -17 573 -17 c 257,57,58
NamedP: "ab01"
 539 -17 539 -17 509 -3.5 c 128,-1,59
 479 10 479 10 457 32.5 c 128,-1,60
 435 55 435 55 422 85.5 c 128,-1,61
 409 116 409 116 409 149 c 257,42,43
NamedP: "ah01"
EndSplineSet
PickledDataWithLists: "(dp0
Vcom.adobe.type.autohint
p1
(c_codecs
encode
p2
(Vdata
p3
Vlatin1
p4
tp5
Rp6
g2
(V<data>\\u000a        <hintSetList>\\u000a          <hintset pointTag=\"hr00\">\\u000a            <hstem pos=\"-17\" width=\"330\"/>\\u000a            <hstem pos=\"1283\" width=\"234\"/>\\u000a            <vstem pos=\"405\" width=\"311\"/>\\u000a            <vstem pos=\"770\" width=\"341\"/>\\u000a          </hintset>\\u000a        </hintSetList>\\u000a      </data>
p7
g4
tp8
Rp9
Ntp10
sVcom.fontlab.ttprogram
p11
(g2
(Vdata
p12
g4
tp13
Rp14
g2
(V<data>\\u000a        <ttProgram>\\u000a          <ttc align=\"round\" code=\"alignh\" point=\"ah01\"/>\\u000a          <ttc align=\"round\" code=\"alignh\" point=\"ah02\"/>\\u000a          <ttc align=\"round\" code=\"alignv\" point=\"av01\"/>\\u000a          <ttc align=\"round\" code=\"alignv\" point=\"av02\"/>\\u000a          <ttc align=\"round\" code=\"alignv\" point=\"av03\"/>\\u000a          <ttc code=\"alignb\" point=\"ab01\" zone=\"b: 0\"/>\\u000a        </ttProgram>\\u000a      </data>
p15
g4
tp16
Rp17
Ntp18
s."
EndChar
StartChar: at
Encoding: 128 64 128
GlifName: at
Width: 1300
VWidth: 0
Flags: W
LayerCount: 2
Fore
SplineSet
690 500 m 257,0,-1
 660 500 l 257,1,2
 643 500 643 500 627 492 c 128,-1,3
 611 484 611 484 597.5 465 c 128,-1,4
 584 446 584 446 576 414 c 128,-1,5
 568 382 568 382 568 333 c 257,6,7
 568 293 568 293 573.5 267.5 c 128,-1,8
 579 242 579 242 588 227 c 128,-1,9
 597 212 597 212 609 206 c 128,-1,10
 621 200 621 200 635 200 c 257,11,12
 655 200 655 200 666.5 212.5 c 128,-1,13
 678 225 678 225 683 241 c 257,14,15
 688 257 688 257 690 283 c 257,16,-1
NamedP: "mh01"
 690 500 l 257,0,-1
275 500 m 257,17,18
 275 421 275 421 282 340.5 c 128,-1,19
 289 260 289 260 307 185 c 128,-1,20
 325 110 325 110 354.5 45 c 128,-1,21
 384 -20 384 -20 429 -68 c 128,-1,22
 474 -116 474 -116 536 -144 c 128,-1,23
 598 -172 598 -172 681 -172 c 257,24,25
 725 -172 725 -172 762.5 -166 c 128,-1,26
 800 -160 800 -160 828.5 -151.5 c 128,-1,27
 857 -143 857 -143 875.5 -134.5 c 128,-1,28
 894 -126 894 -126 901 -120 c 257,29,-1
 901 -346 l 257,30,31
 882 -357 882 -357 825.5 -369.5 c 128,-1,32
 769 -382 769 -382 681 -382 c 257,33,34
 555 -382 555 -382 458 -348 c 128,-1,35
 361 -314 361 -314 290 -253 c 128,-1,36
 219 -192 219 -192 171 -107 c 128,-1,37
 123 -22 123 -22 94 80.5 c 128,-1,38
 65 183 65 183 52.5 300 c 128,-1,39
 40 417 40 417 40 541 c 257,40,41
 40 668 40 668 61 786 c 128,-1,42
 82 904 82 904 122 1006 c 128,-1,43
 162 1108 162 1108 218.5 1191.5 c 128,-1,44
 275 1275 275 1275 346.5 1335 c 128,-1,45
 418 1395 418 1395 502.5 1427.5 c 128,-1,46
 587 1460 587 1460 682 1460 c 257,47,48
 783 1460 783 1460 865 1428 c 128,-1,49
 947 1396 947 1396 1011 1338 c 128,-1,50
 1075 1280 1075 1280 1121.5 1199 c 128,-1,51
 1168 1118 1168 1118 1198.5 1019.5 c 128,-1,52
 1229 921 1229 921 1243.5 808.5 c 128,-1,53
 1258 696 1258 696 1258 576 c 257,54,55
 1258 497 1258 497 1253.5 421 c 128,-1,56
 1249 345 1249 345 1236.5 277 c 128,-1,57
 1224 209 1224 209 1202 152.5 c 128,-1,58
 1180 96 1180 96 1145.5 55 c 128,-1,59
 1111 14 1111 14 1062.5 -9 c 128,-1,60
 1014 -32 1014 -32 948 -32 c 257,61,62
 892 -32 892 -32 851 -15 c 128,-1,63
 810 2 810 2 783 24.5 c 128,-1,64
 756 47 756 47 743 69 c 128,-1,65
 730 91 730 91 730 100 c 257,66,-1
 696 1 l 257,67,-1
 672 -8 l 257,68,69
 660 -12 660 -12 642 -14.5 c 128,-1,70
 624 -17 624 -17 601 -17 c 257,71,72
 541 -17 541 -17 500.5 14.5 c 128,-1,73
 460 46 460 46 435.5 95 c 128,-1,74
 411 144 411 144 400 204 c 128,-1,75
 389 264 389 264 387 321.5 c 128,-1,76
 385 379 385 379 389.5 427 c 128,-1,77
 394 475 394 475 401 500 c 257,78,79
 413 537 413 537 432.5 573 c 128,-1,80
 452 609 452 609 483.5 637 c 128,-1,81
 515 665 515 665 560.5 682.5 c 128,-1,82
 606 700 606 700 670 700 c 257,83,-1
 690 700 l 257,84,-1
 690 800 l 257,85,86
 690 825 690 825 676 837 c 128,-1,87
 662 849 662 849 640 852 c 128,-1,88
 618 855 618 855 590.5 851 c 128,-1,89
 563 847 563 847 536.5 840 c 128,-1,90
 510 833 510 833 487 824.5 c 128,-1,91
 464 816 464 816 451 810 c 257,92,-1
 451 986 l 257,93,94
 472 1000 472 1000 509 1013 c 257,95,96
 538 1023 538 1023 583 1031.5 c 128,-1,97
 628 1040 628 1040 691 1040 c 257,98,99
 733 1040 733 1040 771 1031.5 c 128,-1,100
 809 1023 809 1023 838 1000.5 c 128,-1,101
 867 978 867 978 884 940 c 128,-1,102
 901 902 901 902 901 844 c 257,103,-1
NamedP: "mh02"
 901 283 l 257,104,105
 902 259 902 259 907 241 c 257,106,107
 912 225 912 225 922 212.5 c 128,-1,108
 932 200 932 200 951 200 c 257,109,110
 976 200 976 200 991 232 c 128,-1,111
 1006 264 1006 264 1014 310.5 c 128,-1,112
 1022 357 1022 357 1024.5 408.5 c 128,-1,113
 1027 460 1027 460 1027 500 c 257,114,-1
 1027 534 l 257,115,116
 1027 713 1027 713 1001 845.5 c 128,-1,117
 975 978 975 978 929 1066 c 128,-1,118
 883 1154 883 1154 819.5 1197 c 128,-1,119
 756 1240 756 1240 681 1240 c 257,120,121
 606 1240 606 1240 533 1197 c 128,-1,122
 460 1154 460 1154 403 1066 c 128,-1,123
 346 978 346 978 310.5 845.5 c 128,-1,124
 275 713 275 713 275 534 c 257,125,-1
 275 500 l 257,17,18
EndSplineSet
PickledDataWithLists: "(dp0
Vcom.adobe.type.autohint
p1
(c_codecs
encode
p2
(Vdata
p3
Vlatin1
p4
tp5
Rp6
g2
(V<data>\\u000a        <hintSetList/>\\u000a      </data>
p7
g4
tp8
Rp9
Ntp10
sVcom.fontlab.ttprogram
p11
(g2
(Vdata
p12
g4
tp13
Rp14
g2
(V<data>\\u000a        <ttProgram>\\u000a          <ttc code=\"mdeltah\" delta=\"1\" point=\"mh01\" ppm1=\"13\" ppm2=\"13\"/>\\u000a          <ttc code=\"mdeltah\" delta=\"-1\" point=\"mh02\" ppm1=\"12\" ppm2=\"12\"/>\\u000a        </ttProgram>\\u000a      </data>
p15
g4
tp16
Rp17
Ntp18
s."
EndChar
StartChar: C
Encoding: 12 67 12
GlifName: C_
Width: 1300
VWidth: 0
Flags: W
LayerCount: 2
Fore
SplineSet
1220 133 m 257,0,1
NamedP: "ah02"
 1118 52 1118 52 1006.5 17.5 c 128,-1,2
 895 -17 895 -17 764 -17 c 257,3,4
NamedP: "ab01"
 609 -17 609 -17 486 45.5 c 128,-1,5
 363 108 363 108 277 215 c 128,-1,6
NamedP: "mh01"
 191 322 191 322 145.5 465 c 128,-1,7
 100 608 100 608 100 769 c 257,8,9
NamedP: "dh01"
 100 870 100 870 117 964.5 c 128,-1,10
NamedP: "mh02"
 134 1059 134 1059 169 1142.5 c 128,-1,11
 204 1226 204 1226 258 1294.5 c 128,-1,12
 312 1363 312 1363 386.5 1412.5 c 128,-1,13
NamedP: "mv01"
 461 1462 461 1462 556 1489.5 c 128,-1,14
 651 1517 651 1517 768 1517 c 257,15,16
NamedP: "at01"
 898 1517 898 1517 1015 1473 c 128,-1,17
 1132 1429 1132 1429 1220 1344 c 257,18,-1
NamedP: "ah01"
 1072 1160 l 257,19,20
NamedP: "mv02"
 1039 1182 1039 1182 1002.5 1202 c 128,-1,21
 966 1222 966 1222 929 1237 c 128,-1,22
 892 1252 892 1252 855 1261 c 128,-1,23
 818 1270 818 1270 784 1270 c 257,24,25
NamedP: "sv01"
 689 1270 689 1270 625 1231 c 128,-1,26
NamedP: "mv03"
 561 1192 561 1192 522 1124.5 c 128,-1,27
 483 1057 483 1057 466.5 966 c 128,-1,28
 450 875 450 875 450 772 c 257,29,30
NamedP: "dh02"
 450 711 450 711 458.5 647.5 c 128,-1,31
 467 584 467 584 484.5 524 c 128,-1,32
 502 464 502 464 529.5 411 c 128,-1,33
NamedP: "mh03"
 557 358 557 358 594.5 318.5 c 128,-1,34
 632 279 632 279 680 256 c 128,-1,35
 728 233 728 233 788 233 c 257,36,37
NamedP: "sv02"
 822 233 822 233 855 238.5 c 128,-1,38
 888 244 888 244 924.5 256.5 c 128,-1,39
 961 269 961 269 1004 289.5 c 128,-1,40
 1047 310 1047 310 1101 340 c 257,41,-1
 1220 133 l 257,0,1
NamedP: "ah02"
EndSplineSet
PickledDataWithLists: "(dp0
Vcom.adobe.type.autohint
p1
(c_codecs
encode
p2
(Vdata
p3
Vlatin1
p4
tp5
Rp6
g2
(V<data>\\u000a        <hintSetList>\\u000a          <hintset pointTag=\"ah02\">\\u000a            <hstem pos=\"-17\" width=\"250\"/>\\u000a            <hstem pos=\"1270\" width=\"247\"/>\\u000a            <vstem pos=\"100\" width=\"350\"/>\\u000a          </hintset>\\u000a        </hintSetList>\\u000a      </data>
p7
g4
tp8
Rp9
Ntp10
sVcom.fontlab.ttprogram
p11
(g2
(Vdata
p12
g4
tp13
Rp14
g2
(V<data>\\u000a        <ttProgram>\\u000a          <ttc align=\"round\" code=\"alignh\" point=\"ah01\"/>\\u000a          <ttc align=\"round\" code=\"alignh\" point=\"ah02\"/>\\u000a          <ttc code=\"doubleh\" point1=\"dh01\" point2=\"dh02\" stem=\"eq X: 208\"/>\\u000a          <ttc code=\"mdeltah\" delta=\"-2\" point=\"mh01\" ppm1=\"13\" ppm2=\"13\"/>\\u000a          <ttc code=\"mdeltah\" delta=\"2\" point=\"dh01\" ppm1=\"7\" ppm2=\"7\"/>\\u000a          <ttc code=\"mdeltah\" delta=\"6\" point=\"mh02\" ppm1=\"7\" ppm2=\"7\"/>\\u000a          <ttc code=\"mdeltah\" delta=\"2\" point=\"ah01\" ppm1=\"6\" ppm2=\"6\"/>\\u000a          <ttc code=\"mdeltah\" delta=\"3\" point=\"dh02\" ppm1=\"17\" ppm2=\"17\"/>\\u000a          <ttc code=\"mdeltah\" delta=\"3\" point=\"mh03\" ppm1=\"12\" ppm2=\"12\"/>\\u000a          <ttc code=\"alignt\" point=\"at01\" zone=\"t: 1\"/>\\u000a          <ttc code=\"alignb\" point=\"ab01\" zone=\"b: 0\"/>\\u000a          <ttc code=\"mdeltav\" delta=\"2\" point=\"mv01\" ppm1=\"6\" ppm2=\"6\"/>\\u000a          <ttc code=\"mdeltav\" delta=\"3\" point=\"mv02\" ppm1=\"30\" ppm2=\"30\"/>\\u000a          <ttc code=\"mdeltav\" delta=\"2\" point=\"mv02\" ppm1=\"28\" ppm2=\"28\"/>\\u000a          <ttc code=\"singlev\" point1=\"at01\" point2=\"sv01\" stem=\"eq Y: 171\"/>\\u000a          <ttc code=\"mdeltav\" delta=\"-5\" point=\"sv01\" ppm1=\"12\" ppm2=\"12\"/>\\u000a          <ttc code=\"mdeltav\" delta=\"4\" point=\"mv03\" ppm1=\"6\" ppm2=\"6\"/>\\u000a          <ttc code=\"mdeltav\" delta=\"3\" point=\"mh03\" ppm1=\"12\" ppm2=\"12\"/>\\u000a          <ttc code=\"singlev\" point1=\"ab01\" point2=\"sv02\" stem=\"eq Y: 171\"/>\\u000a          <ttc code=\"mdeltav\" delta=\"5\" point=\"sv02\" ppm1=\"12\" ppm2=\"12\"/>\\u000a        </ttProgram>\\u000a      </data>
p15
g4
tp16
Rp17
Ntp18
sVcom.typemytype.robofont.guides
p19
(lp20
(dp21
Vangle
p22
I0
sVisGlobal
p23
I00
sVmagnetic
p24
I5
sVx
p25
I0
sVy
p26
I233
sas."
EndChar
StartChar: D
Encoding: 15 68 15
GlifName: D_
Width: 1300
VWidth: 0
Flags: W
LayerCount: 2
Fore
SplineSet
66 1500 m 257,0,1
NamedP: "at02"
 115 1505 115 1505 170 1508 c 128,-1,2
 225 1511 225 1511 278.5 1513 c 128,-1,3
 332 1515 332 1515 379.5 1516 c 128,-1,4
 427 1517 427 1517 460 1517 c 257,5,6
NamedP: "at01"
 628 1517 628 1517 770.5 1476.5 c 128,-1,7
 913 1436 913 1436 1017 1350 c 128,-1,8
 1121 1264 1121 1264 1180 1129.5 c 128,-1,9
 1239 995 1239 995 1239 807 c 257,10,11
NamedP: "sh01"
 1239 662 1239 662 1210 545.5 c 128,-1,12
 1181 429 1181 429 1128.5 339.5 c 128,-1,13
 1076 250 1076 250 1003 185.5 c 128,-1,14
 930 121 930 121 842.5 80 c 128,-1,15
 755 39 755 39 656 19.5 c 128,-1,16
 557 0 557 0 452 0 c 257,17,-1
NamedP: "ab01"
 100 0 l 257,18,-1
NamedP: "sh02"
 100 1262 l 257,19,-1
 66 1500 l 257,0,1
NamedP: "at02"
451 1121 m 257,20,-1
 451 250 l 257,21,22
NamedP: "sh03"
 556 250 556 250 629 275.5 c 128,-1,23
 702 301 702 301 751 343.5 c 128,-1,24
 800 386 800 386 827 441 c 128,-1,25
 854 496 854 496 868 554.5 c 128,-1,26
 882 613 882 613 885 671 c 128,-1,27
 888 729 888 729 888 778 c 257,28,29
NamedP: "ah01"
 888 890 888 890 870.5 983 c 128,-1,30
 853 1076 853 1076 805 1143 c 128,-1,31
 757 1210 757 1210 672 1246.5 c 128,-1,32
 587 1283 587 1283 452 1283 c 257,33,34
NamedP: "sh04"
 449 1283 449 1283 445.5 1282.5 c 128,-1,35
 442 1282 442 1282 438 1282 c 257,36,-1
NamedP: "sv01"
 430 1282 l 257,37,-1
NamedP: "sv02"
 451 1121 l 257,20,-1
EndSplineSet
PickledDataWithLists: "(dp0
Vcom.adobe.type.autohint
p1
(c_codecs
encode
p2
(Vdata
p3
Vlatin1
p4
tp5
Rp6
g2
(V<data>\\u000a        <hintSetList>\\u000a          <hintset pointTag=\"at02\">\\u000a            <hstem pos=\"0\" width=\"250\"/>\\u000a            <hstem pos=\"1283\" width=\"234\"/>\\u000a            <vstem pos=\"100\" width=\"351\"/>\\u000a            <vstem pos=\"888\" width=\"351\"/>\\u000a          </hintset>\\u000a        </hintSetList>\\u000a      </data>
p7
g4
tp8
Rp9
Ntp10
sVcom.fontlab.ttprogram
p11
(g2
(Vdata
p12
g4
tp13
Rp14
g2
(V<data>\\u000a        <ttProgram>\\u000a          <ttc align=\"round\" code=\"alignh\" point=\"lsb\"/>\\u000a          <ttc align=\"round\" code=\"alignh\" point=\"ah01\"/>\\u000a          <ttc code=\"singleh\" point1=\"ah01\" point2=\"sh01\" stem=\"eq X: 208\"/>\\u000a          <ttc code=\"singleh\" point1=\"lsb\" point2=\"sh02\" round=\"true\"/>\\u000a          <ttc code=\"singleh\" point1=\"sh02\" point2=\"sh03\" stem=\"eq X: 208\"/>\\u000a          <ttc code=\"singleh\" point1=\"sh03\" point2=\"sh04\"/>\\u000a          <ttc code=\"singleh\" point1=\"sh01\" point2=\"rsb\" round=\"true\"/>\\u000a          <ttc code=\"alignt\" point=\"at01\" zone=\"t: 1\"/>\\u000a          <ttc code=\"alignt\" point=\"at02\" zone=\"t: 1\"/>\\u000a          <ttc code=\"alignb\" point=\"ab01\" zone=\"b: 0\"/>\\u000a          <ttc code=\"singlev\" point1=\"ab01\" point2=\"sh03\" stem=\"eq Y: 162\"/>\\u000a          <ttc code=\"singlev\" point1=\"at01\" point2=\"sh04\" stem=\"eq Y: 153\"/>\\u000a          <ttc code=\"singlev\" point1=\"sh04\" point2=\"sv01\"/>\\u000a          <ttc code=\"singlev\" point1=\"sv01\" point2=\"sv02\"/>\\u000a        </ttProgram>\\u000a      </data>
p15
g4
tp16
Rp17
Ntp18
sVcom.typemytype.robofont.guides
p19
(lp20
(dp21
Vangle
p22
I0
sVisGlobal
p23
I00
sVmagnetic
p24
I5
sVx
p25
I0
sVy
p26
I1450
sa(dp27
g22
I0
sg23
I00
sg24
I5
sg25
I0
sg26
I210
sa(dp28
g22
I90
sg23
I00
sg24
I5
sg25
I278
sg26
I0
sas."
EndChar
StartChar: F
Encoding: 26 70 26
GlifName: F_
Width: 1300
VWidth: 0
Flags: W
LayerCount: 2
Fore
SplineSet
551 0 m 257
NamedP: "dh02"
 200 0 l 257
NamedP: "dh01"
 200 1263 l 257
 165 1500 l 257
NamedP: "at01"
 1167 1500 l 257
NamedP: "dh04"
 1140 1272 l 257
NamedP: "sv01"
 536 1272 l 257
 551 1134 l 257
NamedP: "sh01"
 551 916 l 257
 1064 916 l 257
NamedP: "dh03"
 1064 703 l 257
NamedP: "dv01"
 551 703 l 257
 551 0 l 257
NamedP: "dh02"
EndSplineSet
PickledDataWithLists: "(dp0
Vcom.adobe.type.autohint
p1
(c_codecs
encode
p2
(Vdata
p3
Vlatin1
p4
tp5
Rp6
g2
(V<data>\\u000a        <hintSetList>\\u000a          <hintset pointTag=\"dh02\">\\u000a            <hstem pos=\"21\" width=\"-21\"/>\\u000a            <hstem pos=\"703\" width=\"213\"/>\\u000a            <hstem pos=\"1272\" width=\"228\"/>\\u000a            <vstem pos=\"200\" width=\"351\"/>\\u000a          </hintset>\\u000a        </hintSetList>\\u000a      </data>
p7
g4
tp8
Rp9
Ntp10
sVcom.fontlab.ttprogram
p11
(g2
(Vdata
p12
g4
tp13
Rp14
g2
(V<data>\\u000a        <ttProgram>\\u000a          <ttc code=\"doubleh\" point1=\"dh01\" point2=\"dh02\" stem=\"eq X: 208\"/>\\u000a          <ttc code=\"doubleh\" point1=\"dh03\" point2=\"dh04\" stem=\"eq X: ecart du B\"/>\\u000a          <ttc code=\"singleh\" point1=\"dh02\" point2=\"sh01\"/>\\u000a          <ttc code=\"alignt\" point=\"at01\" zone=\"t: 1\"/>\\u000a          <ttc code=\"alignb\" point=\"dh02\" zone=\"b: 0\"/>\\u000a          <ttc code=\"doublev\" point1=\"dh03\" point2=\"dv01\" stem=\"eq Y: 144\"/>\\u000a          <ttc code=\"singlev\" point1=\"at01\" point2=\"sv01\" stem=\"eq Y: 162\"/>\\u000a        </ttProgram>\\u000a      </data>
p15
g4
tp16
Rp17
Ntp18
s."
EndChar
StartChar: H
Encoding: 29 72 29
GlifName: H_
Width: 1300
VWidth: 0
Flags: W
LayerCount: 2
Fore
SplineSet
872 0 m 257,0,-1
NamedP: "ah01"
 872 688 l 257,1,-1
NamedP: "dv02"
 426 688 l 257,2,-1
NamedP: "dv04"
 426 0 l 257,3,-1
NamedP: "sh02"
 79 0 l 257,4,-1
NamedP: "sh01"
 79 1263 l 257,5,-1
 48 1500 l 257,6,-1
 426 1520 l 257,7,-1
NamedP: "sh03"
 426 916 l 257,8,-1
NamedP: "dv03"
 872 916 l 257,9,-1
NamedP: "dv01"
 872 1500 l 257,10,-1
NamedP: "sh04"
 1218 1520 l 257,11,-1
NamedP: "at01"
 1218 0 l 257,12,-1
NamedP: "sh05"
 872 0 l 257,0,-1
NamedP: "ah01"
EndSplineSet
PickledDataWithLists: "(dp0
Vcom.adobe.type.autohint
p1
(c_codecs
encode
p2
(Vdata
p3
Vlatin1
p4
tp5
Rp6
g2
(V<data>\\u000a        <hintSetList>\\u000a          <hintset pointTag=\"ah01\">\\u000a            <hstem pos=\"21\" width=\"-21\"/>\\u000a            <hstem pos=\"688\" width=\"228\"/>\\u000a            <hstem pos=\"1520\" width=\"-20\"/>\\u000a            <vstem pos=\"79\" width=\"347\"/>\\u000a            <vstem pos=\"872\" width=\"346\"/>\\u000a          </hintset>\\u000a        </hintSetList>\\u000a      </data>
p7
g4
tp8
Rp9
Ntp10
sVcom.fontlab.ttprogram
p11
(g2
(Vdata
p12
g4
tp13
Rp14
g2
(V<data>\\u000a        <ttProgram>\\u000a          <ttc align=\"round\" code=\"alignh\" point=\"lsb\"/>\\u000a          <ttc align=\"round\" code=\"alignh\" point=\"ah01\"/>\\u000a          <ttc code=\"singleh\" point1=\"lsb\" point2=\"sh01\" round=\"true\"/>\\u000a          <ttc code=\"singleh\" point1=\"sh01\" point2=\"sh02\" stem=\"eq X: 208\"/>\\u000a          <ttc code=\"singleh\" point1=\"sh02\" point2=\"sh03\"/>\\u000a          <ttc code=\"singleh\" point1=\"ah01\" point2=\"sh04\"/>\\u000a          <ttc code=\"singleh\" point1=\"ah01\" point2=\"sh05\" stem=\"eq X: 208\"/>\\u000a          <ttc code=\"singleh\" point1=\"sh05\" point2=\"rsb\" round=\"true\"/>\\u000a          <ttc code=\"alignt\" point=\"sh03\" zone=\"t: 1\"/>\\u000a          <ttc code=\"alignt\" point=\"at01\" zone=\"t: 1\"/>\\u000a          <ttc code=\"alignb\" point=\"sh02\" zone=\"b: 0\"/>\\u000a          <ttc code=\"alignb\" point=\"ah01\" zone=\"b: 0\"/>\\u000a          <ttc code=\"doublev\" point1=\"dv01\" point2=\"dv02\" stem=\"eq Y: 171\"/>\\u000a          <ttc code=\"doublev\" point1=\"dv03\" point2=\"dv04\" stem=\"eq Y: 171\"/>\\u000a        </ttProgram>\\u000a      </data>
p15
g4
tp16
Rp17
Ntp18
s."
EndChar
StartChar: J
Encoding: 37 74 37
GlifName: J_
Width: 1300
VWidth: 0
Flags: W
LayerCount: 2
Fore
SplineSet
338 1500 m 257
NamedP: "hr00"
 1110 1500 l 257
NamedP: "ah01"
 1110 446 l 257
NamedP: "dh02"
 1110 261 1110 261 994 121 c 257
 967 88 967 88 927.5 62.5 c 128
 888 37 888 37 840 19.5 c 128
 792 2 792 2 736.5 -7.5 c 128
 681 -17 681 -17 623 -17 c 257
NamedP: "ab01"
 526 -17 526 -17 452.5 0.5 c 128
 379 18 379 18 323 48 c 128
 267 78 267 78 224.5 117 c 128
 182 156 182 156 146 200 c 257
NamedP: "dv01"
 300 400 l 257
NamedP: "dv02"
 315 382 315 382 339 355.5 c 128
 363 329 363 329 398 304.5 c 128
 433 280 433 280 481 262 c 128
 529 244 529 244 592 244 c 257
NamedP: "sv01"
 622 244 622 244 652 253.5 c 128
 682 263 682 263 705.5 286 c 128
 729 309 729 309 744 347.5 c 128
 759 386 759 386 759 444 c 257
NamedP: "dh01"
 759 1132 l 257
 779 1266 l 257
 358 1266 l 257
NamedP: "sh01"
 338 1500 l 257
NamedP: "hr00"
EndSplineSet
PickledDataWithLists: "(dp0
Vcom.adobe.type.autohint
p1
(c_codecs
encode
p2
(Vdata
p3
Vlatin1
p4
tp5
Rp6
g2
(V<data>\\u000a        <hintSetList>\\u000a          <hintset pointTag=\"hr00\">\\u000a            <hstem pos=\"-17\" width=\"261\"/>\\u000a            <hstem pos=\"1266\" width=\"234\"/>\\u000a            <vstem pos=\"759\" width=\"351\"/>\\u000a          </hintset>\\u000a        </hintSetList>\\u000a      </data>
p7
g4
tp8
Rp9
Ntp10
sVcom.fontlab.ttprogram
p11
(g2
(Vdata
p12
g4
tp13
Rp14
g2
(V<data>\\u000a        <ttProgram>\\u000a          <ttc align=\"round\" code=\"alignh\" point=\"ah01\"/>\\u000a          <ttc code=\"doubleh\" point1=\"dh01\" point2=\"dh02\" stem=\"eq X: 208\"/>\\u000a          <ttc code=\"singleh\" point1=\"ah01\" point2=\"sh01\" round=\"true\"/>\\u000a          <ttc code=\"singleh\" point1=\"dh02\" point2=\"rsb\" round=\"true\"/>\\u000a          <ttc code=\"alignt\" point=\"ah01\" zone=\"t: 1\"/>\\u000a          <ttc code=\"alignb\" point=\"ab01\" zone=\"b: 0\"/>\\u000a          <ttc code=\"doublev\" point1=\"dv01\" point2=\"dv02\" stem=\"eq Y: 171\"/>\\u000a          <ttc code=\"singlev\" point1=\"ab01\" point2=\"sv01\" stem=\"eq Y: 171\"/>\\u000a          <ttc code=\"singlev\" point1=\"ah01\" point2=\"sh01\" stem=\"eq Y: 171\"/>\\u000a        </ttProgram>\\u000a      </data>
p15
g4
tp16
Rp17
Ntp18
s."
EndChar
StartChar: L
Encoding: 40 76 40
GlifName: L_
Width: 1300
VWidth: 0
Flags: W
LayerCount: 2
Fore
SplineSet
463 228 m 257
NamedP: "sv01"
 1153 228 l 257
NamedP: "ah01"
 1126 0 l 257
NamedP: "ab01"
 100 0 l 257
 123 232 l 257
NamedP: "dh01"
 123 1263 l 257
 89 1500 l 257
 471 1520 l 257
NamedP: "at01"
 471 360 l 257
NamedP: "dh02"
 463 228 l 257
NamedP: "sv01"
EndSplineSet
PickledDataWithLists: "(dp0
Vcom.adobe.type.autohint
p1
(c_codecs
encode
p2
(Vdata
p3
Vlatin1
p4
tp5
Rp6
g2
(V<data>\\u000a        <hintSetList>\\u000a          <hintset pointTag=\"sv01\">\\u000a            <hstem pos=\"0\" width=\"228\"/>\\u000a            <hstem pos=\"1520\" width=\"-20\"/>\\u000a            <vstem pos=\"123\" width=\"348\"/>\\u000a          </hintset>\\u000a        </hintSetList>\\u000a      </data>
p7
g4
tp8
Rp9
Ntp10
sVcom.fontlab.ttprogram
p11
(g2
(Vdata
p12
g4
tp13
Rp14
g2
(V<data>\\u000a        <ttProgram>\\u000a          <ttc align=\"round\" code=\"alignh\" point=\"ah01\"/>\\u000a          <ttc code=\"doubleh\" point1=\"dh01\" point2=\"dh02\" stem=\"eq X: 208\"/>\\u000a          <ttc code=\"alignt\" point=\"at01\" zone=\"t: 1\"/>\\u000a          <ttc code=\"alignb\" point=\"ab01\" zone=\"b: 0\"/>\\u000a          <ttc code=\"singlev\" point1=\"ab01\" point2=\"sv01\" stem=\"eq Y: 162\"/>\\u000a        </ttProgram>\\u000a      </data>
p15
g4
tp16
Rp17
Ntp18
s."
EndChar
StartChar: N
Encoding: 44 78 44
GlifName: N_
Width: 1300
VWidth: 0
Flags: W
LayerCount: 2
Fore
SplineSet
884 0 m 257
NamedP: "mh01"
 400 950 l 257
NamedP: "mh02"
 390 950 l 257
NamedP: "mh03"
 452 649 l 257
NamedP: "mh04"
 452 0 l 257
NamedP: "ab01"
 129 0 l 257
NamedP: "ah01"
 129 1263 l 257
NamedP: "ah03"
 96 1500 l 257
 422 1520 l 257
NamedP: "mh05"
 900 600 l 257
NamedP: "mh06"
 910 600 l 257
NamedP: "mh07"
 851 852 l 257
NamedP: "mh08"
 851 1500 l 257
 1173 1520 l 257
NamedP: "ah04"
 1173 0 l 257
NamedP: "ah02"
 884 0 l 257
NamedP: "mh01"
EndSplineSet
PickledDataWithLists: "(dp0
Vcom.adobe.type.autohint
p1
(c_codecs
encode
p2
(Vdata
p3
Vlatin1
p4
tp5
Rp6
g2
(V<data>\\u000a        <hintSetList>\\u000a          <hintset pointTag=\"mh01\">\\u000a            <hstem pos=\"21\" width=\"-21\"/>\\u000a            <hstem pos=\"1520\" width=\"-20\"/>\\u000a            <vstem pos=\"129\" width=\"323\"/>\\u000a            <vstem pos=\"851\" width=\"322\"/>\\u000a          </hintset>\\u000a        </hintSetList>\\u000a      </data>
p7
g4
tp8
Rp9
Ntp10
sVcom.fontlab.ttprogram
p11
(g2
(Vdata
p12
g4
tp13
Rp14
g2
(V<data>\\u000a        <ttProgram>\\u000a          <ttc align=\"round\" code=\"alignh\" point=\"ah01\"/>\\u000a          <ttc align=\"round\" code=\"alignh\" point=\"ah02\"/>\\u000a          <ttc align=\"round\" code=\"alignh\" point=\"ah03\"/>\\u000a          <ttc align=\"round\" code=\"alignh\" point=\"ah04\"/>\\u000a          <ttc code=\"mdeltah\" delta=\"5\" point=\"mh01\" ppm1=\"10\" ppm2=\"10\"/>\\u000a          <ttc code=\"mdeltah\" delta=\"-2\" point=\"mh02\" ppm1=\"25\" ppm2=\"25\"/>\\u000a          <ttc code=\"mdeltah\" delta=\"-1\" point=\"mh02\" ppm1=\"24\" ppm2=\"24\"/>\\u000a          <ttc code=\"mdeltah\" delta=\"-2\" point=\"mh02\" ppm1=\"10\" ppm2=\"10\"/>\\u000a          <ttc code=\"mdeltah\" delta=\"-6\" point=\"mh02\" ppm1=\"22\" ppm2=\"22\"/>\\u000a          <ttc code=\"mdeltah\" delta=\"5\" point=\"mh03\" ppm1=\"24\" ppm2=\"24\"/>\\u000a          <ttc code=\"mdeltah\" delta=\"6\" point=\"mh03\" ppm1=\"25\" ppm2=\"25\"/>\\u000a          <ttc code=\"mdeltah\" delta=\"2\" point=\"mh03\" ppm1=\"10\" ppm2=\"10\"/>\\u000a          <ttc code=\"mdeltah\" delta=\"2\" point=\"mh03\" ppm1=\"22\" ppm2=\"22\"/>\\u000a          <ttc code=\"mdeltah\" delta=\"-1\" point=\"mh04\" ppm1=\"22\" ppm2=\"22\"/>\\u000a          <ttc code=\"mdeltah\" delta=\"-3\" point=\"mh05\" ppm1=\"10\" ppm2=\"10\"/>\\u000a          <ttc code=\"mdeltah\" delta=\"-4\" point=\"mh06\" ppm1=\"24\" ppm2=\"24\"/>\\u000a          <ttc code=\"mdeltah\" delta=\"-7\" point=\"mh07\" ppm1=\"22\" ppm2=\"22\"/>\\u000a          <ttc code=\"mdeltah\" delta=\"-1\" point=\"mh08\" ppm1=\"22\" ppm2=\"22\"/>\\u000a          <ttc code=\"alignt\" point=\"mh05\" zone=\"t: 1\"/>\\u000a          <ttc code=\"alignt\" point=\"ah04\" zone=\"t: 1\"/>\\u000a          <ttc code=\"alignb\" point=\"ah02\" zone=\"b: 0\"/>\\u000a          <ttc code=\"alignb\" point=\"ab01\" zone=\"b: 0\"/>\\u000a          <ttc code=\"singlev\" point1=\"ah02\" point2=\"mh01\"/>\\u000a          <ttc code=\"mdeltav\" delta=\"2\" point=\"mh02\" ppm1=\"10\" ppm2=\"10\"/>\\u000a          <ttc code=\"mdeltav\" delta=\"-5\" point=\"mh02\" ppm1=\"24\" ppm2=\"25\"/>\\u000a          <ttc code=\"mdeltav\" delta=\"-6\" point=\"mh03\" ppm1=\"24\" ppm2=\"24\"/>\\u000a          <ttc code=\"mdeltav\" delta=\"-8\" point=\"mh03\" ppm1=\"25\" ppm2=\"25\"/>\\u000a          <ttc code=\"mdeltav\" delta=\"8\" point=\"mh04\" ppm1=\"10\" ppm2=\"10\"/>\\u000a          <ttc code=\"mdeltav\" delta=\"-2\" point=\"mh04\" ppm1=\"22\" ppm2=\"22\"/>\\u000a          <ttc code=\"mdeltav\" delta=\"4\" point=\"mh06\" ppm1=\"24\" ppm2=\"24\"/>\\u000a          <ttc code=\"mdeltav\" delta=\"3\" point=\"mh07\" ppm1=\"22\" ppm2=\"22\"/>\\u000a          <ttc code=\"mdeltav\" delta=\"4\" point=\"mh08\" ppm1=\"48\" ppm2=\"48\"/>\\u000a          <ttc code=\"mdeltav\" delta=\"1\" point=\"mh08\" ppm1=\"22\" ppm2=\"22\"/>\\u000a          <ttc code=\"mdeltav\" delta=\"-2\" point=\"mh08\" ppm1=\"10\" ppm2=\"10\"/>\\u000a        </ttProgram>\\u000a      </data>
p15
g4
tp16
Rp17
Ntp18
s."
EndChar
StartChar: O
Encoding: 48 79 48
GlifName: O_
Width: 1300
VWidth: 0
Flags: W
LayerCount: 2
Fore
SplineSet
649 -17 m 257
NamedP: "ab01"
 551 -17 551 -17 468.5 10.5 c 128
 386 38 386 38 319.5 88.5 c 128
 253 139 253 139 202.5 209 c 128
 152 279 152 279 118 364.5 c 128
 84 450 84 450 67 547.5 c 128
 50 645 50 645 50 750 c 257
NamedP: "ah01"
 50 907 50 907 87 1047 c 128
 124 1187 124 1187 198.5 1291 c 128
 273 1395 273 1395 385.5 1456 c 128
 498 1517 498 1517 649 1517 c 257
NamedP: "at01"
 796 1517 796 1517 907.5 1456 c 128
 1019 1395 1019 1395 1094.5 1291 c 128
 1170 1187 1170 1187 1208.5 1047 c 128
 1247 907 1247 907 1247 750 c 257
NamedP: "ah02"
 1247 645 1247 645 1230.5 547.5 c 128
 1214 450 1214 450 1181 364.5 c 128
 1148 279 1148 279 1098.5 209 c 128
 1049 139 1049 139 982.5 88.5 c 128
 916 38 916 38 832.5 10.5 c 128
 749 -17 749 -17 649 -17 c 257
NamedP: "ab01"
897 721 m 257
NamedP: "sh01"
 897 783 897 783 893.5 848 c 128
 890 913 890 913 880.5 974.5 c 128
 871 1036 871 1036 853.5 1090.5 c 128
 836 1145 836 1145 807.5 1186 c 128
 779 1227 779 1227 738.5 1250.5 c 128
 698 1274 698 1274 643 1274 c 257
NamedP: "sv01"
 591 1274 591 1274 553 1252.5 c 128
 515 1231 515 1231 488 1194.5 c 128
 461 1158 461 1158 443.5 1109.5 c 128
 426 1061 426 1061 416.5 1006.5 c 128
 407 952 407 952 403.5 894.5 c 128
 400 837 400 837 400 783 c 257
NamedP: "sh02"
 400 720 400 720 403.5 654.5 c 128
 407 589 407 589 417 527 c 128
 427 465 427 465 444.5 410.5 c 128
 462 356 462 356 490 315 c 128
 518 274 518 274 558.5 250 c 128
 599 226 599 226 654 226 c 257
NamedP: "sv02"
 706 226 706 226 744 247.5 c 128
 782 269 782 269 809 306.5 c 128
 836 344 836 344 853 393 c 128
 870 442 870 442 880 497 c 128
 890 552 890 552 893.5 609.5 c 128
 897 667 897 667 897 721 c 257
NamedP: "sh01"
EndSplineSet
PickledDataWithLists: "(dp0
Vcom.adobe.type.autohint
p1
(c_codecs
encode
p2
(Vdata
p3
Vlatin1
p4
tp5
Rp6
g2
(V<data>\\u000a        <hintSetList>\\u000a          <hintset pointTag=\"ab01\">\\u000a            <hstem pos=\"-17\" width=\"243\"/>\\u000a            <hstem pos=\"1274\" width=\"243\"/>\\u000a            <vstem pos=\"50\" width=\"350\"/>\\u000a            <vstem pos=\"897\" width=\"350\"/>\\u000a          </hintset>\\u000a        </hintSetList>\\u000a      </data>
p7
g4
tp8
Rp9
Ntp10
sVcom.fontlab.ttprogram
p11
(g2
(Vdata
p12
g4
tp13
Rp14
g2
(V<data>\\u000a        <ttProgram>\\u000a          <ttc align=\"round\" code=\"alignh\" point=\"ah01\"/>\\u000a          <ttc align=\"round\" code=\"alignh\" point=\"ah02\"/>\\u000a          <ttc code=\"singleh\" point1=\"ah02\" point2=\"sh01\" stem=\"eq X: 208\"/>\\u000a          <ttc code=\"singleh\" point1=\"ah01\" point2=\"sh02\" stem=\"eq X: 208\"/>\\u000a          <ttc code=\"alignt\" point=\"at01\" zone=\"t: 1\"/>\\u000a          <ttc code=\"alignb\" point=\"ab01\" zone=\"b: 0\"/>\\u000a          <ttc code=\"singlev\" point1=\"at01\" point2=\"sv01\" stem=\"eq Y: 171\"/>\\u000a          <ttc code=\"singlev\" point1=\"ab01\" point2=\"sv02\" stem=\"eq Y: 171\"/>\\u000a        </ttProgram>\\u000a      </data>
p15
g4
tp16
Rp17
Ntp18
s."
EndChar
StartChar: Q
Encoding: 62 81 62
GlifName: Q_
Width: 1300
VWidth: 0
Flags: W
LayerCount: 2
Fore
SplineSet
393 783 m 257
NamedP: "dh02"
 394 723 394 723 396 659.5 c 128
 398 596 398 596 405.5 535.5 c 128
 413 475 413 475 427.5 421 c 128
 442 367 442 367 468 326.5 c 128
 494 286 494 286 534 262.5 c 128
 574 239 574 239 632 239 c 257
NamedP: "sv01"
 620 261 620 261 601.5 298 c 128
 583 335 583 335 563.5 374 c 128
 544 413 544 413 527 447.5 c 128
 510 482 510 482 500 500 c 257
NamedP: "mh01"
 727 601 l 257
 877 300 l 257
NamedP: "mv01"
 877 500 l 257
 887 548 887 548 896.5 609 c 128
 906 670 906 670 906 751 c 257
NamedP: "dh03"
 906 813 906 813 901 876 c 128
 896 939 896 939 884.5 997.5 c 128
 873 1056 873 1056 853.5 1107.5 c 128
 834 1159 834 1159 805 1197 c 128
 776 1235 776 1235 736 1257 c 128
 696 1279 696 1279 644 1279 c 257
NamedP: "sv02"
 595 1279 595 1279 557 1257.5 c 128
 519 1236 519 1236 491 1199 c 128
 463 1162 463 1162 444.5 1112.5 c 128
 426 1063 426 1063 414.5 1008 c 128
 403 953 403 953 398 895 c 128
 393 837 393 837 393 783 c 257
NamedP: "dh02"
1200 -180 m 257
NamedP: "ah01"
 1104 -180 1104 -180 1033 -169.5 c 128
 962 -159 962 -159 904.5 -129 c 128
 847 -99 847 -99 798.5 -44 c 128
 750 11 750 11 700 100 c 257
 700 -11 l 257
 649 -17 649 -17 602 -17 c 257
NamedP: "ab01"
 465 -17 465 -17 362 46.5 c 128
 259 110 259 110 190 216.5 c 128
 121 323 121 323 86 461.5 c 128
 51 600 51 600 51 750 c 257
NamedP: "dh01"
 51 907 51 907 88 1047 c 128
 125 1187 125 1187 199.5 1291 c 128
 274 1395 274 1395 386.5 1456 c 128
 499 1517 499 1517 650 1517 c 257
NamedP: "at01"
 797 1517 797 1517 908.5 1461 c 128
 1020 1405 1020 1405 1095.5 1306.5 c 128
 1171 1208 1171 1208 1209.5 1073 c 128
 1248 938 1248 938 1248 780 c 257
NamedP: "dh04"
 1248 688 1248 688 1232 592.5 c 128
 1216 497 1216 497 1184 410 c 128
 1152 323 1152 323 1103.5 249.5 c 128
 1055 176 1055 176 990 127 c 257
NamedP: "av01"
 1008 97 1008 97 1033 81 c 128
 1058 65 1058 65 1086 58.5 c 128
 1114 52 1114 52 1143.5 51 c 128
 1173 50 1173 50 1200 50 c 257
 1200 -180 l 257
NamedP: "ah01"
EndSplineSet
PickledDataWithLists: "(dp0
Vcom.adobe.type.autohint
p1
(c_codecs
encode
p2
(Vdata
p3
Vlatin1
p4
tp5
Rp6
g2
(V<data>\\u000a        <hintSetList>\\u000a          <hintset pointTag=\"dh02\">\\u000a            <hstem pos=\"-159\" width=\"-21\"/>\\u000a            <hstem pos=\"-17\" width=\"256\"/>\\u000a            <hstem pos=\"1279\" width=\"238\"/>\\u000a            <vstem pos=\"51\" width=\"342\"/>\\u000a            <vstem pos=\"906\" width=\"342\"/>\\u000a          </hintset>\\u000a        </hintSetList>\\u000a      </data>
p7
g4
tp8
Rp9
Ntp10
sVcom.fontlab.ttprogram
p11
(g2
(Vdata
p12
g4
tp13
Rp14
g2
(V<data>\\u000a        <ttProgram>\\u000a          <ttc align=\"round\" code=\"alignh\" point=\"ah01\"/>\\u000a          <ttc code=\"doubleh\" point1=\"dh01\" point2=\"dh02\" stem=\"eq X: 208\"/>\\u000a          <ttc code=\"doubleh\" point1=\"dh03\" point2=\"dh04\" stem=\"eq X: 208\"/>\\u000a          <ttc code=\"mdeltah\" delta=\"3\" point=\"mh01\" ppm1=\"23\" ppm2=\"23\"/>\\u000a          <ttc code=\"singleh\" point1=\"dh04\" point2=\"rsb\" round=\"true\"/>\\u000a          <ttc align=\"round\" code=\"alignv\" point=\"ah01\"/>\\u000a          <ttc align=\"round\" code=\"alignv\" point=\"av01\"/>\\u000a          <ttc code=\"alignt\" point=\"at01\" zone=\"t: 1\"/>\\u000a          <ttc code=\"alignb\" point=\"ab01\" zone=\"b: 0\"/>\\u000a          <ttc code=\"singlev\" point1=\"ab01\" point2=\"sv01\" stem=\"eq Y: 171\"/>\\u000a          <ttc code=\"mdeltav\" delta=\"3\" point=\"mv01\" ppm1=\"23\" ppm2=\"23\"/>\\u000a          <ttc code=\"singlev\" point1=\"at01\" point2=\"sv02\" stem=\"eq Y: 171\"/>\\u000a        </ttProgram>\\u000a      </data>
p15
g4
tp16
Rp17
Ntp18
s."
EndChar
StartChar: R
Encoding: 63 82 63
GlifName: R_
Width: 1300
VWidth: 0
Flags: W
LayerCount: 2
Fore
SplineSet
449 600 m 257
NamedP: "dv01"
 449 0 l 257
NamedP: "sh02"
 124 0 l 257
NamedP: "sh01"
 124 1262 l 257
 86 1488 l 257
 176 1498 176 1498 275.5 1507.5 c 128
 375 1517 375 1517 465 1517 c 257
NamedP: "at01"
 601 1517 601 1517 716.5 1488.5 c 128
 832 1460 832 1460 916.5 1404.5 c 128
 1001 1349 1001 1349 1048.5 1267.5 c 128
 1096 1186 1096 1186 1096 1081 c 257
NamedP: "sh03"
 1096 992 1096 992 1067.5 918.5 c 128
NamedP: "mh01"
 1039 845 1039 845 987.5 787 c 128
 936 729 936 729 863 688 c 128
 790 647 790 647 700 624 c 257
NamedP: "ih01"
 792 600 l 257
 1200 0 l 257
NamedP: "mh02"
 835 0 l 257
 449 600 l 257
NamedP: "dv01"
449 1121 m 257
NamedP: "sh04"
 449 800 l 257
NamedP: "dv02"
 485 800 l 257
 553 800 553 800 605.5 821.5 c 128
 658 843 658 843 694 879.5 c 128
 730 916 730 916 748.5 964.5 c 128
 767 1013 767 1013 767 1066 c 257
NamedP: "ah01"
 767 1136 767 1136 741 1181 c 128
 715 1226 715 1226 674.5 1251.5 c 128
 634 1277 634 1277 584.5 1286.5 c 128
 535 1296 535 1296 489 1296 c 257
NamedP: "sv01"
 473 1296 473 1296 459 1295.5 c 128
 445 1295 445 1295 433 1294 c 257
 449 1121 l 257
NamedP: "sh04"
EndSplineSet
PickledDataWithLists: "(dp0
Vcom.adobe.type.autohint
p1
(c_codecs
encode
p2
(Vdata
p3
Vlatin1
p4
tp5
Rp6
g2
(V<data>\\u000a        <hintSetList>\\u000a          <hintset pointTag=\"dv01\">\\u000a            <hstem pos=\"21\" width=\"-21\"/>\\u000a            <hstem pos=\"1296\" width=\"221\"/>\\u000a            <vstem pos=\"124\" width=\"325\"/>\\u000a            <vstem pos=\"767\" width=\"329\"/>\\u000a          </hintset>\\u000a        </hintSetList>\\u000a      </data>
p7
g4
tp8
Rp9
Ntp10
sVcom.fontlab.ttprogram
p11
(g2
(Vdata
p12
g4
tp13
Rp14
g2
(V<data>\\u000a        <ttProgram>\\u000a          <ttc align=\"round\" code=\"alignh\" point=\"lsb\"/>\\u000a          <ttc align=\"round\" code=\"alignh\" point=\"ah01\"/>\\u000a          <ttc code=\"singleh\" point1=\"lsb\" point2=\"sh01\" round=\"true\"/>\\u000a          <ttc code=\"singleh\" point1=\"sh01\" point2=\"sh02\" stem=\"eq X: 208\"/>\\u000a          <ttc code=\"singleh\" point1=\"ah01\" point2=\"sh03\" stem=\"eq X: 190\"/>\\u000a          <ttc code=\"mdeltah\" delta=\"5\" point=\"mh01\" ppm1=\"20\" ppm2=\"20\"/>\\u000a          <ttc code=\"interpolateh\" point=\"ih01\" point1=\"sh01\" point2=\"sh03\"/>\\u000a          <ttc code=\"mdeltah\" delta=\"-2\" point=\"mh02\" ppm1=\"24\" ppm2=\"24\"/>\\u000a          <ttc code=\"singleh\" point1=\"sh02\" point2=\"sh04\"/>\\u000a          <ttc code=\"alignt\" point=\"at01\" zone=\"t: 1\"/>\\u000a          <ttc code=\"alignb\" point=\"sh02\" zone=\"b: 0\"/>\\u000a          <ttc code=\"alignb\" point=\"mh02\" zone=\"b: 0\"/>\\u000a          <ttc code=\"doublev\" point1=\"dv01\" point2=\"dv02\" stem=\"eq Y: 153\"/>\\u000a          <ttc code=\"interpolatev\" point=\"ih01\" point1=\"dv02\" point2=\"dv01\"/>\\u000a          <ttc code=\"singlev\" point1=\"at01\" point2=\"sv01\" stem=\"eq Y: 135\"/>\\u000a        </ttProgram>\\u000a      </data>
p15
g4
tp16
Rp17
Ntp18
s."
EndChar
StartChar: S
Encoding: 66 83 66
GlifName: S_
Width: 1300
VWidth: 0
Flags: W
LayerCount: 2
Fore
SplineSet
973 1178 m 257
NamedP: "mh01"
 927 1205 927 1205 889.5 1223.5 c 128
 852 1242 852 1242 820 1253 c 128
 788 1264 788 1264 759.5 1269 c 128
 731 1274 731 1274 703 1274 c 257
NamedP: "sv01"
 666 1274 666 1274 629.5 1267 c 128
 593 1260 593 1260 564 1243 c 128
 535 1226 535 1226 517 1197 c 128
 499 1168 499 1168 499 1125 c 257
NamedP: "sh02"
 499 1084 499 1084 519.5 1054.5 c 128
NamedP: "sv02"
 540 1025 540 1025 573.5 1002 c 128
 607 979 607 979 649.5 960 c 128
NamedP: "mv01"
 692 941 692 941 736 921 c 257
NamedP: "sh03"
 811 886 811 886 888 845.5 c 128
NamedP: "sv04"
 965 805 965 805 1027 750 c 128
 1089 695 1089 695 1128.5 621.5 c 128
 1168 548 1168 548 1168 448 c 257
NamedP: "sh04"
 1168 332 1168 332 1120 245 c 128
 1072 158 1072 158 992.5 100 c 128
 913 42 913 42 809.5 12.5 c 128
 706 -17 706 -17 596 -17 c 257
NamedP: "ab01"
 470 -17 470 -17 363.5 18.5 c 128
NamedP: "mv03"
 257 54 257 54 150 121 c 257
NamedP: "mh03"
 288 348 l 257
 315 330 315 330 352 310 c 128
 389 290 389 290 430.5 273.5 c 128
 472 257 472 257 514 246.5 c 128
 556 236 556 236 594 236 c 257
NamedP: "sv03"
 638 236 638 236 681 245.5 c 128
 724 255 724 255 757.5 277.5 c 128
 791 300 791 300 811.5 337 c 128
 832 374 832 374 832 430 c 257
NamedP: "ah01"
 832 484 832 484 807.5 523 c 128
NamedP: "av01"
 783 562 783 562 743.5 591.5 c 128
 704 621 704 621 654 645 c 128
NamedP: "iv01"
 604 669 604 669 553 693 c 257
NamedP: "ah02"
 481 727 481 727 413 765 c 128
NamedP: "av02"
 345 803 345 803 291.5 851 c 128
 238 899 238 899 205.5 959 c 128
 173 1019 173 1019 173 1097 c 257
NamedP: "sh01"
 173 1198 173 1198 216 1276.5 c 128
 259 1355 259 1355 330 1408.5 c 128
 401 1462 401 1462 492 1489.5 c 128
 583 1517 583 1517 679 1517 c 257
NamedP: "at01"
 797 1517 797 1517 904 1480.5 c 128
 1011 1444 1011 1444 1123 1369 c 257
NamedP: "mh04"
 973 1178 l 257
NamedP: "mh01"
EndSplineSet
PickledDataWithLists: "(dp0
Vcom.adobe.type.autohint
p1
(c_codecs
encode
p2
(Vdata
p3
Vlatin1
p4
tp5
Rp6
g2
(V<data>\\u000a        <hintSetList>\\u000a          <hintset pointTag=\"mh01\">\\u000a            <hstem pos=\"-17\" width=\"253\"/>\\u000a            <hstem pos=\"1274\" width=\"243\"/>\\u000a            <vstem pos=\"173\" width=\"326\"/>\\u000a            <vstem pos=\"832\" width=\"336\"/>\\u000a          </hintset>\\u000a        </hintSetList>\\u000a      </data>
p7
g4
tp8
Rp9
Ntp10
sVcom.fontlab.ttprogram
p11
(g2
(Vdata
p12
g4
tp13
Rp14
g2
(V<data>\\u000a        <ttProgram>\\u000a          <ttc align=\"round\" code=\"alignh\" point=\"lsb\"/>\\u000a          <ttc align=\"round\" code=\"alignh\" point=\"ah01\"/>\\u000a          <ttc align=\"round\" code=\"alignh\" point=\"ah02\"/>\\u000a          <ttc code=\"mdeltah\" delta=\"3\" point=\"mh01\" ppm1=\"25\" ppm2=\"25\"/>\\u000a          <ttc code=\"singleh\" point1=\"lsb\" point2=\"sh01\" round=\"true\"/>\\u000a          <ttc code=\"singleh\" point1=\"sh01\" point2=\"sh02\" stem=\"eq X: 208\"/>\\u000a          <ttc code=\"singleh\" point1=\"ah02\" point2=\"sh03\" stem=\"eq X: 208\"/>\\u000a          <ttc code=\"singleh\" point1=\"ah01\" point2=\"sh04\" stem=\"eq X: 208\"/>\\u000a          <ttc code=\"mdeltah\" delta=\"-7\" point=\"mh02\" ppm1=\"25\" ppm2=\"25\"/>\\u000a          <ttc code=\"mdeltah\" delta=\"4\" point=\"mh03\" ppm1=\"25\" ppm2=\"25\"/>\\u000a          <ttc code=\"mdeltah\" delta=\"4\" point=\"mh03\" ppm1=\"20\" ppm2=\"20\"/>\\u000a          <ttc code=\"mdeltah\" delta=\"3\" point=\"mh03\" ppm1=\"19\" ppm2=\"19\"/>\\u000a          <ttc code=\"mdeltah\" delta=\"2\" point=\"mh03\" ppm1=\"18\" ppm2=\"18\"/>\\u000a          <ttc code=\"mdeltah\" delta=\"-1\" point=\"mh04\" ppm1=\"20\" ppm2=\"20\"/>\\u000a          <ttc code=\"mdeltah\" delta=\"-1\" point=\"mh04\" ppm1=\"18\" ppm2=\"18\"/>\\u000a          <ttc code=\"mdeltah\" delta=\"-4\" point=\"mh04\" ppm1=\"19\" ppm2=\"19\"/>\\u000a          <ttc code=\"mdeltah\" delta=\"-6\" point=\"mh04\" ppm1=\"25\" ppm2=\"25\"/>\\u000a          <ttc code=\"singleh\" point1=\"sh04\" point2=\"rsb\" round=\"true\"/>\\u000a          <ttc align=\"round\" code=\"alignv\" point=\"av01\"/>\\u000a          <ttc align=\"round\" code=\"alignv\" point=\"av02\"/>\\u000a          <ttc code=\"alignt\" point=\"at01\" zone=\"t: 1\"/>\\u000a          <ttc code=\"alignb\" point=\"ab01\" zone=\"b: 0\"/>\\u000a          <ttc code=\"mdeltav\" delta=\"-3\" point=\"mh01\" ppm1=\"20\" ppm2=\"20\"/>\\u000a          <ttc code=\"singlev\" point1=\"at01\" point2=\"sv01\" stem=\"eq Y: 162\"/>\\u000a          <ttc code=\"singlev\" point1=\"av02\" point2=\"sv02\" stem=\"eq Y: 162\"/>\\u000a          <ttc code=\"mdeltav\" delta=\"6\" point=\"mv01\" ppm1=\"27\" ppm2=\"27\"/>\\u000a          <ttc code=\"singlev\" point1=\"ab01\" point2=\"sv03\" stem=\"eq Y: 162\"/>\\u000a          <ttc code=\"interpolatev\" point=\"sh03\" point1=\"sv01\" point2=\"sv03\"/>\\u000a          <ttc code=\"mdeltav\" delta=\"8\" point=\"sh03\" ppm1=\"27\" ppm2=\"27\"/>\\u000a          <ttc code=\"mdeltav\" delta=\"2\" point=\"mv02\" ppm1=\"27\" ppm2=\"27\"/>\\u000a          <ttc code=\"singlev\" point1=\"av01\" point2=\"sv04\" stem=\"eq Y: 162\"/>\\u000a          <ttc code=\"mdeltav\" delta=\"-3\" point=\"mv03\" ppm1=\"28\" ppm2=\"28\"/>\\u000a          <ttc code=\"interpolatev\" point=\"iv01\" point1=\"sv03\" point2=\"sv01\"/>\\u000a        </ttProgram>\\u000a      </data>
p15
g4
tp16
Rp17
Ntp18
s."
EndChar
StartChar: W
Encoding: 81 87 81
GlifName: W_
Width: 1300
VWidth: 0
Flags: W
LayerCount: 2
Fore
SplineSet
305 1520 m 257
NamedP: "sh01"
 418 959 l 257
 426 400 l 257
 436 400 l 257
NamedP: "ah03"
 479 701 l 257
NamedP: "mh01"
 530 1000 l 257
NamedP: "sh02"
 756 1000 l 257
NamedP: "sh03"
 813 701 l 257
NamedP: "mh02"
 865 400 l 257
NamedP: "ah01"
 875 400 l 257
NamedP: "mh03"
 873 957 l 257
 975 1500 l 257
NamedP: "sh04"
 1266 1500 l 257
NamedP: "sh05"
 998 0 l 257
NamedP: "ah05"
 745 0 l 257
NamedP: "sh06"
 684 300 l 257
NamedP: "ah04"
 644 650 l 257
NamedP: "ah02"
 603 300 l 257
 541 0 l 257
NamedP: "sh07"
 291 0 l 257
 255 237 255 237 220 443 c 128
 185 649 185 649 151 832.5 c 128
 117 1016 117 1016 84.5 1181 c 128
 52 1346 52 1346 21 1500 c 257
NamedP: "sh08"
 305 1520 l 257
NamedP: "sh01"
EndSplineSet
PickledDataWithLists: "(dp0
Vcom.adobe.type.autohint
p1
(c_codecs
encode
p2
(Vdata
p3
Vlatin1
p4
tp5
Rp6
g2
(V<data>\\u000a        <hintSetList>\\u000a          <hintset pointTag=\"sh01\">\\u000a            <hstem pos=\"21\" width=\"-21\"/>\\u000a            <hstem pos=\"1520\" width=\"-20\"/>\\u000a            <vstem pos=\"422\" width=\"452\"/>\\u000a          </hintset>\\u000a        </hintSetList>\\u000a      </data>
p7
g4
tp8
Rp9
Ntp10
sVcom.fontlab.ttprogram
p11
(g2
(Vdata
p12
g4
tp13
Rp14
g2
(V<data>\\u000a        <ttProgram>\\u000a          <ttc align=\"round\" code=\"alignh\" point=\"ah01\"/>\\u000a          <ttc align=\"round\" code=\"alignh\" point=\"ah02\"/>\\u000a          <ttc align=\"round\" code=\"alignh\" point=\"ah03\"/>\\u000a          <ttc align=\"round\" code=\"alignh\" point=\"ah04\"/>\\u000a          <ttc align=\"round\" code=\"alignh\" point=\"ah05\"/>\\u000a          <ttc code=\"singleh\" point1=\"ah03\" point2=\"sh01\"/>\\u000a          <ttc code=\"mdeltah\" delta=\"1\" point=\"mh01\" ppm1=\"18\" ppm2=\"18\"/>\\u000a          <ttc code=\"singleh\" point1=\"ah03\" point2=\"sh02\"/>\\u000a          <ttc code=\"singleh\" point1=\"ah01\" point2=\"sh03\"/>\\u000a          <ttc code=\"mdeltah\" delta=\"1\" point=\"mh02\" ppm1=\"18\" ppm2=\"18\"/>\\u000a          <ttc code=\"mdeltah\" delta=\"2\" point=\"mh03\" ppm1=\"18\" ppm2=\"18\"/>\\u000a          <ttc code=\"singleh\" point1=\"ah01\" point2=\"sh04\"/>\\u000a          <ttc code=\"singleh\" point1=\"sh04\" point2=\"sh05\" stem=\"eq X: dia Lite\"/>\\u000a          <ttc code=\"singleh\" point1=\"ah02\" point2=\"sh06\"/>\\u000a          <ttc code=\"mdeltah\" delta=\"5\" point=\"sh06\" ppm1=\"20\" ppm2=\"20\"/>\\u000a          <ttc code=\"mdeltah\" delta=\"8\" point=\"ah04\" ppm1=\"18\" ppm2=\"18\"/>\\u000a          <ttc code=\"mdeltah\" delta=\"5\" point=\"ah04\" ppm1=\"20\" ppm2=\"20\"/>\\u000a          <ttc code=\"singleh\" point1=\"ah02\" point2=\"sh07\"/>\\u000a          <ttc code=\"singleh\" point1=\"sh01\" point2=\"sh08\" stem=\"eq X: dia Fat\"/>\\u000a          <ttc align=\"round\" code=\"alignv\" point=\"ah04\"/>\\u000a          <ttc align=\"round\" code=\"alignv\" point=\"ah02\"/>\\u000a          <ttc code=\"alignt\" point=\"sh01\" zone=\"t: 1\"/>\\u000a          <ttc code=\"alignb\" point=\"sh07\" zone=\"b: 0\"/>\\u000a          <ttc code=\"alignb\" point=\"ah05\" zone=\"b: 0\"/>\\u000a          <ttc code=\"interpolatev\" point=\"ah03\" point1=\"sh01\" point2=\"ah05\"/>\\u000a          <ttc code=\"mdeltav\" delta=\"-3\" point=\"mh01\" ppm1=\"18\" ppm2=\"18\"/>\\u000a          <ttc code=\"mdeltav\" delta=\"-3\" point=\"mh02\" ppm1=\"18\" ppm2=\"18\"/>\\u000a          <ttc code=\"interpolatev\" point=\"ah01\" point1=\"sh01\" point2=\"ah05\"/>\\u000a          <ttc code=\"mdeltav\" delta=\"-5\" point=\"ah01\" ppm1=\"18\" ppm2=\"18\"/>\\u000a          <ttc code=\"mdeltav\" delta=\"-6\" point=\"ah04\" ppm1=\"20\" ppm2=\"20\"/>\\u000a        </ttProgram>\\u000a      </data>
p15
g4
tp16
Rp17
Ntp18
s."
EndChar
StartChar: X
Encoding: 82 88 82
GlifName: X_
Width: 1300
VWidth: 0
Flags: W
LayerCount: 2
Fore
SplineSet
920 0 m 257
NamedP: "hr00"
 608 583 l 257
 587 400 l 257
 359 0 l 257
 16 0 l 257
 477 797 l 257
 430 878 430 878 75 1500 c 257
 423 1520 l 257
 717 995 l 257
 748 1199 l 257
 909 1500 l 257
 1254 1500 l 257
 854 800 l 257
 1283 0 l 257
 920 0 l 257
NamedP: "hr00"
EndSplineSet
PickledDataWithLists: "(dp0
Vcom.adobe.type.autohint
p1
(c_codecs
encode
p2
(Vdata
p3
Vlatin1
p4
tp5
Rp6
g2
(V<data>\\u000a        <hintSetList>\\u000a          <hintset pointTag=\"hr00\">\\u000a            <hstem pos=\"21\" width=\"-21\"/>\\u000a            <hstem pos=\"1520\" width=\"-20\"/>\\u000a          </hintset>\\u000a        </hintSetList>\\u000a      </data>
p7
g4
tp8
Rp9
Ntp10
s."
EndChar
StartChar: Y
Encoding: 84 89 84
GlifName: Y_
Width: 1300
VWidth: 0
Flags: W
LayerCount: 2
Fore
SplineSet
571 1143 m 257
NamedP: "hr00"
 678 773 l 257
NamedP: "ih01"
 736 1143 l 257
 918 1500 l 257
NamedP: "ah02"
 1253 1500 l 257
NamedP: "sh01"
 820 650 l 257
NamedP: "ih03"
 820 0 l 257
NamedP: "sh02"
 469 0 l 257
NamedP: "ah01"
 469 650 l 257
NamedP: "ih02"
 40 1500 l 257
NamedP: "ah03"
 379 1520 l 257
NamedP: "sh03"
 571 1143 l 257
NamedP: "hr00"
EndSplineSet
PickledDataWithLists: "(dp0
Vcom.adobe.type.autohint
p1
(c_codecs
encode
p2
(Vdata
p3
Vlatin1
p4
tp5
Rp6
g2
(V<data>\\u000a        <hintSetList>\\u000a          <hintset pointTag=\"hr00\">\\u000a            <hstem pos=\"21\" width=\"-21\"/>\\u000a            <hstem pos=\"1520\" width=\"-20\"/>\\u000a            <vstem pos=\"469\" width=\"351\"/>\\u000a          </hintset>\\u000a        </hintSetList>\\u000a      </data>
p7
g4
tp8
Rp9
Ntp10
sVcom.fontlab.ttprogram
p11
(g2
(Vdata
p12
g4
tp13
Rp14
g2
(V<data>\\u000a        <ttProgram>\\u000a          <ttc align=\"round\" code=\"alignh\" point=\"ah01\"/>\\u000a          <ttc align=\"round\" code=\"alignh\" point=\"ah02\"/>\\u000a          <ttc align=\"round\" code=\"alignh\" point=\"ah03\"/>\\u000a          <ttc code=\"interpolateh\" point=\"ih01\" point1=\"ih02\" point2=\"ih03\"/>\\u000a          <ttc code=\"mdeltah\" delta=\"-1\" point=\"ih01\" ppm1=\"34\" ppm2=\"34\"/>\\u000a          <ttc code=\"singleh\" point1=\"ah02\" point2=\"sh01\" stem=\"eq X: dia Lite\"/>\\u000a          <ttc code=\"singleh\" point1=\"ah01\" point2=\"sh02\" stem=\"eq X: dia Lite\"/>\\u000a          <ttc code=\"singleh\" point1=\"ah03\" point2=\"sh03\" stem=\"eq X: dia Fat\"/>\\u000a          <ttc code=\"alignt\" point=\"sh03\" zone=\"t: 1\"/>\\u000a          <ttc code=\"alignt\" point=\"ah02\" zone=\"t: 1\"/>\\u000a          <ttc code=\"alignt\" point=\"sh01\" zone=\"t: 1\"/>\\u000a          <ttc code=\"alignt\" point=\"ah03\" zone=\"t: 1\"/>\\u000a          <ttc code=\"alignb\" point=\"ah01\" zone=\"b: 0\"/>\\u000a          <ttc code=\"mdeltav\" delta=\"8\" point=\"ih01\" ppm1=\"34\" ppm2=\"34\"/>\\u000a          <ttc code=\"mdeltav\" delta=\"8\" point=\"ih01\" ppm1=\"48\" ppm2=\"48\"/>\\u000a          <ttc code=\"fdeltav\" delta=\"3\" point=\"ih01\" ppm1=\"19\" ppm2=\"19\"/>\\u000a          <ttc code=\"fdeltav\" delta=\"6\" point=\"ih01\" ppm1=\"17\" ppm2=\"17\"/>\\u000a        </ttProgram>\\u000a      </data>
p15
g4
tp16
Rp17
Ntp18
s."
EndChar
StartChar: Z
Encoding: 87 90 87
GlifName: Z_
Width: 1300
VWidth: 0
Flags: W
LayerCount: 2
Fore
SplineSet
1156 228 m 257,0,-1
NamedP: "iv03"
 1183 0 l 257,1,-1
NamedP: "ab01"
 144 0 l 257,2,-1
NamedP: "iv05"
 110 86 l 257,3,-1
 651 1187 l 257,4,-1
 789 1300 l 257,5,-1
NamedP: "iv01"
 658 1272 l 257,6,-1
NamedP: "sv01"
 200 1272 l 257,7,-1
NamedP: "iv06"
 173 1500 l 257,8,-1
NamedP: "at01"
 1087 1500 l 257,9,-1
NamedP: "iv02"
 1128 1442 l 257,10,-1
 581 314 l 257,11,-1
 447 200 l 257,12,-1
NamedP: "iv04"
 580 228 l 257,13,-1
NamedP: "sv02"
 1156 228 l 257,0,-1
NamedP: "iv03"
EndSplineSet
PickledDataWithLists: "(dp0
Vcom.adobe.type.autohint
p1
(c_codecs
encode
p2
(Vdata
p3
Vlatin1
p4
tp5
Rp6
g2
(V<data>\\u000a        <hintSetList>\\u000a          <hintset pointTag=\"iv03\">\\u000a            <hstem pos=\"0\" width=\"228\"/>\\u000a            <hstem pos=\"1272\" width=\"228\"/>\\u000a          </hintset>\\u000a        </hintSetList>\\u000a      </data>
p7
g4
tp8
Rp9
Ntp10
sVcom.fontlab.ttprogram
p11
(g2
(Vdata
p12
g4
tp13
Rp14
g2
(V<data>\\u000a        <ttProgram>\\u000a          <ttc code=\"alignt\" point=\"at01\" zone=\"t: 1\"/>\\u000a          <ttc code=\"alignb\" point=\"ab01\" zone=\"b: 0\"/>\\u000a          <ttc code=\"interpolatev\" point=\"iv01\" point1=\"iv02\" point2=\"iv03\"/>\\u000a          <ttc code=\"singlev\" point1=\"at01\" point2=\"sv01\" stem=\"eq Y: 171\"/>\\u000a          <ttc code=\"interpolatev\" point=\"iv04\" point1=\"iv05\" point2=\"iv06\"/>\\u000a          <ttc code=\"singlev\" point1=\"ab01\" point2=\"sv02\" stem=\"eq Y: 171\"/>\\u000a        </ttProgram>\\u000a      </data>
p15
g4
tp16
Rp17
Ntp18
s."
EndChar
StartChar: bracketleft
Encoding: 158 91 158
GlifName: bracketleft
Width: 1300
VWidth: 0
Flags: W
LayerCount: 2
Fore
SplineSet
281 1288 m 257,0,-1
NamedP: "hr00"
 255 1520 l 257,1,-1
 955 1520 l 257,2,-1
 955 1302 l 257,3,-1
 605 1302 l 257,4,-1
 620 1154 l 257,5,-1
 620 -31 l 257,6,-1
 605 -179 l 257,7,-1
 955 -179 l 257,8,-1
 955 -398 l 257,9,-1
 255 -398 l 257,10,-1
 281 -166 l 257,11,-1
 281 1288 l 257,0,-1
NamedP: "hr00"
EndSplineSet
PickledDataWithLists: "(dp0
Vcom.adobe.type.autohint
p1
(c_codecs
encode
p2
(Vdata
p3
Vlatin1
p4
tp5
Rp6
g2
(V<data>\\u000a        <hintSetList>\\u000a          <hintset pointTag=\"hr00\">\\u000a            <hstem pos=\"-398\" width=\"219\"/>\\u000a            <hstem pos=\"1302\" width=\"218\"/>\\u000a            <vstem pos=\"281\" width=\"339\"/>\\u000a          </hintset>\\u000a        </hintSetList>\\u000a      </data>
p7
g4
tp8
Rp9
Ntp10
s."
EndChar
StartChar: bracketright
Encoding: 159 93 159
GlifName: bracketright
Width: 1300
VWidth: 0
Flags: W
LayerCount: 2
Fore
SplineSet
1041 -166 m 257
NamedP: "hr00"
 1067 -398 l 257
 367 -398 l 257
 367 -179 l 257
 716 -179 l 257
 701 -31 l 257
 701 1154 l 257
 716 1302 l 257
 367 1302 l 257
 367 1520 l 257
 1067 1520 l 257
 1041 1288 l 257
 1041 -166 l 257
NamedP: "hr00"
EndSplineSet
PickledDataWithLists: "(dp0
Vcom.adobe.type.autohint
p1
(c_codecs
encode
p2
(Vdata
p3
Vlatin1
p4
tp5
Rp6
g2
(V<data>\\u000a        <hintSetList>\\u000a          <hintset pointTag=\"hr00\">\\u000a            <hstem pos=\"-398\" width=\"219\"/>\\u000a            <hstem pos=\"1302\" width=\"218\"/>\\u000a            <vstem pos=\"701\" width=\"340\"/>\\u000a          </hintset>\\u000a        </hintSetList>\\u000a      </data>
p7
g4
tp8
Rp9
Ntp10
s."
EndChar
StartChar: asciicircum
Encoding: 123 94 123
GlifName: asciicircum
Width: 1300
VWidth: 0
Flags: W
LayerCount: 2
Fore
SplineSet
1250 866 m 257
NamedP: "sh01"
 950 866 l 257
NamedP: "ah02"
 650 1200 l 257
NamedP: "ih01"
 350 868 l 257
NamedP: "sh02"
 50 868 l 257
NamedP: "ah01"
 534 1500 l 257
NamedP: "ih02"
 743 1520 l 257
NamedP: "ih03"
 1250 866 l 257
NamedP: "sh01"
EndSplineSet
PickledDataWithLists: "(dp0
Vcom.adobe.type.autohint
p1
(c_codecs
encode
p2
(Vdata
p3
Vlatin1
p4
tp5
Rp6
g2
(V<data>\\u000a        <hintSetList>\\u000a          <hintset pointTag=\"sh01\">\\u000a            <hstem pos=\"887\" width=\"-21\"/>\\u000a            <hstem pos=\"1520\" width=\"-20\"/>\\u000a          </hintset>\\u000a        </hintSetList>\\u000a      </data>
p7
g4
tp8
Rp9
Ntp10
sVcom.fontlab.ttprogram
p11
(g2
(Vdata
p12
g4
tp13
Rp14
g2
(V<data>\\u000a        <ttProgram>\\u000a          <ttc align=\"round\" code=\"alignh\" point=\"ah01\"/>\\u000a          <ttc align=\"round\" code=\"alignh\" point=\"ah02\"/>\\u000a          <ttc code=\"singleh\" point1=\"ah02\" point2=\"sh01\" stem=\"eq X: dia Lite\"/>\\u000a          <ttc code=\"interpolateh\" point=\"ih01\" point1=\"ah01\" point2=\"sh01\"/>\\u000a          <ttc code=\"singleh\" point1=\"ah01\" point2=\"sh02\" stem=\"eq X: dia Lite\"/>\\u000a          <ttc code=\"interpolateh\" point=\"ih02\" point1=\"sh01\" point2=\"sh02\"/>\\u000a          <ttc code=\"interpolateh\" point=\"ih03\" point1=\"ah01\" point2=\"ah02\"/>\\u000a          <ttc align=\"round\" code=\"alignv\" point=\"sh02\"/>\\u000a          <ttc align=\"round\" code=\"alignv\" point=\"ah02\"/>\\u000a          <ttc code=\"alignt\" point=\"ih03\" zone=\"t: 1\"/>\\u000a          <ttc code=\"alignt\" point=\"ih02\" zone=\"t: 1\"/>\\u000a        </ttProgram>\\u000a      </data>
p15
g4
tp16
Rp17
Ntp18
s."
EndChar
StartChar: a
Encoding: 89 97 89
GlifName: a
Width: 1300
VWidth: 0
Flags: W
LayerCount: 2
Fore
SplineSet
1135 0 m 257
NamedP: "ab02"
 795 0 l 257
NamedP: "hr01"
 795 100 l 257
NamedP: "ah01"
 711 5 l 257
NamedP: "ah02"
 676 -6 676 -6 641.5 -11.5 c 128
 607 -17 607 -17 577 -17 c 257
NamedP: "ab01"
 494 -17 494 -17 410 7.5 c 128
 326 32 326 32 258.5 79.5 c 128
 191 127 191 127 148.5 197 c 128
 106 267 106 267 106 358 c 257
NamedP: "sh01"
 106 454 106 454 149 524 c 128
 192 594 192 594 262.5 639.5 c 128
NamedP: "mh01"
 333 685 333 685 422 707 c 128
NamedP: "mv01"
 511 729 511 729 604 729 c 257
NamedP: "dv01"
 661 729 661 729 708 725.5 c 128
 755 722 755 722 795 715 c 257
NamedP: "sh02"
 791 800 791 800 752 850 c 128
NamedP: "mv02"
 713 900 713 900 632 900 c 257
NamedP: "sv01"
 588 900 588 900 543.5 895 c 128
NamedP: "mv04"
 499 890 499 890 458 881 c 128
 417 872 417 872 381.5 861 c 128
 346 850 346 850 319 838 c 257
NamedP: "ih01"
 225 1023 l 257
NamedP: "mh02"
 271 1044 271 1044 313.5 1061.5 c 128
 356 1079 356 1079 403.5 1091.5 c 128
NamedP: "sh04"
 451 1104 451 1104 508 1110.5 c 128
 565 1117 565 1117 642 1117 c 257
NamedP: "mh03"
 770 1117 770 1117 859.5 1085.5 c 128
 949 1054 949 1054 1005 996.5 c 128
 1061 939 1061 939 1086.5 858.5 c 128
 1112 778 1112 778 1112 681 c 257
 1112 200 l 257
NamedP: "sh05"
 1135 0 l 257
NamedP: "ab02"
795 500 m 257
NamedP: "sh06"
 780 501 780 501 760 502 c 128
 740 503 740 503 719 503.5 c 128
 698 504 698 504 677.5 504.5 c 128
 657 505 657 505 642 505 c 257
NamedP: "dv02"
 604 505 604 505 566.5 498 c 128
 529 491 529 491 500 474 c 128
 471 457 471 457 453 429 c 128
 435 401 435 401 435 359 c 257
NamedP: "sh03"
 435 325 435 325 447.5 297.5 c 128
 460 270 460 270 481 250 c 128
 502 230 502 230 529 219 c 128
 556 208 556 208 585 208 c 257
NamedP: "sv02"
 642 208 642 208 694 233 c 128
 746 258 746 258 795 300 c 257
 795 500 l 257
NamedP: "sh06"
EndSplineSet
PickledDataWithLists: "(dp0
Vcom.adobe.type.autohint
p1
(c_codecs
encode
p2
(Vdata
p3
Vlatin1
p4
tp5
Rp6
g2
(V<data>\\u000a        <hintSetList>\\u000a          <hintset pointTag=\"hr01\">\\u000a            <hstem pos=\"-17\" width=\"225\"/>\\u000a            <hstem pos=\"21\" width=\"-21\"/>\\u000a            <hstem pos=\"505\" width=\"224\"/>\\u000a            <hstem pos=\"505\" width=\"224\"/>\\u000a            <hstem pos=\"900\" width=\"217\"/>\\u000a            <hstem pos=\"900\" width=\"217\"/>\\u000a            <vstem pos=\"106\" width=\"329\"/>\\u000a            <vstem pos=\"106\" width=\"329\"/>\\u000a            <vstem pos=\"795\" width=\"317\"/>\\u000a            <vstem pos=\"795\" width=\"317\"/>\\u000a          </hintset>\\u000a        </hintSetList>\\u000a      </data>
p7
g4
tp8
Rp9
Ntp10
sVcom.fontlab.ttprogram
p11
(g2
(Vdata
p12
g4
tp13
Rp14
g2
(V<data>\\u000a        <ttProgram>\\u000a          <ttc align=\"round\" code=\"alignh\" point=\"lsb\"/>\\u000a          <ttc align=\"round\" code=\"alignh\" point=\"ah01\"/>\\u000a          <ttc align=\"round\" code=\"alignh\" point=\"ah02\"/>\\u000a          <ttc code=\"singleh\" point1=\"lsb\" point2=\"sh01\"/>\\u000a          <ttc code=\"mdeltah\" delta=\"4\" point=\"mh01\" ppm1=\"15\" ppm2=\"15\"/>\\u000a          <ttc code=\"singleh\" point1=\"ah01\" point2=\"sh02\"/>\\u000a          <ttc code=\"interpolateh\" point=\"ih01\" point1=\"sh01\" point2=\"sh02\"/>\\u000a          <ttc code=\"mdeltah\" delta=\"-2\" point=\"mh02\" ppm1=\"13\" ppm2=\"13\"/>\\u000a          <ttc code=\"singleh\" point1=\"sh01\" point2=\"sh03\" stem=\"eq X: 190\"/>\\u000a          <ttc code=\"singleh\" point1=\"sh03\" point2=\"sh04\"/>\\u000a          <ttc code=\"mdeltah\" delta=\"1\" point=\"mh03\" ppm1=\"15\" ppm2=\"15\"/>\\u000a          <ttc code=\"singleh\" point1=\"ah01\" point2=\"sh05\" stem=\"eq X: 190\"/>\\u000a          <ttc code=\"singleh\" point1=\"ah01\" point2=\"sh06\"/>\\u000a          <ttc code=\"singleh\" point1=\"sh05\" point2=\"rsb\" round=\"true\"/>\\u000a          <ttc code=\"alignt\" point=\"mh03\" zone=\"t: x\"/>\\u000a          <ttc code=\"alignb\" point=\"ab01\" zone=\"b: 0\"/>\\u000a          <ttc code=\"alignb\" point=\"ab02\" zone=\"b: 0\"/>\\u000a          <ttc code=\"doublev\" point1=\"dv01\" point2=\"dv02\" stem=\"eq Y: 162\"/>\\u000a          <ttc code=\"mdeltav\" delta=\"2\" point=\"mv01\" ppm1=\"13\" ppm2=\"13\"/>\\u000a          <ttc code=\"mdeltav\" delta=\"-1\" point=\"mv01\" ppm1=\"15\" ppm2=\"15\"/>\\u000a          <ttc code=\"interpolatev\" point=\"sh02\" point1=\"dv01\" point2=\"dv02\"/>\\u000a          <ttc code=\"mdeltav\" delta=\"1\" point=\"mv02\" ppm1=\"13\" ppm2=\"13\"/>\\u000a          <ttc code=\"mdeltav\" delta=\"1\" point=\"mv02\" ppm1=\"15\" ppm2=\"15\"/>\\u000a          <ttc code=\"mdeltav\" delta=\"5\" point=\"mh03\" ppm1=\"13\" ppm2=\"13\"/>\\u000a          <ttc code=\"mdeltav\" delta=\"4\" point=\"mh03\" ppm1=\"15\" ppm2=\"15\"/>\\u000a          <ttc code=\"singlev\" point1=\"mh03\" point2=\"sv01\" stem=\"eq Y: 162\"/>\\u000a          <ttc code=\"mdeltav\" delta=\"5\" point=\"sv01\" ppm1=\"13\" ppm2=\"13\"/>\\u000a          <ttc code=\"mdeltav\" delta=\"5\" point=\"sv01\" ppm1=\"15\" ppm2=\"15\"/>\\u000a          <ttc code=\"mdeltav\" delta=\"2\" point=\"mv03\" ppm1=\"13\" ppm2=\"13\"/>\\u000a          <ttc code=\"mdeltav\" delta=\"2\" point=\"mv04\" ppm1=\"13\" ppm2=\"13\"/>\\u000a          <ttc code=\"mdeltav\" delta=\"1\" point=\"mv04\" ppm1=\"15\" ppm2=\"15\"/>\\u000a          <ttc code=\"mdeltav\" delta=\"3\" point=\"sh04\" ppm1=\"15\" ppm2=\"15\"/>\\u000a          <ttc code=\"mdeltav\" delta=\"4\" point=\"mv05\" ppm1=\"15\" ppm2=\"15\"/>\\u000a          <ttc code=\"singlev\" point1=\"ab01\" point2=\"sv02\" stem=\"eq Y: 162\"/>\\u000a        </ttProgram>\\u000a      </data>
p15
g4
tp16
Rp17
Ntp18
s."
EndChar
StartChar: b
Encoding: 130 98 130
GlifName: b
Width: 1300
VWidth: 0
Flags: W
LayerCount: 2
Fore
SplineSet
500 212 m 257
NamedP: "sh03"
 529 207 529 207 562 203.5 c 128
 595 200 595 200 625 200 c 257
NamedP: "sv01"
 688 200 688 200 728.5 237.5 c 128
 769 275 769 275 792.5 333.5 c 128
 816 392 816 392 825.5 462.5 c 128
 835 533 835 533 835 598 c 257
NamedP: "ah01"
 835 680 835 680 823 737.5 c 128
 811 795 811 795 791.5 831 c 128
 772 867 772 867 745.5 883.5 c 128
 719 900 719 900 691 900 c 257
NamedP: "sv02"
 630 900 630 900 584 879 c 128
 538 858 538 858 500 826 c 257
 500 212 l 257
NamedP: "sh03"
173 1398 m 257
NamedP: "sh01"
 151 1601 l 257
 500 1632 l 257
NamedP: "sh02"
 500 974 l 257
NamedP: "iv01"
 597 1096 l 257
 626 1104 626 1104 658.5 1110.5 c 128
 691 1117 691 1117 719 1117 c 257
NamedP: "at01"
 810 1117 810 1117 891 1082.5 c 128
 972 1048 972 1048 1032 981.5 c 128
 1092 915 1092 915 1127 817 c 128
 1162 719 1162 719 1162 593 c 257
NamedP: "sh04"
 1162 456 1162 456 1121 343.5 c 128
 1080 231 1080 231 1007.5 151 c 128
 935 71 935 71 834.5 27.5 c 128
 734 -16 734 -16 616 -16 c 257
NamedP: "ab01"
 553 -16 553 -16 487 -9.5 c 128
 421 -3 421 -3 361.5 7 c 128
 302 17 302 17 252.5 29.5 c 128
 203 42 203 42 173 54 c 257
 173 1398 l 257
NamedP: "sh01"
EndSplineSet
PickledDataWithLists: "(dp0
Vcom.adobe.type.autohint
p1
(c_codecs
encode
p2
(Vdata
p3
Vlatin1
p4
tp5
Rp6
g2
(V<data>\\u000a        <hintSetList>\\u000a          <hintset pointTag=\"sh03\">\\u000a            <hstem pos=\"-16\" width=\"216\"/>\\u000a            <hstem pos=\"900\" width=\"217\"/>\\u000a            <hstem pos=\"1632\" width=\"-20\"/>\\u000a            <vstem pos=\"173\" width=\"327\"/>\\u000a            <vstem pos=\"835\" width=\"327\"/>\\u000a          </hintset>\\u000a        </hintSetList>\\u000a      </data>
p7
g4
tp8
Rp9
Ntp10
sVcom.fontlab.ttprogram
p11
(g2
(Vdata
p12
g4
tp13
Rp14
g2
(V<data>\\u000a        <ttProgram>\\u000a          <ttc align=\"round\" code=\"alignh\" point=\"lsb\"/>\\u000a          <ttc align=\"round\" code=\"alignh\" point=\"ah01\"/>\\u000a          <ttc code=\"singleh\" point1=\"lsb\" point2=\"sh01\" round=\"true\"/>\\u000a          <ttc code=\"singleh\" point1=\"sh01\" point2=\"sh02\" stem=\"eq X: 190\"/>\\u000a          <ttc code=\"singleh\" point1=\"sh02\" point2=\"sh03\"/>\\u000a          <ttc code=\"singleh\" point1=\"ah01\" point2=\"sh04\" stem=\"eq X: 190\"/>\\u000a          <ttc code=\"singleh\" point1=\"sh04\" point2=\"rsb\" round=\"true\"/>\\u000a          <ttc align=\"round\" code=\"alignv\" point=\"sh02\"/>\\u000a          <ttc code=\"alignt\" point=\"at01\" zone=\"t: x\"/>\\u000a          <ttc code=\"alignb\" point=\"ab01\" zone=\"b: 0\"/>\\u000a          <ttc code=\"singlev\" point1=\"ab01\" point2=\"sv01\" stem=\"eq Y: 162\"/>\\u000a          <ttc code=\"singlev\" point1=\"at01\" point2=\"sv02\" stem=\"eq Y: 162\"/>\\u000a          <ttc code=\"interpolatev\" point=\"iv01\" point1=\"sv02\" point2=\"at01\"/>\\u000a        </ttProgram>\\u000a      </data>
p15
g4
tp16
Rp17
Ntp18
s."
EndChar
StartChar: c
Encoding: 164 99 164
GlifName: c
Width: 1300
VWidth: 0
Flags: W
LayerCount: 2
Fore
SplineSet
968 772 m 257
NamedP: "hr00"
 920 829 920 829 861.5 855 c 128
 803 881 803 881 727 881 c 257
NamedP: "sv01"
 666 881 666 881 613 854.5 c 128
 560 828 560 828 520.5 783 c 128
 481 738 481 738 458.5 678.5 c 128
 436 619 436 619 436 553 c 257
NamedP: "sh02"
 436 484 436 484 459.5 425.5 c 128
 483 367 483 367 523 325 c 128
 563 283 563 283 615.5 259.5 c 128
 668 236 668 236 727 236 c 257
NamedP: "sv02"
 779 236 779 236 821.5 245.5 c 128
 864 255 864 255 897.5 271.5 c 128
 931 288 931 288 956.5 309 c 128
 982 330 982 330 1000 353 c 257
 1124 137 l 257
 1106 121 1106 121 1070.5 95 c 128
 1035 69 1035 69 982 44 c 128
 929 19 929 19 857 1 c 128
 785 -17 785 -17 694 -17 c 257
NamedP: "ab01"
 561 -17 561 -17 452.5 31 c 128
 344 79 344 79 267 159 c 128
 190 239 190 239 148 344.5 c 128
 106 450 106 450 106 565 c 257
NamedP: "sh01"
 106 669 106 669 146.5 768.5 c 128
 187 868 187 868 263.5 945.5 c 128
 340 1023 340 1023 450 1070 c 128
 560 1117 560 1117 698 1117 c 257
NamedP: "at01"
 833 1117 833 1117 942.5 1079.5 c 128
 1052 1042 1052 1042 1130 957 c 257
 968 772 l 257
NamedP: "hr00"
EndSplineSet
PickledDataWithLists: "(dp0
Vcom.adobe.type.autohint
p1
(c_codecs
encode
p2
(Vdata
p3
Vlatin1
p4
tp5
Rp6
g2
(V<data>\\u000a        <hintSetList>\\u000a          <hintset pointTag=\"hr00\">\\u000a            <hstem pos=\"-17\" width=\"253\"/>\\u000a            <hstem pos=\"881\" width=\"236\"/>\\u000a            <vstem pos=\"106\" width=\"330\"/>\\u000a          </hintset>\\u000a        </hintSetList>\\u000a      </data>
p7
g4
tp8
Rp9
Ntp10
sVcom.fontlab.ttprogram
p11
(g2
(Vdata
p12
g4
tp13
Rp14
g2
(V<data>\\u000a        <ttProgram>\\u000a          <ttc align=\"round\" code=\"alignh\" point=\"lsb\"/>\\u000a          <ttc code=\"singleh\" point1=\"lsb\" point2=\"sh01\" round=\"true\"/>\\u000a          <ttc code=\"singleh\" point1=\"sh01\" point2=\"sh02\" stem=\"eq X: 199\"/>\\u000a          <ttc code=\"alignt\" point=\"at01\" zone=\"t: x\"/>\\u000a          <ttc code=\"alignb\" point=\"ab01\" zone=\"b: 0\"/>\\u000a          <ttc code=\"singlev\" point1=\"at01\" point2=\"sv01\" stem=\"eq Y: 162\"/>\\u000a          <ttc code=\"singlev\" point1=\"ab01\" point2=\"sv02\" stem=\"eq Y: 171\"/>\\u000a        </ttProgram>\\u000a      </data>
p15
g4
tp16
Rp17
Ntp18
s."
EndChar
StartChar: d
Encoding: 202 100 202
GlifName: d
Width: 1300
VWidth: 0
Flags: W
LayerCount: 2
Fore
SplineSet
800 900 m 257
 731 900 l 257
NamedP: "sv01"
 665 900 665 900 616 869 c 128
 567 838 567 838 535.5 785 c 128
 504 732 504 732 488.5 662 c 128
 473 592 473 592 473 515 c 257
NamedP: "sh02"
 473 441 473 441 485 383 c 128
 497 325 497 325 518 284 c 128
 539 243 539 243 568.5 221.5 c 128
 598 200 598 200 633 200 c 257
NamedP: "sv02"
 669 200 669 200 696 210.5 c 128
 723 221 723 221 743 237.5 c 128
 763 254 763 254 777 275 c 128
 791 296 791 296 800 316 c 257
NamedP: "sh03"
 800 900 l 257
800 0 m 257
NamedP: "ab02"
 800 162 l 257
NamedP: "ah01"
 675 -10 l 257
 667 -12 667 -12 660 -13.5 c 128
 653 -15 653 -15 643.5 -15.5 c 128
 634 -16 634 -16 620.5 -16.5 c 128
NamedP: "ab01"
 607 -17 607 -17 586 -17 c 257
 494 -17 494 -17 414 23.5 c 128
 334 64 334 64 275 137 c 128
 216 210 216 210 182 309.5 c 128
 148 409 148 409 148 528 c 257
NamedP: "sh01"
 148 647 148 647 189 751.5 c 128
 230 856 230 856 306 933.5 c 128
 382 1011 382 1011 489.5 1055.5 c 128
 597 1100 597 1100 730 1100 c 257
NamedP: "at01"
 800 1100 l 257
NamedP: "sh04"
 800 1632 l 257
NamedP: "av01"
 1126 1600 l 257
 1126 209 l 257
NamedP: "sh05"
 1148 0 l 257
 800 0 l 257
NamedP: "ab02"
EndSplineSet
PickledDataWithLists: "(dp0
Vcom.adobe.type.autohint
p1
(c_codecs
encode
p2
(Vdata
p3
Vlatin1
p4
tp5
Rp6
g2
(V<data>\\u000a        <hintSetList/>\\u000a      </data>
p7
g4
tp8
Rp9
Ntp10
sVcom.fontlab.ttprogram
p11
(g2
(Vdata
p12
g4
tp13
Rp14
g2
(V<data>\\u000a        <ttProgram>\\u000a          <ttc align=\"round\" code=\"alignh\" point=\"lsb\"/>\\u000a          <ttc align=\"round\" code=\"alignh\" point=\"ah01\"/>\\u000a          <ttc code=\"singleh\" point1=\"lsb\" point2=\"sh01\" round=\"true\"/>\\u000a          <ttc code=\"singleh\" point1=\"sh01\" point2=\"sh02\" stem=\"eq X: 190\"/>\\u000a          <ttc code=\"singleh\" point1=\"ah01\" point2=\"sh03\"/>\\u000a          <ttc code=\"singleh\" point1=\"ah01\" point2=\"sh04\"/>\\u000a          <ttc code=\"singleh\" point1=\"ah01\" point2=\"sh05\" stem=\"eq X: 190\"/>\\u000a          <ttc code=\"singleh\" point1=\"sh05\" point2=\"rsb\" round=\"true\"/>\\u000a          <ttc align=\"round\" code=\"alignv\" point=\"av01\"/>\\u000a          <ttc code=\"alignt\" point=\"at01\" zone=\"t: x\"/>\\u000a          <ttc code=\"alignb\" point=\"ab01\" zone=\"b: 0\"/>\\u000a          <ttc code=\"alignb\" point=\"ab02\" zone=\"b: 0\"/>\\u000a          <ttc code=\"singlev\" point1=\"at01\" point2=\"sv01\" stem=\"eq Y: 162\"/>\\u000a          <ttc code=\"singlev\" point1=\"ab01\" point2=\"sv02\" stem=\"eq Y: 162\"/>\\u000a        </ttProgram>\\u000a      </data>
p15
g4
tp16
Rp17
Ntp18
s."
EndChar
StartChar: f
Encoding: 245 102 245
GlifName: f
Width: 1300
VWidth: 0
Flags: W
LayerCount: 2
Fore
SplineSet
100 1100 m 257
NamedP: "dv01"
 320 1100 l 257
NamedP: "dh03"
 320 1207 l 257
NamedP: "sh01"
 320 1295 320 1295 357.5 1367 c 128
 395 1439 395 1439 459.5 1491 c 128
 524 1543 524 1543 610 1571.5 c 128
 696 1600 696 1600 794 1600 c 257
NamedP: "av01"
 858 1600 858 1600 913.5 1589.5 c 128
 969 1579 969 1579 1016 1562.5 c 128
 1063 1546 1063 1546 1101.5 1526 c 128
 1140 1506 1140 1506 1170 1486 c 257
 1037 1300 l 257
 1022 1310 1022 1310 999.5 1323 c 128
 977 1336 977 1336 949 1348 c 128
 921 1360 921 1360 889.5 1368 c 128
 858 1376 858 1376 824 1376 c 257
NamedP: "sv01"
 795 1376 795 1376 763 1364.5 c 128
 731 1353 731 1353 704 1330.5 c 128
 677 1308 677 1308 659.5 1274.5 c 128
 642 1241 642 1241 642 1198 c 257
NamedP: "sh02"
 642 1100 l 257
NamedP: "dh04"
 1063 1100 l 257
NamedP: "dv03"
 1036 876 l 257
NamedP: "dv04"
 647 876 l 257
NamedP: "dh02"
 647 0 l 257
NamedP: "ab01"
 320 0 l 257
 320 876 l 257
NamedP: "dh01"
 100 876 l 257
NamedP: "dv02"
 100 1100 l 257
NamedP: "dv01"
EndSplineSet
PickledDataWithLists: "(dp0
Vcom.adobe.type.autohint
p1
(c_codecs
encode
p2
(Vdata
p3
Vlatin1
p4
tp5
Rp6
g2
(V<data>\\u000a        <hintSetList>\\u000a          <hintset pointTag=\"dv01\">\\u000a            <hstem pos=\"21\" width=\"-21\"/>\\u000a            <hstem pos=\"876\" width=\"224\"/>\\u000a            <hstem pos=\"1376\" width=\"224\"/>\\u000a            <vstem pos=\"320\" width=\"327\"/>\\u000a          </hintset>\\u000a        </hintSetList>\\u000a      </data>
p7
g4
tp8
Rp9
Ntp10
sVcom.fontlab.ttprogram
p11
(g2
(Vdata
p12
g4
tp13
Rp14
g2
(V<data>\\u000a        <ttProgram>\\u000a          <ttc code=\"doubleh\" point1=\"dh01\" point2=\"dh02\" stem=\"eq X: 190\"/>\\u000a          <ttc code=\"doubleh\" point1=\"dh03\" point2=\"dh04\" stem=\"eq X: 190\"/>\\u000a          <ttc code=\"singleh\" point1=\"dh01\" point2=\"sh01\"/>\\u000a          <ttc code=\"singleh\" point1=\"dh02\" point2=\"sh02\"/>\\u000a          <ttc align=\"round\" code=\"alignv\" point=\"av01\"/>\\u000a          <ttc code=\"alignb\" point=\"ab01\" zone=\"b: 0\"/>\\u000a          <ttc code=\"doublev\" point1=\"dv01\" point2=\"dv02\" stem=\"eq Y: 162\"/>\\u000a          <ttc code=\"doublev\" point1=\"dv03\" point2=\"dv04\" stem=\"eq Y: 162\"/>\\u000a          <ttc code=\"singlev\" point1=\"av01\" point2=\"sv01\" stem=\"eq Y: 162\"/>\\u000a        </ttProgram>\\u000a      </data>
p15
g4
tp16
Rp17
Ntp18
sVcom.typemytype.robofont.guides
p19
(lp20
(dp21
Vangle
p22
I0
sVisGlobal
p23
I00
sVmagnetic
p24
I5
sVx
p25
I0
sVy
p26
I3298
sas."
EndChar
StartChar: g
Encoding: 264 103 264
GlifName: g
Width: 1300
VWidth: 0
Flags: W
LayerCount: 2
Fore
SplineSet
828 16 m 257
NamedP: "ah02"
 796 2 796 2 747.5 -7.5 c 128
 699 -17 699 -17 641 -17 c 257
NamedP: "ab02"
 574 -17 574 -17 509.5 3 c 128
 445 23 445 23 387.5 60 c 128
 330 97 330 97 282 148.5 c 128
 234 200 234 200 199 262.5 c 128
 164 325 164 325 144.5 396.5 c 128
 125 468 125 468 125 545 c 257
NamedP: "sh01"
 125 662 125 662 164 766 c 128
 203 870 203 870 276 948 c 128
 349 1026 349 1026 452 1071.5 c 128
 555 1117 555 1117 684 1117 c 257
NamedP: "at01"
 702 1117 702 1117 714 1116.5 c 128
 726 1116 726 1116 736 1114 c 257
 827 958 l 257
NamedP: "sh02"
 827 1120 l 257
NamedP: "at02"
 1153 1100 l 257
 1153 -41 l 257
NamedP: "sh03"
 1153 -140 1153 -140 1115 -226.5 c 128
 1077 -313 1077 -313 1007 -377.5 c 128
 937 -442 937 -442 837.5 -479.5 c 128
 738 -517 738 -517 614 -517 c 257
NamedP: "ab01"
 549 -517 549 -517 494.5 -506.5 c 128
 440 -496 440 -496 393 -476 c 128
 346 -456 346 -456 305 -426.5 c 128
 264 -397 264 -397 225 -359 c 257
 369 -192 l 257
 385 -206 385 -206 411 -223.5 c 128
NamedP: "sh05"
 437 -241 437 -241 468.5 -256.5 c 128
 500 -272 500 -272 535.5 -282.5 c 128
 571 -293 571 -293 605 -293 c 257
NamedP: "sv03"
 647 -293 647 -293 687.5 -272.5 c 128
 728 -252 728 -252 759 -216 c 128
 790 -180 790 -180 809 -131.5 c 128
 828 -83 828 -83 828 -27 c 257
NamedP: "ah01"
 828 16 l 257
NamedP: "ah02"
827 820 m 257
NamedP: "sh06"
 799 852 799 852 761.5 876 c 128
 724 900 724 900 679 900 c 257
NamedP: "sv02"
 619 900 619 900 576 864 c 128
 533 828 533 828 505.5 773.5 c 128
 478 719 478 719 465 655 c 128
 452 591 452 591 452 534 c 257
NamedP: "sh04"
 452 463 452 463 470 402 c 128
 488 341 488 341 517 296 c 128
 546 251 546 251 582.5 225.5 c 128
 619 200 619 200 656 200 c 257
NamedP: "sv01"
 715 200 715 200 755 225 c 128
 795 250 795 250 827 287 c 257
 827 820 l 257
NamedP: "sh06"
EndSplineSet
PickledDataWithLists: "(dp0
Vcom.adobe.type.autohint
p1
(c_codecs
encode
p2
(Vdata
p3
Vlatin1
p4
tp5
Rp6
g2
(V<data>\\u000a        <hintSetList>\\u000a          <hintset pointTag=\"sv02\">\\u000a            <hstem pos=\"-517\" width=\"224\"/>\\u000a            <hstem pos=\"-17\" width=\"217\"/>\\u000a            <hstem pos=\"900\" width=\"217\"/>\\u000a            <vstem pos=\"125\" width=\"327\"/>\\u000a            <vstem pos=\"827\" width=\"326\"/>\\u000a          </hintset>\\u000a        </hintSetList>\\u000a      </data>
p7
g4
tp8
Rp9
Ntp10
sVcom.fontlab.ttprogram
p11
(g2
(Vdata
p12
g4
tp13
Rp14
g2
(V<data>\\u000a        <ttProgram>\\u000a          <ttc align=\"round\" code=\"alignh\" point=\"lsb\"/>\\u000a          <ttc align=\"round\" code=\"alignh\" point=\"ah01\"/>\\u000a          <ttc align=\"round\" code=\"alignh\" point=\"ah02\"/>\\u000a          <ttc code=\"singleh\" point1=\"lsb\" point2=\"sh01\" round=\"true\"/>\\u000a          <ttc code=\"singleh\" point1=\"ah02\" point2=\"sh02\"/>\\u000a          <ttc code=\"singleh\" point1=\"ah01\" point2=\"sh03\" stem=\"eq X: 190\"/>\\u000a          <ttc code=\"singleh\" point1=\"sh01\" point2=\"sh04\" stem=\"eq X: 190\"/>\\u000a          <ttc code=\"singleh\" point1=\"sh04\" point2=\"sh05\" round=\"true\"/>\\u000a          <ttc code=\"singleh\" point1=\"ah02\" point2=\"sh06\"/>\\u000a          <ttc code=\"singleh\" point1=\"sh03\" point2=\"rsb\" round=\"true\"/>\\u000a          <ttc code=\"alignt\" point=\"at01\" zone=\"t: x\"/>\\u000a          <ttc code=\"alignt\" point=\"at02\" zone=\"t: x\"/>\\u000a          <ttc code=\"alignb\" point=\"ab01\" zone=\"b: -500\"/>\\u000a          <ttc code=\"alignb\" point=\"ab02\" zone=\"b: 0\"/>\\u000a          <ttc code=\"singlev\" point1=\"ab02\" point2=\"sv01\" stem=\"eq Y: 162\"/>\\u000a          <ttc code=\"interpolatev\" point=\"ah02\" point1=\"ab02\" point2=\"sv01\"/>\\u000a          <ttc code=\"singlev\" point1=\"at01\" point2=\"sv02\" stem=\"eq Y: 162\"/>\\u000a          <ttc code=\"interpolatev\" point=\"sh02\" point1=\"at01\" point2=\"sv02\"/>\\u000a          <ttc code=\"singlev\" point1=\"ab01\" point2=\"sv03\" stem=\"eq Y: 162\"/>\\u000a        </ttProgram>\\u000a      </data>
p15
g4
tp16
Rp17
Ntp18
s."
EndChar
StartChar: h
Encoding: 275 104 275
GlifName: h
Width: 1300
VWidth: 0
Flags: W
LayerCount: 2
Fore
SplineSet
461 0 m 257,0,-1
NamedP: "sh02"
 144 0 l 257,1,-1
NamedP: "sh01"
 144 1339 l 257,2,-1
 122 1568 l 257,3,-1
 461 1600 l 257,4,-1
NamedP: "sh03"
 461 1000 l 257,5,-1
NamedP: "iv01"
 538 1100 l 257,6,7
NamedP: "ah02"
 583 1110 583 1110 634 1113 c 128,-1,8
 685 1116 685 1116 749 1116 c 257,9,10
NamedP: "at01"
 927 1116 927 1116 1019.5 1014 c 128,-1,11
 1112 912 1112 912 1112 718 c 257,12,-1
 1112 0 l 257,13,-1
NamedP: "sh04"
 786 0 l 257,14,-1
NamedP: "ah01"
 786 698 l 257,15,16
 786 750 786 750 774 787 c 128,-1,17
 762 824 762 824 743.5 847.5 c 128,-1,18
 725 871 725 871 701.5 881.5 c 128,-1,19
 678 892 678 892 656 892 c 257,20,21
NamedP: "ih01"
 614 892 614 892 584 884.5 c 128,-1,22
 554 877 554 877 532 865 c 128,-1,23
 510 853 510 853 493.5 838 c 128,-1,24
 477 823 477 823 461 808 c 257,25,-1
 461 0 l 257,0,-1
NamedP: "sh02"
EndSplineSet
PickledDataWithLists: "(dp0
Vcom.adobe.type.autohint
p1
(c_codecs
encode
p2
(Vdata
p3
Vlatin1
p4
tp5
Rp6
g2
(V<data>\\u000a        <hintSetList>\\u000a          <hintset pointTag=\"sh02\">\\u000a            <hstem pos=\"21\" width=\"-21\"/>\\u000a            <hstem pos=\"892\" width=\"224\"/>\\u000a            <hstem pos=\"1600\" width=\"-20\"/>\\u000a            <vstem pos=\"144\" width=\"317\"/>\\u000a            <vstem pos=\"786\" width=\"326\"/>\\u000a          </hintset>\\u000a        </hintSetList>\\u000a      </data>
p7
g4
tp8
Rp9
Ntp10
sVcom.fontlab.ttprogram
p11
(g2
(Vdata
p12
g4
tp13
Rp14
g2
(V<data>\\u000a        <ttProgram>\\u000a          <ttc align=\"round\" code=\"alignh\" point=\"ah01\"/>\\u000a          <ttc align=\"round\" code=\"alignh\" point=\"lsb\"/>\\u000a          <ttc align=\"round\" code=\"alignh\" point=\"ah02\"/>\\u000a          <ttc code=\"singleh\" point1=\"lsb\" point2=\"sh01\" round=\"true\"/>\\u000a          <ttc code=\"singleh\" point1=\"sh01\" point2=\"sh02\" stem=\"eq X: 190\"/>\\u000a          <ttc code=\"singleh\" point1=\"sh02\" point2=\"sh03\"/>\\u000a          <ttc code=\"singleh\" point1=\"ah01\" point2=\"sh04\" stem=\"eq X: 199\"/>\\u000a          <ttc code=\"interpolateh\" point=\"ih01\" point1=\"sh02\" point2=\"ah01\"/>\\u000a          <ttc code=\"singleh\" point1=\"sh04\" point2=\"rsb\" round=\"true\"/>\\u000a          <ttc align=\"round\" code=\"alignv\" point=\"sh03\"/>\\u000a          <ttc code=\"alignt\" point=\"at01\" zone=\"t: x\"/>\\u000a          <ttc code=\"alignb\" point=\"ah01\" zone=\"b: 0\"/>\\u000a          <ttc code=\"alignb\" point=\"sh02\" zone=\"b: 0\"/>\\u000a          <ttc code=\"interpolatev\" point=\"iv01\" point1=\"sh03\" point2=\"sh02\"/>\\u000a          <ttc code=\"singlev\" point1=\"at01\" point2=\"ih01\" stem=\"eq Y: 162\"/>\\u000a        </ttProgram>\\u000a      </data>
p15
g4
tp16
Rp17
Ntp18
s."
EndChar
StartChar: j
Encoding: 298 106 298
GlifName: j
Width: 1300
VWidth: 0
Flags: W
LayerCount: 2
Fore
SplineSet
593 1501 m 257
NamedP: "sh01"
 930 1501 l 257
NamedP: "sh02"
 930 1240 l 257
NamedP: "sv01"
 593 1240 l 257
 593 1501 l 257
NamedP: "sh01"
668 916 m 257
NamedP: "ah01"
 498 876 l 257
 323 876 l 257
 295 1100 l 257
NamedP: "ah02"
 925 1100 l 257
 925 -68 l 257
NamedP: "dh02"
 925 -159 925 -159 898.5 -240.5 c 128
 872 -322 872 -322 817.5 -383.5 c 128
 763 -445 763 -445 679.5 -481 c 128
 596 -517 596 -517 481 -517 c 257
NamedP: "ab01"
 410 -517 410 -517 360 -503 c 128
 310 -489 310 -489 275.5 -470.5 c 128
 241 -452 241 -452 219.5 -432.5 c 128
 198 -413 198 -413 185 -402 c 257
NamedP: "ah03"
 244 -170 l 257
NamedP: "av02"
 296 -220 296 -220 346 -242 c 128
 396 -264 396 -264 462 -264 c 257
NamedP: "av01"
 492 -264 492 -264 517 -250 c 128
 542 -236 542 -236 560 -211.5 c 128
 578 -187 578 -187 588 -152.5 c 128
 598 -118 598 -118 598 -77 c 257
NamedP: "dh01"
 598 826 l 257
 668 916 l 257
NamedP: "ah01"
EndSplineSet
PickledDataWithLists: "(dp0
Vcom.adobe.type.autohint
p1
(c_codecs
encode
p2
(Vdata
p3
Vlatin1
p4
tp5
Rp6
g2
(V<data>\\u000a        <hintSetList>\\u000a          <hintset pointTag=\"sh01\">\\u000a            <hstem pos=\"-517\" width=\"253\"/>\\u000a            <hstem pos=\"876\" width=\"224\"/>\\u000a            <hstem pos=\"1240\" width=\"261\"/>\\u000a            <vstem pos=\"598\" width=\"327\"/>\\u000a          </hintset>\\u000a        </hintSetList>\\u000a      </data>
p7
g4
tp8
Rp9
Ntp10
sVcom.fontlab.ttprogram
p11
(g2
(Vdata
p12
g4
tp13
Rp14
g2
(V<data>\\u000a        <ttProgram>\\u000a          <ttc align=\"round\" code=\"alignh\" point=\"ah01\"/>\\u000a          <ttc align=\"round\" code=\"alignh\" point=\"ah02\"/>\\u000a          <ttc align=\"round\" code=\"alignh\" point=\"ah03\"/>\\u000a          <ttc code=\"doubleh\" point1=\"dh01\" point2=\"dh02\" stem=\"eq X: 190\"/>\\u000a          <ttc code=\"singleh\" point1=\"dh01\" point2=\"sh01\"/>\\u000a          <ttc code=\"singleh\" point1=\"dh02\" point2=\"sh02\"/>\\u000a          <ttc align=\"round\" code=\"alignv\" point=\"ah01\"/>\\u000a          <ttc align=\"round\" code=\"alignv\" point=\"av01\"/>\\u000a          <ttc align=\"round\" code=\"alignv\" point=\"av02\"/>\\u000a          <ttc code=\"alignt\" point=\"sh01\" zone=\"t: 1\"/>\\u000a          <ttc code=\"alignb\" point=\"ab01\" zone=\"b: -500\"/>\\u000a          <ttc code=\"singlev\" point1=\"sh01\" point2=\"sv01\"/>\\u000a          <ttc code=\"singlev\" point1=\"av02\" point2=\"ah03\" stem=\"eq Y: 162\"/>\\u000a        </ttProgram>\\u000a      </data>
p15
g4
tp16
Rp17
Ntp18
s."
EndChar
StartChar: l
Encoding: 301 108 301
GlifName: l
Width: 1300
VWidth: 0
Flags: W
LayerCount: 2
Fore
SplineSet
493 1382 m 257
NamedP: "ah01"
 323 1342 l 257
 147 1342 l 257
 120 1566 l 257
NamedP: "ah02"
 740 1566 l 257
NamedP: "sh01"
 740 388 l 257
NamedP: "dh02"
 740 337 740 337 750 302.5 c 128
 760 268 760 268 776.5 247 c 128
 793 226 793 226 814 217 c 128
 835 208 835 208 856 208 c 257
NamedP: "av01"
 884 208 884 208 907.5 216.5 c 128
 931 225 931 225 951 238 c 128
 971 251 971 251 987.5 267.5 c 128
 1004 284 1004 284 1017 300 c 257
NamedP: "av02"
 1125 107 l 257
NamedP: "ah03"
 1114 98 1114 98 1094 77.5 c 128
 1074 57 1074 57 1040.5 36 c 128
 1007 15 1007 15 957.5 -1 c 128
 908 -17 908 -17 838 -17 c 257
NamedP: "ab01"
 730 -17 730 -17 652 17 c 128
 574 51 574 51 523 109 c 128
 472 167 472 167 447.5 245 c 128
 423 323 423 323 423 410 c 257
NamedP: "dh01"
 423 1292 l 257
NamedP: "sh02"
 493 1382 l 257
NamedP: "ah01"
EndSplineSet
PickledDataWithLists: "(dp0
Vcom.adobe.type.autohint
p1
(c_codecs
encode
p2
(Vdata
p3
Vlatin1
p4
tp5
Rp6
g2
(V<data>\\u000a        <hintSetList>\\u000a          <hintset pointTag=\"ah01\">\\u000a            <hstem pos=\"-17\" width=\"225\"/>\\u000a            <hstem pos=\"1342\" width=\"224\"/>\\u000a            <vstem pos=\"423\" width=\"317\"/>\\u000a          </hintset>\\u000a        </hintSetList>\\u000a      </data>
p7
g4
tp8
Rp9
Ntp10
sVcom.fontlab.ttprogram
p11
(g2
(Vdata
p12
g4
tp13
Rp14
g2
(V<data>\\u000a        <ttProgram>\\u000a          <ttc align=\"round\" code=\"alignh\" point=\"ah01\"/>\\u000a          <ttc align=\"round\" code=\"alignh\" point=\"ah02\"/>\\u000a          <ttc align=\"round\" code=\"alignh\" point=\"ah03\"/>\\u000a          <ttc code=\"doubleh\" point1=\"dh01\" point2=\"dh02\" stem=\"eq X: 190\"/>\\u000a          <ttc code=\"singleh\" point1=\"dh02\" point2=\"sh01\"/>\\u000a          <ttc code=\"singleh\" point1=\"dh01\" point2=\"sh02\"/>\\u000a          <ttc align=\"round\" code=\"alignv\" point=\"sh01\"/>\\u000a          <ttc align=\"round\" code=\"alignv\" point=\"ah02\"/>\\u000a          <ttc align=\"round\" code=\"alignv\" point=\"av01\"/>\\u000a          <ttc align=\"round\" code=\"alignv\" point=\"av02\"/>\\u000a          <ttc code=\"alignb\" point=\"ab01\" zone=\"b: 0\"/>\\u000a          <ttc code=\"singlev\" point1=\"av02\" point2=\"ah03\" stem=\"eq Y: 162\"/>\\u000a        </ttProgram>\\u000a      </data>
p15
g4
tp16
Rp17
Ntp18
s."
EndChar
StartChar: n
Encoding: 326 110 326
GlifName: n
Width: 1300
VWidth: 0
Flags: W
LayerCount: 2
Fore
SplineSet
461 0 m 257
NamedP: "sh02"
 144 0 l 257
NamedP: "sh01"
 144 1100 l 257
 461 1120 l 257
NamedP: "sh03"
 461 1000 l 257
NamedP: "ih01"
 538 1100 l 257
 576 1110 576 1110 619.5 1113.5 c 128
 663 1117 663 1117 721 1117 c 257
NamedP: "at01"
 812 1117 812 1117 885 1090 c 128
 958 1063 958 1063 1008.5 1013.5 c 128
 1059 964 1059 964 1086 893.5 c 128
 1113 823 1113 823 1113 736 c 257
 1113 0 l 257
NamedP: "sh04"
 796 0 l 257
NamedP: "ah01"
 796 736 l 257
 796 777 796 777 783.5 806.5 c 128
 771 836 771 836 751 855 c 128
 731 874 731 874 705 883 c 128
 679 892 679 892 651 892 c 257
NamedP: "sv01"
 588 892 588 892 544.5 871.5 c 128
 501 851 501 851 461 808 c 257
 461 0 l 257
NamedP: "sh02"
EndSplineSet
PickledDataWithLists: "(dp0
Vcom.adobe.type.autohint
p1
(c_codecs
encode
p2
(Vdata
p3
Vlatin1
p4
tp5
Rp6
g2
(V<data>\\u000a        <hintSetList>\\u000a          <hintset pointTag=\"sh03\">\\u000a            <hstem pos=\"21\" width=\"-21\"/>\\u000a            <hstem pos=\"1121\" width=\"-20\"/>\\u000a            <vstem pos=\"144\" width=\"317\"/>\\u000a            <vstem pos=\"796\" width=\"317\"/>\\u000a          </hintset>\\u000a        </hintSetList>\\u000a      </data>
p7
g4
tp8
Rp9
Ntp10
sVcom.fontlab.ttprogram
p11
(g2
(Vdata
p12
g4
tp13
Rp14
g2
(V<data>\\u000a        <ttProgram>\\u000a          <ttc align=\"round\" code=\"alignh\" point=\"ah01\"/>\\u000a          <ttc align=\"round\" code=\"alignh\" point=\"lsb\"/>\\u000a          <ttc code=\"singleh\" point1=\"lsb\" point2=\"sh01\" round=\"true\"/>\\u000a          <ttc code=\"singleh\" point1=\"sh01\" point2=\"sh02\" stem=\"eq X: 199\"/>\\u000a          <ttc code=\"singleh\" point1=\"sh02\" point2=\"sh03\"/>\\u000a          <ttc code=\"singleh\" point1=\"ah01\" point2=\"sh04\" stem=\"eq X: 199\"/>\\u000a          <ttc code=\"interpolateh\" point=\"ih01\" point1=\"sh01\" point2=\"sh04\"/>\\u000a          <ttc code=\"singleh\" point1=\"sh04\" point2=\"rsb\" round=\"true\"/>\\u000a          <ttc code=\"alignt\" point=\"sh03\" zone=\"t: x\"/>\\u000a          <ttc code=\"alignt\" point=\"at01\" zone=\"t: x\"/>\\u000a          <ttc code=\"alignb\" point=\"sh02\" zone=\"b: 0\"/>\\u000a          <ttc code=\"alignb\" point=\"sh04\" zone=\"b: 0\"/>\\u000a          <ttc code=\"interpolatev\" point=\"ih01\" point1=\"sh03\" point2=\"sh02\"/>\\u000a          <ttc code=\"singlev\" point1=\"at01\" point2=\"sv01\" stem=\"eq Y: 162\"/>\\u000a        </ttProgram>\\u000a      </data>
p15
g4
tp16
Rp17
Ntp18
sVcom.typemytype.robofont.guides
p19
(lp20
(dp21
Vangle
p22
I0
sVisGlobal
p23
I00
sVmagnetic
p24
I5
sVx
p25
I0
sVy
p26
I2000
sas."
EndChar
StartChar: p
Encoding: 360 112 360
GlifName: p
Width: 1300
VWidth: 0
Flags: W
LayerCount: 2
Fore
SplineSet
476 200 m 257,0,-1
NamedP: "sh03"
 554 200 l 257,1,2
NamedP: "sv01"
 621 200 621 200 680.5 229.5 c 128,-1,3
 740 259 740 259 784 310 c 128,-1,4
 828 361 828 361 854 429.5 c 128,-1,5
 880 498 880 498 880 576 c 257,6,7
NamedP: "ah01"
 880 657 880 657 863 718 c 128,-1,8
 846 779 846 779 817 819.5 c 128,-1,9
 788 860 788 860 748 880 c 128,-1,10
 708 900 708 900 663 900 c 257,11,12
NamedP: "sv02"
 636 900 636 900 609.5 892 c 128,-1,13
 583 884 583 884 559 871.5 c 128,-1,14
 535 859 535 859 514 843 c 128,-1,15
 493 827 493 827 476 811 c 257,16,-1
 476 200 l 257,0,-1
NamedP: "sh03"
150 -500 m 257,17,-1
NamedP: "sh01"
 150 1100 l 257,18,-1
 476 1120 l 257,19,-1
NamedP: "sh04"
 476 944 l 257,20,-1
NamedP: "ih01"
 600 1110 l 257,21,22
 621 1113 621 1113 643.5 1115 c 128,-1,23
 666 1117 666 1117 690 1117 c 257,24,25
NamedP: "at01"
 783 1117 783 1117 870.5 1078 c 128,-1,26
 958 1039 958 1039 1026.5 966.5 c 128,-1,27
 1095 894 1095 894 1136.5 792 c 128,-1,28
 1178 690 1178 690 1178 564 c 257,29,30
NamedP: "sh05"
 1178 441 1178 441 1129.5 337.5 c 128,-1,31
 1081 234 1081 234 995 159 c 128,-1,32
 909 84 909 84 791.5 42 c 128,-1,33
 674 0 674 0 537 0 c 257,34,-1
NamedP: "ab01"
 476 0 l 257,35,-1
 476 -500 l 257,36,-1
NamedP: "sh02"
 150 -500 l 257,17,-1
NamedP: "sh01"
EndSplineSet
PickledDataWithLists: "(dp0
Vcom.adobe.type.autohint
p1
(c_codecs
encode
p2
(Vdata
p3
Vlatin1
p4
tp5
Rp6
g2
(V<data>\\u000a        <hintSetList/>\\u000a      </data>
p7
g4
tp8
Rp9
Ntp10
sVcom.fontlab.ttprogram
p11
(g2
(Vdata
p12
g4
tp13
Rp14
g2
(V<data>\\u000a        <ttProgram>\\u000a          <ttc align=\"round\" code=\"alignh\" point=\"lsb\"/>\\u000a          <ttc align=\"round\" code=\"alignh\" point=\"ah01\"/>\\u000a          <ttc code=\"singleh\" point1=\"lsb\" point2=\"sh01\" round=\"true\"/>\\u000a          <ttc code=\"singleh\" point1=\"sh01\" point2=\"sh02\" stem=\"eq X: 190\"/>\\u000a          <ttc code=\"singleh\" point1=\"sh02\" point2=\"sh03\"/>\\u000a          <ttc code=\"singleh\" point1=\"sh02\" point2=\"sh04\"/>\\u000a          <ttc code=\"singleh\" point1=\"ah01\" point2=\"sh05\" stem=\"eq X: 190\"/>\\u000a          <ttc code=\"interpolateh\" point=\"ih01\" point1=\"sh01\" point2=\"sh05\"/>\\u000a          <ttc code=\"alignt\" point=\"at01\" zone=\"t: x\"/>\\u000a          <ttc code=\"alignt\" point=\"sh04\" zone=\"t: x\"/>\\u000a          <ttc code=\"alignb\" point=\"ab01\" zone=\"b: 0\"/>\\u000a          <ttc code=\"alignb\" point=\"sh01\" zone=\"b: -500\"/>\\u000a          <ttc code=\"singlev\" point1=\"ab01\" point2=\"sv01\" stem=\"eq Y: 162\"/>\\u000a          <ttc code=\"singlev\" point1=\"at01\" point2=\"sv02\" stem=\"eq Y: 162\"/>\\u000a          <ttc code=\"interpolatev\" point=\"ih01\" point1=\"sh04\" point2=\"sh01\"/>\\u000a        </ttProgram>\\u000a      </data>
p15
g4
tp16
Rp17
Ntp18
s."
EndChar
StartChar: q
Encoding: 392 113 392
GlifName: q
Width: 1300
VWidth: 0
Flags: W
LayerCount: 2
Fore
SplineSet
819 891 m 257,0,1
NamedP: "ah01"
 789 895 789 895 760.5 897.5 c 128,-1,2
 732 900 732 900 694 900 c 257,3,4
NamedP: "sv01"
 631 900 631 900 583.5 865.5 c 128,-1,5
 536 831 536 831 503.5 777 c 128,-1,6
 471 723 471 723 454.5 656.5 c 128,-1,7
 438 590 438 590 438 526 c 257,8,9
NamedP: "sh02"
 438 442 438 442 456 381 c 128,-1,10
 474 320 474 320 503.5 279.5 c 128,-1,11
 533 239 533 239 571 219.5 c 128,-1,12
 609 200 609 200 648 200 c 257,13,14
NamedP: "sv02"
 684 200 684 200 710 205.5 c 128,-1,15
 736 211 736 211 755.5 221.5 c 128,-1,16
 775 232 775 232 789.5 246 c 128,-1,17
 804 260 804 260 819 278 c 257,18,-1
 819 891 l 257,0,1
NamedP: "ah01"
819 136 m 257,19,-1
NamedP: "sh03"
 702 -8 l 257,20,21
 654 -17 654 -17 610 -17 c 257,22,23
NamedP: "ab01"
 518 -17 518 -17 429.5 20.5 c 128,-1,24
 341 58 341 58 271.5 128 c 128,-1,25
 202 198 202 198 159.5 299 c 128,-1,26
 117 400 117 400 117 526 c 257,27,28
NamedP: "sh01"
 117 663 117 663 163 772.5 c 128,-1,29
 209 882 209 882 288.5 958.5 c 128,-1,30
 368 1035 368 1035 473.5 1076 c 128,-1,31
 579 1117 579 1117 698 1117 c 257,32,33
NamedP: "at01"
 762 1117 762 1117 830 1108 c 128,-1,34
 898 1099 898 1099 959.5 1086.5 c 128,-1,35
 1021 1074 1021 1074 1070 1060.5 c 128,-1,36
 1119 1047 1119 1047 1145 1038 c 257,37,-1
NamedP: "sh04"
 1145 -500 l 257,38,-1
NamedP: "ab02"
 819 -500 l 257,39,-1
NamedP: "sh05"
 819 136 l 257,19,-1
NamedP: "sh03"
EndSplineSet
PickledDataWithLists: "(dp0
Vcom.adobe.type.autohint
p1
(c_codecs
encode
p2
(Vdata
p3
Vlatin1
p4
tp5
Rp6
g2
(V<data>\\u000a        <hintSetList>\\u000a          <hintset pointTag=\"ah01\">\\u000a            <hstem pos=\"-479\" width=\"-21\"/>\\u000a            <hstem pos=\"-17\" width=\"217\"/>\\u000a            <hstem pos=\"900\" width=\"217\"/>\\u000a            <vstem pos=\"117\" width=\"321\"/>\\u000a            <vstem pos=\"819\" width=\"326\"/>\\u000a          </hintset>\\u000a        </hintSetList>\\u000a      </data>
p7
g4
tp8
Rp9
Ntp10
sVcom.fontlab.ttprogram
p11
(g2
(Vdata
p12
g4
tp13
Rp14
g2
(V<data>\\u000a        <ttProgram>\\u000a          <ttc align=\"round\" code=\"alignh\" point=\"lsb\"/>\\u000a          <ttc align=\"round\" code=\"alignh\" point=\"ah01\"/>\\u000a          <ttc code=\"singleh\" point1=\"lsb\" point2=\"sh01\" round=\"true\"/>\\u000a          <ttc code=\"singleh\" point1=\"sh01\" point2=\"sh02\" stem=\"eq X: 190\"/>\\u000a          <ttc code=\"singleh\" point1=\"ah01\" point2=\"sh03\"/>\\u000a          <ttc code=\"singleh\" point1=\"ah01\" point2=\"sh04\" stem=\"eq X: 190\"/>\\u000a          <ttc code=\"singleh\" point1=\"ah01\" point2=\"sh05\"/>\\u000a          <ttc align=\"round\" code=\"alignv\" point=\"sh04\"/>\\u000a          <ttc code=\"alignt\" point=\"at01\" zone=\"t: x\"/>\\u000a          <ttc code=\"alignb\" point=\"ab01\" zone=\"b: 0\"/>\\u000a          <ttc code=\"alignb\" point=\"ab02\" zone=\"b: -500\"/>\\u000a          <ttc code=\"singlev\" point1=\"at01\" point2=\"sv01\" stem=\"eq Y: 162\"/>\\u000a          <ttc code=\"singlev\" point1=\"ab01\" point2=\"sv02\" stem=\"eq Y: 162\"/>\\u000a          <ttc code=\"interpolatev\" point=\"sh03\" point1=\"sv02\" point2=\"ab01\"/>\\u000a        </ttProgram>\\u000a      </data>
p15
g4
tp16
Rp17
Ntp18
s."
EndChar
StartChar: r
Encoding: 404 114 404
GlifName: r
Width: 1300
VWidth: 0
Flags: W
LayerCount: 2
Fore
SplineSet
462 1000 m 257
NamedP: "iv01"
 539 1100 l 257
 593 1115 593 1115 643 1116 c 128
 693 1117 693 1117 741 1117 c 257
NamedP: "at01"
 822 1117 822 1117 882 1108 c 128
 942 1099 942 1099 985.5 1085.5 c 128
 1029 1072 1029 1072 1057 1057.5 c 128
 1085 1043 1085 1043 1102 1032 c 257
 1152 735 l 257
NamedP: "dh04"
 872 700 l 257
NamedP: "dh03"
 823 876 l 257
NamedP: "ih01"
 803 879 803 879 783 882 c 128
 763 885 763 885 743 885 c 257
NamedP: "sv01"
 646 885 646 885 577 849.5 c 128
 508 814 508 814 462 750 c 257
 462 0 l 257
NamedP: "dh02"
 145 0 l 257
NamedP: "dh01"
 145 1100 l 257
 462 1120 l 257
NamedP: "sh01"
 462 1000 l 257
NamedP: "iv01"
EndSplineSet
PickledDataWithLists: "(dp0
Vcom.adobe.type.autohint
p1
(c_codecs
encode
p2
(Vdata
p3
Vlatin1
p4
tp5
Rp6
g2
(V<data>\\u000a        <hintSetList>\\u000a          <hintset pointTag=\"dh04\">\\u000a            <hstem pos=\"21\" width=\"-21\"/>\\u000a            <hstem pos=\"1117\" width=\"-20\"/>\\u000a            <vstem pos=\"145\" width=\"317\"/>\\u000a          </hintset>\\u000a          <hintset pointTag=\"iv01\">\\u000a            <hstem pos=\"21\" width=\"-21\"/>\\u000a            <hstem pos=\"1121\" width=\"-20\"/>\\u000a            <vstem pos=\"145\" width=\"317\"/>\\u000a          </hintset>\\u000a        </hintSetList>\\u000a      </data>
p7
g4
tp8
Rp9
Ntp10
sVcom.fontlab.ttprogram
p11
(g2
(Vdata
p12
g4
tp13
Rp14
g2
(V<data>\\u000a        <ttProgram>\\u000a          <ttc code=\"doubleh\" point1=\"dh01\" point2=\"dh02\" stem=\"eq X: 190\"/>\\u000a          <ttc code=\"doubleh\" point1=\"dh03\" point2=\"dh04\" stem=\"eq X: 190\"/>\\u000a          <ttc code=\"interpolateh\" point=\"ih01\" point1=\"dh02\" point2=\"dh04\"/>\\u000a          <ttc code=\"singleh\" point1=\"dh02\" point2=\"sh01\"/>\\u000a          <ttc code=\"alignt\" point=\"sh01\" zone=\"t: x\"/>\\u000a          <ttc code=\"alignt\" point=\"at01\" zone=\"t: x\"/>\\u000a          <ttc code=\"alignb\" point=\"dh02\" zone=\"b: 0\"/>\\u000a          <ttc code=\"interpolatev\" point=\"iv01\" point1=\"sh01\" point2=\"dh02\"/>\\u000a          <ttc code=\"singlev\" point1=\"at01\" point2=\"sv01\" stem=\"eq Y: 162\"/>\\u000a        </ttProgram>\\u000a      </data>
p15
g4
tp16
Rp17
Ntp18
s."
EndChar
StartChar: t
Encoding: 514 116 514
GlifName: t
Width: 1300
VWidth: 0
Flags: W
LayerCount: 2
Fore
SplineSet
658 388 m 257,0,1
NamedP: "dh02"
 658 337 658 337 660.5 302.5 c 128,-1,2
 663 268 663 268 671 247 c 128,-1,3
 679 226 679 226 693 217 c 128,-1,4
 707 208 707 208 731 208 c 257,5,6
NamedP: "av02"
 778 208 778 208 819 219.5 c 128,-1,7
 860 231 860 231 894.5 247.5 c 128,-1,8
 929 264 929 264 957.5 283 c 128,-1,9
 986 302 986 302 1007 316 c 257,10,-1
NamedP: "av01"
 1111 135 l 257,11,12
NamedP: "ah01"
 1098 124 1098 124 1065.5 99 c 128,-1,13
 1033 74 1033 74 979 48 c 128,-1,14
 925 22 925 22 848.5 2.5 c 128,-1,15
 772 -17 772 -17 672 -17 c 257,16,17
NamedP: "ab01"
 564 -17 564 -17 498.5 17 c 128,-1,18
 433 51 433 51 398.5 109 c 128,-1,19
 364 167 364 167 353 245 c 128,-1,20
 342 323 342 323 342 410 c 257,21,-1
NamedP: "dh01"
 342 876 l 257,22,-1
NamedP: "sv01"
 100 876 l 257,23,-1
 100 1100 l 257,24,-1
 342 1100 l 257,25,-1
NamedP: "sh01"
 342 1310 l 257,26,-1
 654 1420 l 257,27,-1
NamedP: "sh02"
 654 1100 l 257,28,-1
NamedP: "sv02"
 1113 1100 l 257,29,-1
NamedP: "at01"
 1086 876 l 257,30,-1
NamedP: "sv03"
 658 876 l 257,31,-1
 658 388 l 257,0,1
NamedP: "dh02"
EndSplineSet
PickledDataWithLists: "(dp0
Vcom.adobe.type.autohint
p1
(c_codecs
encode
p2
(Vdata
p3
Vlatin1
p4
tp5
Rp6
g2
(V<data>\\u000a        <hintSetList>\\u000a          <hintset pointTag=\"dh02\">\\u000a            <hstem pos=\"-17\" width=\"225\"/>\\u000a            <hstem pos=\"876\" width=\"224\"/>\\u000a            <hstem pos=\"1420\" width=\"-20\"/>\\u000a            <vstem pos=\"342\" width=\"312\"/>\\u000a          </hintset>\\u000a        </hintSetList>\\u000a      </data>
p7
g4
tp8
Rp9
Ntp10
sVcom.fontlab.ttprogram
p11
(g2
(Vdata
p12
g4
tp13
Rp14
g2
(V<data>\\u000a        <ttProgram>\\u000a          <ttc align=\"round\" code=\"alignh\" point=\"ah01\"/>\\u000a          <ttc code=\"doubleh\" point1=\"dh01\" point2=\"dh02\" stem=\"eq X: 190\"/>\\u000a          <ttc code=\"singleh\" point1=\"dh01\" point2=\"sh01\"/>\\u000a          <ttc code=\"singleh\" point1=\"dh02\" point2=\"sh02\"/>\\u000a          <ttc align=\"round\" code=\"alignv\" point=\"sh02\"/>\\u000a          <ttc align=\"round\" code=\"alignv\" point=\"av01\"/>\\u000a          <ttc align=\"round\" code=\"alignv\" point=\"av02\"/>\\u000a          <ttc code=\"alignt\" point=\"sh01\" zone=\"t: x\"/>\\u000a          <ttc code=\"alignt\" point=\"at01\" zone=\"t: x\"/>\\u000a          <ttc code=\"alignb\" point=\"ab01\" zone=\"b: 0\"/>\\u000a          <ttc code=\"singlev\" point1=\"av01\" point2=\"ah01\" stem=\"eq Y: 162\"/>\\u000a          <ttc code=\"singlev\" point1=\"sh01\" point2=\"sv01\" stem=\"eq Y: 162\"/>\\u000a          <ttc code=\"singlev\" point1=\"sh01\" point2=\"sv02\"/>\\u000a          <ttc code=\"singlev\" point1=\"sv01\" point2=\"sv03\"/>\\u000a        </ttProgram>\\u000a      </data>
p15
g4
tp16
Rp17
Ntp18
s."
EndChar
StartChar: v
Encoding: 553 118 553
GlifName: v
Width: 1300
VWidth: 0
Flags: W
LayerCount: 2
Fore
SplineSet
583 700 m 257
NamedP: "iv01"
 657 300 l 257
NamedP: "ah01"
 729 700 l 257
NamedP: "iv03"
 860 1100 l 257
NamedP: "sh01"
 1173 1120 l 257
NamedP: "sh02"
 800 -17 l 257
NamedP: "ab01"
 484 0 l 257
NamedP: "iv02"
 133 1100 l 257
NamedP: "sh04"
 447 1120 l 257
NamedP: "sh03"
 583 700 l 257
NamedP: "iv01"
EndSplineSet
PickledDataWithLists: "(dp0
Vcom.adobe.type.autohint
p1
(c_codecs
encode
p2
(Vdata
p3
Vlatin1
p4
tp5
Rp6
g2
(V<data>\\u000a        <hintSetList>\\u000a          <hintset pointTag=\"iv01\">\\u000a            <hstem pos=\"4\" width=\"-21\"/>\\u000a            <hstem pos=\"1120\" width=\"-20\"/>\\u000a          </hintset>\\u000a        </hintSetList>\\u000a      </data>
p7
g4
tp8
Rp9
Ntp10
sVcom.fontlab.ttprogram
p11
(g2
(Vdata
p12
g4
tp13
Rp14
g2
(V<data>\\u000a        <ttProgram>\\u000a          <ttc align=\"round\" code=\"alignh\" point=\"ah01\"/>\\u000a          <ttc code=\"singleh\" point1=\"ah01\" point2=\"sh01\"/>\\u000a          <ttc code=\"singleh\" point1=\"sh01\" point2=\"sh02\" stem=\"eq X: dia Lite\"/>\\u000a          <ttc code=\"singleh\" point1=\"ah01\" point2=\"sh03\"/>\\u000a          <ttc code=\"singleh\" point1=\"sh03\" point2=\"sh04\" stem=\"eq X: dia Fat\"/>\\u000a          <ttc code=\"alignt\" point=\"sh03\" zone=\"t: x\"/>\\u000a          <ttc code=\"alignt\" point=\"sh02\" zone=\"t: x\"/>\\u000a          <ttc code=\"alignb\" point=\"ab01\" zone=\"b: 0\"/>\\u000a          <ttc code=\"interpolatev\" point=\"iv01\" point1=\"sh03\" point2=\"iv02\"/>\\u000a          <ttc code=\"interpolatev\" point=\"ah01\" point1=\"ab01\" point2=\"sh02\"/>\\u000a          <ttc code=\"interpolatev\" point=\"iv03\" point1=\"iv02\" point2=\"sh01\"/>\\u000a        </ttProgram>\\u000a      </data>
p15
g4
tp16
Rp17
Ntp18
sVcom.typemytype.robofont.guides
p19
(lp20
(dp21
Vangle
p22
I0
sVisGlobal
p23
I00
sVmagnetic
p24
I5
sVx
p25
I0
sVy
p26
I381
sas."
EndChar
StartChar: w
Encoding: 555 119 555
GlifName: w
Width: 1300
VWidth: 0
Flags: W
LayerCount: 2
Fore
SplineSet
809 600 m 257,0,-1
 860 300 l 257,1,-1
NamedP: "ah02"
 870 300 l 257,2,-1
 859 700 l 257,3,-1
 932 1100 l 257,4,-1
NamedP: "sh01"
 1225 1120 l 257,5,-1
NamedP: "sh02"
 1006 0 l 257,6,-1
NamedP: "ih01"
 740 0 l 257,7,-1
NamedP: "ih02"
 641 400 l 257,8,-1
 625 600 l 257,9,-1
NamedP: "ih03"
 609 400 l 257,10,-1
 513 0 l 257,11,-1
NamedP: "ih04"
 248 0 l 257,12,-1
NamedP: "ih05"
 34 1100 l 257,13,-1
NamedP: "sh04"
 322 1120 l 257,14,-1
NamedP: "sh03"
 394 700 l 257,15,-1
 390 300 l 257,16,-1
NamedP: "iv01"
 400 300 l 257,17,-1
NamedP: "ah01"
 443 600 l 257,18,-1
 508 900 l 257,19,-1
NamedP: "ih06"
 743 900 l 257,20,-1
NamedP: "ih07"
 809 600 l 257,0,-1
EndSplineSet
PickledDataWithLists: "(dp0
Vcom.fontlab.ttprogram
p1
(c_codecs
encode
p2
(Vdata
p3
Vlatin1
p4
tp5
Rp6
g2
(V<data>\\u000a        <ttProgram>\\u000a          <ttc align=\"round\" code=\"alignh\" point=\"ah01\"/>\\u000a          <ttc align=\"round\" code=\"alignh\" point=\"ah02\"/>\\u000a          <ttc code=\"singleh\" point1=\"ah02\" point2=\"sh01\"/>\\u000a          <ttc code=\"singleh\" point1=\"sh01\" point2=\"sh02\" stem=\"eq X: dia Lite\"/>\\u000a          <ttc code=\"singleh\" point1=\"ah01\" point2=\"sh03\"/>\\u000a          <ttc code=\"interpolateh\" point=\"ih01\" point1=\"sh02\" point2=\"sh03\"/>\\u000a          <ttc code=\"interpolateh\" point=\"ih02\" point1=\"sh02\" point2=\"sh03\"/>\\u000a          <ttc code=\"singleh\" point1=\"sh03\" point2=\"sh04\" stem=\"eq X: dia Fat\"/>\\u000a          <ttc code=\"interpolateh\" point=\"ih03\" point1=\"sh04\" point2=\"sh02\"/>\\u000a          <ttc code=\"interpolateh\" point=\"ih04\" point1=\"sh04\" point2=\"sh01\"/>\\u000a          <ttc code=\"interpolateh\" point=\"ih05\" point1=\"sh04\" point2=\"sh01\"/>\\u000a          <ttc code=\"interpolateh\" point=\"ih06\" point1=\"sh04\" point2=\"sh01\"/>\\u000a          <ttc code=\"interpolateh\" point=\"ih07\" point1=\"sh02\" point2=\"sh03\"/>\\u000a          <ttc align=\"round\" code=\"alignv\" point=\"ih06\"/>\\u000a          <ttc align=\"round\" code=\"alignv\" point=\"ih07\"/>\\u000a          <ttc code=\"alignt\" point=\"sh03\" zone=\"t: x\"/>\\u000a          <ttc code=\"alignt\" point=\"sh02\" zone=\"t: x\"/>\\u000a          <ttc code=\"alignb\" point=\"ih04\" zone=\"b: 0\"/>\\u000a          <ttc code=\"alignb\" point=\"ih01\" zone=\"b: 0\"/>\\u000a          <ttc code=\"interpolatev\" point=\"ah02\" point1=\"sh03\" point2=\"ih01\"/>\\u000a          <ttc code=\"interpolatev\" point=\"ih03\" point1=\"sh03\" point2=\"ih01\"/>\\u000a          <ttc code=\"interpolatev\" point=\"iv01\" point1=\"sh03\" point2=\"ih01\"/>\\u000a        </ttProgram>\\u000a      </data>
p7
g4
tp8
Rp9
Ntp10
sVcom.typemytype.robofont.guides
p11
(lp12
(dp13
Vangle
p14
I0
sVisGlobal
p15
I00
sVmagnetic
p16
I5
sVx
p17
I0
sVy
p18
I540
sa(dp19
g14
I0
sg15
I00
sg16
I5
sg17
I0
sg18
I640
sa(dp20
g14
I90
sg15
I00
sg16
I5
sg17
I467
sg18
I0
sa(dp21
g14
I90
sg15
I00
sg16
I5
sg17
I1040
sg18
I0
sa(dp22
g14
I90
sg15
I00
sg16
I5
sg17
I743
sg18
I0
sas."
EndChar
StartChar: y
Encoding: 580 121 580
GlifName: y
Width: 1300
VWidth: 0
Flags: W
LayerCount: 2
Fore
SplineSet
571 670 m 257
NamedP: "dh01"
 648 200 l 257
NamedP: "ah02"
 727 670 l 257
NamedP: "dh02"
 890 1100 l 257
NamedP: "sh01"
 1210 1120 l 257
NamedP: "sh02"
 802 8 l 257
NamedP: "ih01"
 782 -47 782 -47 758.5 -105 c 128
 735 -163 735 -163 707 -217 c 128
 679 -271 679 -271 646 -319 c 128
 613 -367 613 -367 573 -402.5 c 128
 533 -438 533 -438 486 -459 c 128
 439 -480 439 -480 383 -480 c 257
NamedP: "av01"
 316 -480 316 -480 250.5 -452.5 c 128
 185 -425 185 -425 127 -374 c 257
NamedP: "ah01"
 250 -194 l 257
NamedP: "sh03"
 273 -209 273 -209 299 -221.5 c 128
 325 -234 325 -234 352 -234 c 257
NamedP: "av02"
 395 -234 395 -234 429.5 -184.5 c 128
 464 -135 464 -135 501 -47 c 257
NamedP: "ab01"
 82 1100 l 257
NamedP: "sh05"
 408 1120 l 257
NamedP: "sh04"
 571 670 l 257
NamedP: "dh01"
EndSplineSet
PickledDataWithLists: "(dp0
Vcom.adobe.type.autohint
p1
(c_codecs
encode
p2
(Vdata
p3
Vlatin1
p4
tp5
Rp6
g2
(V<data>\\u000a        <hintSetList>\\u000a          <hintset pointTag=\"dh01\">\\u000a            <hstem pos=\"-480\" width=\"246\"/>\\u000a            <hstem pos=\"1121\" width=\"-20\"/>\\u000a          </hintset>\\u000a        </hintSetList>\\u000a      </data>
p7
g4
tp8
Rp9
Ntp10
sVcom.fontlab.ttprogram
p11
(g2
(Vdata
p12
g4
tp13
Rp14
g2
(V<data>\\u000a        <ttProgram>\\u000a          <ttc align=\"round\" code=\"alignh\" point=\"ah01\"/>\\u000a          <ttc align=\"round\" code=\"alignh\" point=\"ah02\"/>\\u000a          <ttc align=\"round\" code=\"alignh\" point=\"lsb\"/>\\u000a          <ttc code=\"doubleh\" point1=\"dh01\" point2=\"dh02\" stem=\"eq X: 176\"/>\\u000a          <ttc code=\"singleh\" point1=\"ah02\" point2=\"sh01\"/>\\u000a          <ttc code=\"singleh\" point1=\"sh01\" point2=\"sh02\" stem=\"eq X: dia Lite\"/>\\u000a          <ttc code=\"singleh\" point1=\"lsb\" point2=\"sh03\" stem=\"eq X: 208\"/>\\u000a          <ttc code=\"interpolateh\" point=\"ih01\" point1=\"sh02\" point2=\"sh03\"/>\\u000a          <ttc code=\"singleh\" point1=\"ah02\" point2=\"sh04\"/>\\u000a          <ttc code=\"singleh\" point1=\"sh04\" point2=\"sh05\" stem=\"eq X: dia Fat\"/>\\u000a          <ttc align=\"round\" code=\"alignv\" point=\"av01\"/>\\u000a          <ttc align=\"round\" code=\"alignv\" point=\"av02\"/>\\u000a          <ttc code=\"alignt\" point=\"sh04\" zone=\"t: x\"/>\\u000a          <ttc code=\"alignt\" point=\"sh02\" zone=\"t: x\"/>\\u000a          <ttc code=\"alignb\" point=\"ab01\" zone=\"b: 0\"/>\\u000a        </ttProgram>\\u000a      </data>
p15
g4
tp16
Rp17
Ntp18
sVcom.typemytype.robofont.guides
p19
(lp20
(dp21
Vangle
p22
I90
sVisGlobal
p23
I00
sVmagnetic
p24
I5
sVx
p25
I550
sVy
p26
I0
sas."
EndChar
StartChar: braceleft
Encoding: 156 123 156
GlifName: braceleft
Width: 1300
VWidth: 0
Flags: W
LayerCount: 2
Fore
SplineSet
1003 1260 m 257
NamedP: "sh01"
 969 1280 969 1280 925.5 1292.5 c 128
 882 1305 882 1305 847 1305 c 257
NamedP: "ah06"
 817 1303 817 1303 799 1288.5 c 128
 781 1274 781 1274 772 1248 c 128
 763 1222 763 1222 760 1184.5 c 128
 757 1147 757 1147 757 1099 c 257
 757 864 l 257
 757 808 757 808 741.5 759 c 128
 726 710 726 710 702 670.5 c 128
 678 631 678 631 649 600.5 c 128
 620 570 620 570 593 550 c 257
NamedP: "ah04"
 620 530 620 530 649 499.5 c 128
 678 469 678 469 702 429.5 c 128
 726 390 726 390 741.5 341.5 c 128
 757 293 757 293 757 238 c 257
 757 -2 l 257
 757 -50 757 -50 760 -88 c 128
 763 -126 763 -126 772 -153 c 128
 781 -180 781 -180 799 -194 c 128
 817 -208 817 -208 847 -208 c 257
NamedP: "ah05"
 882 -208 882 -208 925.5 -195.5 c 128
 969 -183 969 -183 1003 -163 c 257
NamedP: "sh02"
 1099 -348 l 257
NamedP: "ah02"
 1066 -363 1066 -363 1035.5 -376 c 128
 1005 -389 1005 -389 971 -399 c 128
 937 -409 937 -409 896.5 -414.5 c 128
 856 -420 856 -420 804 -420 c 257
NamedP: "av01"
 691 -420 691 -420 616 -388 c 128
 541 -356 541 -356 496.5 -300 c 128
 452 -244 452 -244 433.5 -167.5 c 128
 415 -91 415 -91 415 -2 c 257
 415 238 l 257
 415 328 415 328 399.5 380 c 128
 384 432 384 432 338 442 c 257
 200 462 l 257
NamedP: "ah03"
 200 640 l 257
NamedP: "iv01"
 338 660 l 257
 384 671 384 671 399.5 723.5 c 128
 415 776 415 776 415 864 c 257
 415 1099 l 257
 415 1188 415 1188 433.5 1264.5 c 128
 452 1341 452 1341 497 1397 c 128
 542 1453 542 1453 617 1485 c 128
 692 1517 692 1517 805 1517 c 257
NamedP: "at01"
 857 1517 857 1517 897.5 1511.5 c 128
 938 1506 938 1506 971.5 1496.5 c 128
 1005 1487 1005 1487 1035.5 1474 c 128
 1066 1461 1066 1461 1099 1445 c 257
NamedP: "ah01"
 1003 1260 l 257
NamedP: "sh01"
EndSplineSet
PickledDataWithLists: "(dp0
Vcom.adobe.type.autohint
p1
(c_codecs
encode
p2
(Vdata
p3
Vlatin1
p4
tp5
Rp6
g2
(V<data>\\u000a        <hintSetList>\\u000a          <hintset pointTag=\"sh01\">\\u000a            <hstem pos=\"-420\" width=\"212\"/>\\u000a            <hstem pos=\"1305\" width=\"212\"/>\\u000a            <vstem pos=\"415\" width=\"342\"/>\\u000a          </hintset>\\u000a        </hintSetList>\\u000a      </data>
p7
g4
tp8
Rp9
Ntp10
sVcom.fontlab.ttprogram
p11
(g2
(Vdata
p12
g4
tp13
Rp14
g2
(V<data>\\u000a        <ttProgram>\\u000a          <ttc align=\"round\" code=\"alignh\" point=\"ah01\"/>\\u000a          <ttc align=\"round\" code=\"alignh\" point=\"ah02\"/>\\u000a          <ttc align=\"round\" code=\"alignh\" point=\"ah03\"/>\\u000a          <ttc align=\"round\" code=\"alignh\" point=\"ah04\"/>\\u000a          <ttc align=\"round\" code=\"alignh\" point=\"ah05\"/>\\u000a          <ttc align=\"round\" code=\"alignh\" point=\"ah06\"/>\\u000a          <ttc code=\"singleh\" point1=\"ah01\" point2=\"sh01\" stem=\"eq X: dia Lite\"/>\\u000a          <ttc code=\"singleh\" point1=\"ah02\" point2=\"sh02\" stem=\"eq X: dia Lite\"/>\\u000a          <ttc align=\"round\" code=\"alignv\" point=\"av01\"/>\\u000a          <ttc code=\"alignt\" point=\"at01\" zone=\"t: 1\"/>\\u000a          <ttc code=\"interpolatev\" point=\"ah03\" point1=\"ah02\" point2=\"sh01\"/>\\u000a          <ttc code=\"interpolatev\" point=\"iv01\" point1=\"ah01\" point2=\"sh02\"/>\\u000a        </ttProgram>\\u000a      </data>
p15
g4
tp16
Rp17
Ntp18
sVcom.typemytype.robofont.guides
p19
(lp20
(dp21
Vangle
p22
I0
sVisGlobal
p23
I00
sVmagnetic
p24
I5
sVx
p25
I0
sVy
p26
I550
sa(dp27
g22
I0
sg23
I00
sg24
I5
sg25
I0
sg26
I475
sas."
EndChar
StartChar: bar
Encoding: 133 124 133
GlifName: bar
Width: 1300
VWidth: 0
Flags: W
LayerCount: 2
Fore
SplineSet
766 1520 m 257
NamedP: "hr00"
 766 -380 l 257
 434 -380 l 257
 434 1500 l 257
 766 1520 l 257
NamedP: "hr00"
EndSplineSet
PickledDataWithLists: "(dp0
Vcom.adobe.type.autohint
p1
(c_codecs
encode
p2
(Vdata
p3
Vlatin1
p4
tp5
Rp6
g2
(V<data>\\u000a        <hintSetList>\\u000a          <hintset pointTag=\"hr00\">\\u000a            <hstem pos=\"-359\" width=\"-21\"/>\\u000a            <hstem pos=\"1520\" width=\"-20\"/>\\u000a            <vstem pos=\"434\" width=\"332\"/>\\u000a          </hintset>\\u000a        </hintSetList>\\u000a      </data>
p7
g4
tp8
Rp9
Ntp10
s."
EndChar
StartChar: braceright
Encoding: 157 125 157
GlifName: braceright
Width: 1300
VWidth: 0
Flags: W
LayerCount: 2
Fore
SplineSet
201 1445 m 257
NamedP: "ah05"
 234 1461 234 1461 264.5 1474 c 128
 295 1487 295 1487 329 1496.5 c 128
 363 1506 363 1506 403.5 1511.5 c 128
 444 1517 444 1517 496 1517 c 257
NamedP: "at01"
 609 1517 609 1517 684 1485 c 128
 759 1453 759 1453 803.5 1397 c 128
 848 1341 848 1341 866.5 1264.5 c 128
 885 1188 885 1188 885 1099 c 257
 885 864 l 257
 885 776 885 776 900.5 723.5 c 128
 916 671 916 671 962 660 c 257
 1100 640 l 257
NamedP: "iv01"
 1100 462 l 257
NamedP: "ah02"
 962 442 l 257
 916 432 916 432 900.5 379.5 c 128
 885 327 885 327 885 238 c 257
 885 -2 l 257
 885 -91 885 -91 866.5 -167.5 c 128
 848 -244 848 -244 803.5 -300 c 128
 759 -356 759 -356 684 -388 c 128
 609 -420 609 -420 496 -420 c 257
NamedP: "av01"
 444 -420 444 -420 403.5 -414.5 c 128
 363 -409 363 -409 329 -399.5 c 128
 295 -390 295 -390 264.5 -376.5 c 128
 234 -363 234 -363 201 -348 c 257
NamedP: "ah03"
 297 -163 l 257
NamedP: "sh01"
 331 -183 331 -183 374.5 -195.5 c 128
 418 -208 418 -208 453 -208 c 257
NamedP: "ah04"
 483 -208 483 -208 501 -194 c 128
 519 -180 519 -180 528 -153 c 128
 537 -126 537 -126 540 -88 c 128
 543 -50 543 -50 543 -2 c 257
 543 238 l 257
 543 293 543 293 558.5 341.5 c 128
 574 390 574 390 598 430 c 128
 622 470 622 470 651 500 c 128
 680 530 680 530 707 550 c 257
NamedP: "ah01"
 680 570 680 570 651 600.5 c 128
 622 631 622 631 598 670.5 c 128
 574 710 574 710 558.5 759 c 128
 543 808 543 808 543 864 c 257
 543 1099 l 257
 543 1147 543 1147 540 1184.5 c 128
 537 1222 537 1222 528 1248 c 128
 519 1274 519 1274 501 1288.5 c 128
 483 1303 483 1303 453 1305 c 257
NamedP: "ah06"
 418 1305 418 1305 374.5 1292.5 c 128
 331 1280 331 1280 297 1260 c 257
NamedP: "sh02"
 201 1445 l 257
NamedP: "ah05"
EndSplineSet
PickledDataWithLists: "(dp0
Vcom.adobe.type.autohint
p1
(c_codecs
encode
p2
(Vdata
p3
Vlatin1
p4
tp5
Rp6
g2
(V<data>\\u000a        <hintSetList>\\u000a          <hintset pointTag=\"ah05\">\\u000a            <hstem pos=\"-420\" width=\"212\"/>\\u000a            <hstem pos=\"1305\" width=\"212\"/>\\u000a            <vstem pos=\"543\" width=\"342\"/>\\u000a          </hintset>\\u000a        </hintSetList>\\u000a      </data>
p7
g4
tp8
Rp9
Ntp10
sVcom.fontlab.ttprogram
p11
(g2
(Vdata
p12
g4
tp13
Rp14
g2
(V<data>\\u000a        <ttProgram>\\u000a          <ttc align=\"round\" code=\"alignh\" point=\"ah01\"/>\\u000a          <ttc align=\"round\" code=\"alignh\" point=\"ah02\"/>\\u000a          <ttc align=\"round\" code=\"alignh\" point=\"ah03\"/>\\u000a          <ttc align=\"round\" code=\"alignh\" point=\"ah04\"/>\\u000a          <ttc align=\"round\" code=\"alignh\" point=\"ah05\"/>\\u000a          <ttc align=\"round\" code=\"alignh\" point=\"ah06\"/>\\u000a          <ttc code=\"singleh\" point1=\"ah03\" point2=\"sh01\" stem=\"eq X: dia Lite\"/>\\u000a          <ttc code=\"singleh\" point1=\"ah05\" point2=\"sh02\" stem=\"eq X: dia Lite\"/>\\u000a          <ttc align=\"round\" code=\"alignv\" point=\"av01\"/>\\u000a          <ttc code=\"alignt\" point=\"at01\" zone=\"t: 1\"/>\\u000a          <ttc code=\"interpolatev\" point=\"iv01\" point1=\"ah05\" point2=\"sh01\"/>\\u000a          <ttc code=\"interpolatev\" point=\"ah02\" point1=\"sh02\" point2=\"ah03\"/>\\u000a        </ttProgram>\\u000a      </data>
p15
g4
tp16
Rp17
Ntp18
s."
EndChar
StartChar: asciitilde
Encoding: 124 126 124
GlifName: asciitilde
Width: 1300
VWidth: 0
Flags: W
LayerCount: 2
Fore
SplineSet
31 441 m 257,0,1
NamedP: "ah01"
 37 508 37 508 63.5 578 c 128,-1,2
NamedP: "ih02"
 90 648 90 648 139.5 705 c 128,-1,3
 189 762 189 762 264.5 798.5 c 128,-1,4
 340 835 340 835 444 835 c 257,5,6
NamedP: "sh01"
 498 835 498 835 538 825 c 128,-1,7
 578 815 578 815 609.5 800.5 c 128,-1,8
 641 786 641 786 666 769 c 128,-1,9
 691 752 691 752 715.5 737.5 c 128,-1,10
 740 723 740 723 766.5 713 c 128,-1,11
 793 703 793 703 827 703 c 257,12,13
NamedP: "ih03"
 896 703 896 703 938.5 741 c 128,-1,14
 981 779 981 779 991 838 c 257,15,-1
NamedP: "sh02"
 1266 802 l 257,16,17
NamedP: "ah02"
 1261 729 1261 729 1238.5 657 c 128,-1,18
 1216 585 1216 585 1169 528 c 128,-1,19
NamedP: "ih04"
 1122 471 1122 471 1047 435.5 c 128,-1,20
 972 400 972 400 862 400 c 257,21,22
NamedP: "sh03"
 812 400 812 400 775 410 c 128,-1,23
 738 420 738 420 708.5 434.5 c 128,-1,24
 679 449 679 449 654.5 466 c 128,-1,25
 630 483 630 483 604 497.5 c 128,-1,26
 578 512 578 512 549 522 c 128,-1,27
 520 532 520 532 481 532 c 257,28,29
NamedP: "ih01"
 452 532 452 532 427.5 522 c 128,-1,30
 403 512 403 512 383.5 495.5 c 128,-1,31
 364 479 364 479 350.5 457 c 128,-1,32
 337 435 337 435 331 410 c 257,33,-1
NamedP: "sh04"
 31 441 l 257,0,1
NamedP: "ah01"
EndSplineSet
PickledDataWithLists: "(dp0
Vcom.adobe.type.autohint
p1
(c_codecs
encode
p2
(Vdata
p3
Vlatin1
p4
tp5
Rp6
g2
(V<data>\\u000a        <hintSetList/>\\u000a      </data>
p7
g4
tp8
Rp9
Ntp10
sVcom.fontlab.ttprogram
p11
(g2
(Vdata
p12
g4
tp13
Rp14
g2
(V<data>\\u000a        <ttProgram>\\u000a          <ttc align=\"round\" code=\"alignh\" point=\"ah01\"/>\\u000a          <ttc align=\"round\" code=\"alignh\" point=\"ah02\"/>\\u000a          <ttc code=\"interpolateh\" point=\"ih01\" point1=\"ih02\" point2=\"ah02\"/>\\u000a          <ttc code=\"singleh\" point1=\"ih01\" point2=\"sh01\" round=\"true\"/>\\u000a          <ttc code=\"interpolateh\" point=\"ih03\" point1=\"ih04\" point2=\"ah01\"/>\\u000a          <ttc code=\"singleh\" point1=\"ah02\" point2=\"sh02\" stem=\"eq X: dia Fat\"/>\\u000a          <ttc code=\"singleh\" point1=\"ih03\" point2=\"sh03\" round=\"true\"/>\\u000a          <ttc code=\"singleh\" point1=\"ah01\" point2=\"sh04\" stem=\"eq X: dia Fat\"/>\\u000a          <ttc align=\"round\" code=\"alignv\" point=\"sh01\"/>\\u000a          <ttc align=\"round\" code=\"alignv\" point=\"ih01\"/>\\u000a          <ttc align=\"round\" code=\"alignv\" point=\"ih03\"/>\\u000a          <ttc align=\"round\" code=\"alignv\" point=\"sh03\"/>\\u000a        </ttProgram>\\u000a      </data>
p15
g4
tp16
Rp17
Ntp18
s."
EndChar
StartChar: exclamdown
Encoding: 242 161 242
GlifName: exclamdown
Width: 1300
VWidth: 0
Flags: W
LayerCount: 2
Fore
SplineSet
652 -400 m 257
NamedP: "hr00"
 652 656 l 257
 352 691 l 257
 352 -400 l 257
 652 -400 l 257
NamedP: "hr00"
338 951 m 257
 338 917 338 917 351 887.5 c 128
 364 858 364 858 386 835.5 c 128
 408 813 408 813 437.5 800 c 128
 467 787 467 787 501 787 c 257
 535 787 535 787 564.5 800 c 128
 594 813 594 813 616 835.5 c 128
 638 858 638 858 651 887.5 c 128
 664 917 664 917 664 951 c 257
 664 984 664 984 651.5 1014.5 c 128
 639 1045 639 1045 617 1067.5 c 128
 595 1090 595 1090 565.5 1103.5 c 128
 536 1117 536 1117 502 1117 c 257
 468 1117 468 1117 438 1103.5 c 128
 408 1090 408 1090 386 1067.5 c 128
 364 1045 364 1045 351 1014.5 c 128
 338 984 338 984 338 951 c 257
EndSplineSet
PickledDataWithLists: "(dp0
Vcom.adobe.type.autohint
p1
(c_codecs
encode
p2
(Vdata
p3
Vlatin1
p4
tp5
Rp6
g2
(V<data>\\u000a        <hintSetList>\\u000a          <hintset pointTag=\"hr00\">\\u000a            <hstem pos=\"-400\" width=\"20\"/>\\u000a            <hstem pos=\"1117\" width=\"-330\"/>\\u000a            <vstem pos=\"352\" width=\"300\"/>\\u000a          </hintset>\\u000a        </hintSetList>\\u000a      </data>
p7
g4
tp8
Rp9
Ntp10
s."
EndChar
StartChar: cent
Encoding: 170 162 170
GlifName: cent
Width: 1300
VWidth: 0
Flags: W
LayerCount: 2
Fore
SplineSet
989 814 m 257
 965 837 965 837 943 852 c 128
 921 867 921 867 901 877 c 257
 901 223 l 257
 967 249 967 249 1023 288 c 257
 1135 93 l 257
 1084 58 1084 58 1025.5 32.5 c 128
 967 7 967 7 901 -5 c 257
 901 -190 l 257
NamedP: "sh01"
 611 -190 l 257
NamedP: "ah01"
 611 6 l 257
NamedP: "mv01"
 518 34 518 34 448 90.5 c 128
 378 147 378 147 331 222.5 c 128
 284 298 284 298 260.5 388.5 c 128
 237 479 237 479 237 575 c 257
NamedP: "sh02"
 237 662 237 662 259.5 744.5 c 128
 282 827 282 827 328.5 896.5 c 128
 375 966 375 966 445 1017.5 c 128
 515 1069 515 1069 611 1095 c 257
 611 1302 l 257
 901 1340 l 257
NamedP: "sh03"
 901 1105 l 257
NamedP: "hr01"
 968 1090 968 1090 1026.5 1055.5 c 128
 1085 1021 1085 1021 1140 961 c 257
 989 814 l 257
521 563 m 257
NamedP: "sh04"
 521 436 521 436 556.5 353.5 c 128
 592 271 592 271 659 232 c 257
NamedP: "mh01"
 659 873 l 257
NamedP: "mh02"
 594 840 594 840 557.5 764.5 c 128
 521 689 521 689 521 563 c 257
NamedP: "sh04"
EndSplineSet
PickledDataWithLists: "(dp0
Vcom.adobe.type.autohint
p1
(c_codecs
encode
p2
(Vdata
p3
Vlatin1
p4
tp5
Rp6
g2
(V<data>\\u000a        <hintSetList>\\u000a          <hintset pointTag=\"hr01\">\\u000a            <hstem pos=\"-169\" width=\"-21\"/>\\u000a            <hstem pos=\"1340\" width=\"-20\"/>\\u000a            <vstem pos=\"237\" width=\"284\"/>\\u000a            <vstem pos=\"659\" width=\"242\"/>\\u000a          </hintset>\\u000a        </hintSetList>\\u000a      </data>
p7
g4
tp8
Rp9
Ntp10
sVcom.fontlab.ttprogram
p11
(g2
(Vdata
p12
g4
tp13
Rp14
g2
(V<data>\\u000a        <ttProgram>\\u000a          <ttc align=\"round\" code=\"alignh\" point=\"lsb\"/>\\u000a          <ttc align=\"round\" code=\"alignh\" point=\"ah01\"/>\\u000a          <ttc code=\"singleh\" point1=\"ah01\" point2=\"sh01\" stem=\"eq X: 176\"/>\\u000a          <ttc code=\"singleh\" point1=\"lsb\" point2=\"sh02\"/>\\u000a          <ttc code=\"singleh\" point1=\"sh01\" point2=\"sh03\"/>\\u000a          <ttc code=\"singleh\" point1=\"sh02\" point2=\"sh04\" stem=\"eq X: 199\"/>\\u000a          <ttc code=\"mdeltah\" delta=\"6\" point=\"mh01\" ppm1=\"12\" ppm2=\"12\"/>\\u000a          <ttc code=\"mdeltah\" delta=\"3\" point=\"mh01\" ppm1=\"13\" ppm2=\"13\"/>\\u000a          <ttc code=\"mdeltah\" delta=\"5\" point=\"mh02\" ppm1=\"12\" ppm2=\"12\"/>\\u000a          <ttc code=\"mdeltah\" delta=\"3\" point=\"mh02\" ppm1=\"13\" ppm2=\"13\"/>\\u000a          <ttc code=\"mdeltav\" delta=\"3\" point=\"mv01\" ppm1=\"12\" ppm2=\"12\"/>\\u000a        </ttProgram>\\u000a      </data>
p15
g4
tp16
Rp17
Ntp18
s."
EndChar
StartChar: sterling
Encoding: 480 163 480
GlifName: sterling
Width: 1300
VWidth: 0
Flags: W
LayerCount: 2
Fore
SplineSet
779 216 m 257
NamedP: "hr00"
 1100 216 l 257
 1100 0 l 257
 151 0 l 257
 180 216 l 257
 313 216 l 257
 315 218 315 218 318 224.5 c 128
 321 231 321 231 326 249 c 257
 334 277 334 277 355 378 c 128
 376 479 376 479 403 665 c 257
 275 665 l 257
 275 883 l 257
 434 883 l 257
 472 1150 l 257
 484 1229 484 1229 509 1296.5 c 128
 534 1364 534 1364 578 1413 c 128
 622 1462 622 1462 688 1489.5 c 128
 754 1517 754 1517 847 1517 c 257
 901 1517 901 1517 943.5 1510.5 c 128
 986 1504 986 1504 1023 1489.5 c 128
 1060 1475 1060 1475 1094.5 1451.5 c 128
 1129 1428 1129 1428 1167 1395 c 257
 1037 1228 l 257
 987 1273 987 1273 954 1288 c 128
 921 1303 921 1303 891 1303 c 257
 868 1303 868 1303 851.5 1289.5 c 128
 835 1276 835 1276 823.5 1251.5 c 128
 812 1227 812 1227 804.5 1192.5 c 128
 797 1158 797 1158 791 1116 c 257
 758 883 l 257
 953 883 l 257
 926 665 l 257
 728 665 l 257
 720 601 720 601 714.5 556 c 128
 709 511 709 511 703 474.5 c 128
 697 438 697 438 690 404.5 c 128
 683 371 683 371 673 331 c 257
 531 157 l 257
 779 216 l 257
NamedP: "hr00"
EndSplineSet
PickledDataWithLists: "(dp0
Vcom.adobe.type.autohint
p1
(c_codecs
encode
p2
(Vdata
p3
Vlatin1
p4
tp5
Rp6
g2
(V<data>\\u000a        <hintSetList>\\u000a          <hintset pointTag=\"hr00\">\\u000a            <hstem pos=\"0\" width=\"216\"/>\\u000a            <hstem pos=\"665\" width=\"218\"/>\\u000a            <hstem pos=\"1303\" width=\"214\"/>\\u000a          </hintset>\\u000a        </hintSetList>\\u000a      </data>
p7
g4
tp8
Rp9
Ntp10
s."
EndChar
StartChar: currency
Encoding: 201 164 201
GlifName: currency
Width: 1300
VWidth: 0
Flags: W
LayerCount: 2
Fore
SplineSet
966 383 m 257
NamedP: "hr00"
 994 430 994 430 1008 478.5 c 128
 1022 527 1022 527 1022 573 c 257
 1022 665 1022 665 966 762 c 257
 1117 913 l 257
 942 1092 l 257
 775 925 l 257
 735 942 735 942 691 949.5 c 128
 647 957 647 957 600 957 c 257
 552 957 552 957 508 949.5 c 128
 464 942 464 942 424 925 c 257
 258 1092 l 257
 82 913 l 257
 234 762 l 257
 205 714 205 714 191 666 c 128
 177 618 177 618 177 573 c 257
 177 479 177 479 234 383 c 257
 82 232 l 257
 259 55 l 257
 424 221 l 257
 463 204 463 204 507.5 196 c 128
 552 188 552 188 600 188 c 257
 695 188 695 188 775 221 c 257
 941 55 l 257
 1117 232 l 257
 966 383 l 257
NamedP: "hr00"
435 573 m 257
 435 621 435 621 450.5 654 c 128
 466 687 466 687 490 707 c 128
 514 727 514 727 543.5 735.5 c 128
 573 744 573 744 600 744 c 257
 627 744 627 744 656 735.5 c 128
 685 727 685 727 709 707 c 128
 733 687 733 687 748.5 654 c 128
 764 621 764 621 764 573 c 257
 764 525 764 525 748.5 491.5 c 128
 733 458 733 458 709 438 c 128
 685 418 685 418 656 409 c 128
 627 400 627 400 600 400 c 257
 573 400 573 400 543.5 409 c 128
 514 418 514 418 490 438 c 128
 466 458 466 458 450.5 491.5 c 128
 435 525 435 525 435 573 c 257
EndSplineSet
PickledDataWithLists: "(dp0
Vcom.adobe.type.autohint
p1
(c_codecs
encode
p2
(Vdata
p3
Vlatin1
p4
tp5
Rp6
g2
(V<data>\\u000a        <hintSetList>\\u000a          <hintset pointTag=\"hr00\">\\u000a            <hstem pos=\"76\" width=\"-21\"/>\\u000a            <hstem pos=\"188\" width=\"212\"/>\\u000a            <hstem pos=\"744\" width=\"213\"/>\\u000a            <hstem pos=\"1092\" width=\"-20\"/>\\u000a            <vstem pos=\"177\" width=\"258\"/>\\u000a            <vstem pos=\"764\" width=\"258\"/>\\u000a          </hintset>\\u000a        </hintSetList>\\u000a      </data>
p7
g4
tp8
Rp9
Ntp10
s."
EndChar
StartChar: yen
Encoding: 583 165 583
GlifName: yen
Width: 1300
VWidth: 0
Flags: W
LayerCount: 2
Fore
SplineSet
160 589 m 257,0,-1
NamedP: "sv02"
 469 589 l 257,1,-1
 469 650 l 257,2,-1
NamedP: "sh01"
 443 700 l 257,3,-1
 160 700 l 257,4,-1
NamedP: "sv01"
 160 889 l 257,5,-1
NamedP: "ah02"
 347 889 l 257,6,-1
 40 1500 l 257,7,-1
NamedP: "sh02"
 379 1520 l 257,8,-1
NamedP: "hr01"
 571 1143 l 257,9,-1
 678 773 l 257,10,-1
 736 1143 l 257,11,-1
 918 1500 l 257,12,-1
 1253 1500 l 257,13,-1
NamedP: "sh03"
 942 889 l 257,14,-1
 1160 889 l 257,15,-1
NamedP: "ah03"
 1160 700 l 257,16,-1
NamedP: "sv03"
 845 700 l 257,17,-1
 820 650 l 257,18,-1
NamedP: "sh05"
 820 589 l 257,19,-1
 1160 589 l 257,20,-1
NamedP: "sv04"
 1160 400 l 257,21,-1
NamedP: "sh06"
 820 400 l 257,22,-1
 820 0 l 257,23,-1
NamedP: "sh04"
 469 0 l 257,24,-1
NamedP: "ah01"
 469 400 l 257,25,-1
 160 400 l 257,26,-1
NamedP: "sh07"
 160 589 l 257,0,-1
NamedP: "sv02"
EndSplineSet
PickledDataWithLists: "(dp0
Vcom.adobe.type.autohint
p1
(c_codecs
encode
p2
(Vdata
p3
Vlatin1
p4
tp5
Rp6
g2
(V<data>\\u000a        <hintSetList>\\u000a          <hintset pointTag=\"hr01\">\\u000a            <hstem pos=\"21\" width=\"-21\"/>\\u000a            <hstem pos=\"400\" width=\"189\"/>\\u000a            <hstem pos=\"700\" width=\"189\"/>\\u000a            <hstem pos=\"1520\" width=\"-20\"/>\\u000a            <vstem pos=\"469\" width=\"351\"/>\\u000a          </hintset>\\u000a        </hintSetList>\\u000a      </data>
p7
g4
tp8
Rp9
Ntp10
sVcom.fontlab.ttprogram
p11
(g2
(Vdata
p12
g4
tp13
Rp14
g2
(V<data>\\u000a        <ttProgram>\\u000a          <ttc align=\"round\" code=\"alignh\" point=\"ah01\"/>\\u000a          <ttc align=\"round\" code=\"alignh\" point=\"ah02\"/>\\u000a          <ttc align=\"round\" code=\"alignh\" point=\"ah03\"/>\\u000a          <ttc code=\"singleh\" point1=\"ah01\" point2=\"sh01\"/>\\u000a          <ttc code=\"singleh\" point1=\"ah02\" point2=\"sh02\"/>\\u000a          <ttc code=\"singleh\" point1=\"ah03\" point2=\"sh03\"/>\\u000a          <ttc code=\"singleh\" point1=\"ah01\" point2=\"sh04\" stem=\"eq X: 208\"/>\\u000a          <ttc code=\"singleh\" point1=\"sh04\" point2=\"sh05\"/>\\u000a          <ttc code=\"singleh\" point1=\"ah03\" point2=\"sh06\"/>\\u000a          <ttc code=\"singleh\" point1=\"ah02\" point2=\"sh07\"/>\\u000a          <ttc align=\"round\" code=\"alignv\" point=\"ah02\"/>\\u000a          <ttc code=\"singlev\" point1=\"ah02\" point2=\"sv01\" stem=\"eq Y: 171\"/>\\u000a          <ttc code=\"singlev\" point1=\"sv01\" point2=\"sv02\" stem=\"eq Y: 135\"/>\\u000a          <ttc code=\"singlev\" point1=\"ah02\" point2=\"ah03\"/>\\u000a          <ttc code=\"singlev\" point1=\"sv01\" point2=\"sv03\"/>\\u000a          <ttc code=\"singlev\" point1=\"sv02\" point2=\"sv04\"/>\\u000a          <ttc code=\"singlev\" point1=\"sv02\" point2=\"sh07\" stem=\"eq Y: 171\"/>\\u000a          <ttc code=\"singlev\" point1=\"sh07\" point2=\"sh06\"/>\\u000a        </ttProgram>\\u000a      </data>
p15
g4
tp16
Rp17
Ntp18
s."
EndChar
StartChar: brokenbar
Encoding: 161 166 161
GlifName: brokenbar
Width: 1300
VWidth: 0
Flags: W
LayerCount: 2
Fore
SplineSet
871 1520 m 257
NamedP: "hr00"
 871 700 l 257
 529 700 l 257
 529 1500 l 257
 871 1520 l 257
NamedP: "hr00"
871 362 m 257
 871 -400 l 257
 529 -400 l 257
 529 362 l 257
 871 362 l 257
EndSplineSet
PickledDataWithLists: "(dp0
Vcom.adobe.type.autohint
p1
(c_codecs
encode
p2
(Vdata
p3
Vlatin1
p4
tp5
Rp6
g2
(V<data>\\u000a        <hintSetList>\\u000a          <hintset pointTag=\"hr00\">\\u000a            <hstem pos=\"-379\" width=\"-21\"/>\\u000a            <hstem pos=\"1520\" width=\"-20\"/>\\u000a            <vstem pos=\"529\" width=\"342\"/>\\u000a          </hintset>\\u000a        </hintSetList>\\u000a      </data>
p7
g4
tp8
Rp9
Ntp10
s."
EndChar
StartChar: section
Encoding: 437 167 437
GlifName: section
Width: 1300
VWidth: 0
Flags: W
LayerCount: 2
Fore
SplineSet
888 1249 m 257
 846 1272 846 1272 813 1285.5 c 128
 780 1299 780 1299 752 1306.5 c 128
 724 1314 724 1314 701 1316 c 128
 678 1318 678 1318 657 1318 c 257
NamedP: "sv01"
 626 1318 626 1318 598 1310.5 c 128
 570 1303 570 1303 548.5 1286 c 128
 527 1269 527 1269 514.5 1241.5 c 128
 502 1214 502 1214 502 1174 c 257
 502 1135 502 1135 517.5 1105 c 128
 533 1075 533 1075 558.5 1050 c 128
 584 1025 584 1025 617.5 1002.5 c 128
 651 980 651 980 687 958 c 257
 747 921 747 921 807 880 c 128
 867 839 867 839 915.5 788 c 128
 964 737 964 737 994.5 673.5 c 128
 1025 610 1025 610 1025 527 c 257
 1025 479 1025 479 1010.5 433.5 c 128
 996 388 996 388 970 350 c 128
 944 312 944 312 909 282 c 128
 874 252 874 252 833 234 c 257
 870 205 870 205 901.5 173 c 128
 933 141 933 141 956 106 c 128
 979 71 979 71 992.5 33 c 128
 1006 -5 1006 -5 1006 -46 c 257
 1006 -128 1006 -128 975.5 -193.5 c 128
 945 -259 945 -259 886.5 -305 c 128
 828 -351 828 -351 743.5 -375.5 c 128
 659 -400 659 -400 551 -400 c 257
NamedP: "av01"
 504 -400 504 -400 460 -395 c 128
 416 -390 416 -390 372.5 -378 c 128
 329 -366 329 -366 286 -347 c 128
 243 -328 243 -328 197 -299 c 257
 303 -129 l 257
 345 -152 345 -152 378 -166 c 128
 411 -180 411 -180 439 -187.5 c 128
 467 -195 467 -195 490 -197.5 c 128
 513 -200 513 -200 534 -200 c 257
NamedP: "sv02"
 565 -200 565 -200 593 -192 c 128
 621 -184 621 -184 642 -166.5 c 128
 663 -149 663 -149 675.5 -121 c 128
 688 -93 688 -93 688 -54 c 257
 688 -15 688 -15 673 15 c 128
 658 45 658 45 632.5 70.5 c 128
 607 96 607 96 573.5 118 c 128
 540 140 540 140 504 163 c 257
 444 200 444 200 384 240.5 c 128
 324 281 324 281 275.5 332 c 128
 227 383 227 383 196.5 446.5 c 128
 166 510 166 510 166 593 c 257
 166 645 166 645 181 689 c 128
 196 733 196 733 222 769 c 128
 248 805 248 805 282.5 833.5 c 128
 317 862 317 862 357 885 c 257
 320 915 320 915 288.5 947 c 128
 257 979 257 979 234 1014 c 128
 211 1049 211 1049 198 1087 c 128
 185 1125 185 1125 185 1166 c 257
 185 1248 185 1248 215.5 1313 c 128
 246 1378 246 1378 304.5 1423.5 c 128
 363 1469 363 1469 447.5 1493 c 128
 532 1517 532 1517 640 1517 c 257
NamedP: "at01"
 686 1517 686 1517 730 1512.5 c 128
 774 1508 774 1508 817 1496.5 c 128
 860 1485 860 1485 903.5 1466 c 128
 947 1447 947 1447 993 1419 c 257
 888 1249 l 257
548 747 m 257
NamedP: "iv04"
 536 737 l 257
 525 728 525 728 513 714.5 c 128
 501 701 501 701 491.5 683.5 c 128
 482 666 482 666 475.5 644 c 128
 469 622 469 622 469 595 c 257
 469 561 469 561 482.5 532 c 128
 496 503 496 503 517.5 477.5 c 128
 539 452 539 452 566 429.5 c 128
NamedP: "iv05"
 593 407 593 407 621 387 c 257
 643 372 l 257
NamedP: "iv02"
 655 383 l 257
 666 392 666 392 678 405.5 c 128
 690 419 690 419 699.5 437 c 128
 709 455 709 455 715.5 477 c 128
 722 499 722 499 722 525 c 257
 722 558 722 558 708.5 587 c 128
 695 616 695 616 673.5 641.5 c 128
 652 667 652 667 625 689 c 128
NamedP: "iv06"
 598 711 598 711 571 731 c 257
 548 747 l 257
NamedP: "iv04"
EndSplineSet
PickledDataWithLists: "(dp0
Vcom.adobe.type.autohint
p1
(c_codecs
encode
p2
(Vdata
p3
Vlatin1
p4
tp5
Rp6
g2
(V<data>\\u000a        <hintSetList/>\\u000a      </data>
p7
g4
tp8
Rp9
Ntp10
sVcom.fontlab.ttprogram
p11
(g2
(Vdata
p12
g4
tp13
Rp14
g2
(V<data>\\u000a        <ttProgram>\\u000a          <ttc align=\"round\" code=\"alignv\" point=\"av01\"/>\\u000a          <ttc code=\"alignt\" point=\"at01\" zone=\"t: 1\"/>\\u000a          <ttc code=\"singlev\" point1=\"at01\" point2=\"sv01\" stem=\"eq Y: 135\"/>\\u000a          <ttc code=\"interpolatev\" point=\"iv01\" point1=\"iv02\" point2=\"sv01\"/>\\u000a          <ttc code=\"singlev\" point1=\"av01\" point2=\"sv02\" stem=\"eq Y: 135\"/>\\u000a          <ttc code=\"interpolatev\" point=\"iv03\" point1=\"sv02\" point2=\"iv04\"/>\\u000a          <ttc code=\"interpolatev\" point=\"iv05\" point1=\"iv04\" point2=\"sv02\"/>\\u000a          <ttc code=\"interpolatev\" point=\"iv06\" point1=\"sv01\" point2=\"iv02\"/>\\u000a        </ttProgram>\\u000a      </data>
p15
g4
tp16
Rp17
Ntp18
sVcom.typemytype.robofont.guides
p19
(lp20
(dp21
Vangle
p22
I90
sVisGlobal
p23
I00
sVmagnetic
p24
I5
sVx
p25
I850
sVy
p26
I0
sas."
EndChar
StartChar: dieresis
Encoding: 210 168 210
GlifName: dieresis
Width: 1300
VWidth: 0
Flags: W
LayerCount: 2
Fore
SplineSet
262 1566 m 257,0,-1
NamedP: "ah01"
 538 1566 l 257,1,-1
 538 1300 l 257,2,-1
NamedP: "sv01"
 262 1300 l 257,3,-1
 262 1566 l 257,0,-1
NamedP: "ah01"
662 1566 m 257,4,-1
NamedP: "ah02"
 938 1566 l 257,5,-1
 938 1300 l 257,6,-1
NamedP: "sv02"
 662 1300 l 257,7,-1
 662 1566 l 257,4,-1
NamedP: "ah02"
EndSplineSet
PickledDataWithLists: "(dp0
Vcom.adobe.type.autohint
p1
(c_codecs
encode
p2
(Vdata
p3
Vlatin1
p4
tp5
Rp6
g2
(V<data>\\u000a        <hintSetList>\\u000a          <hintset pointTag=\"ah01\">\\u000a            <hstem pos=\"1300\" width=\"266\"/>\\u000a            <vstem pos=\"262\" width=\"276\"/>\\u000a            <vstem pos=\"662\" width=\"276\"/>\\u000a          </hintset>\\u000a        </hintSetList>\\u000a      </data>
p7
g4
tp8
Rp9
Ntp10
sVcom.fontlab.ttprogram
p11
(g2
(Vdata
p12
g4
tp13
Rp14
g2
(V<data>\\u000a        <ttProgram>\\u000a          <ttc align=\"round\" code=\"alignh\" point=\"ah01\"/>\\u000a          <ttc align=\"round\" code=\"alignh\" point=\"ah02\"/>\\u000a          <ttc align=\"round\" code=\"alignv\" point=\"ah01\"/>\\u000a          <ttc align=\"round\" code=\"alignv\" point=\"ah02\"/>\\u000a          <ttc code=\"singlev\" point1=\"ah01\" point2=\"sv01\"/>\\u000a          <ttc code=\"singlev\" point1=\"ah02\" point2=\"sv02\"/>\\u000a        </ttProgram>\\u000a      </data>
p15
g4
tp16
Rp17
Ntp18
s."
EndChar
StartChar: copyright
Encoding: 198 169 198
GlifName: copyright
Width: 1300
VWidth: 0
Flags: W
LayerCount: 2
Fore
SplineSet
650 1517 m 257
NamedP: "hr00"
 553 1517 553 1517 467.5 1480 c 128
 382 1443 382 1443 318 1379 c 128
 254 1315 254 1315 217 1229.5 c 128
 180 1144 180 1144 180 1047 c 257
 180 949 180 949 217 863.5 c 128
 254 778 254 778 318 714.5 c 128
 382 651 382 651 467.5 614 c 128
 553 577 553 577 650 577 c 257
 747 577 747 577 832.5 614 c 128
 918 651 918 651 982 714.5 c 128
 1046 778 1046 778 1083 863.5 c 128
 1120 949 1120 949 1120 1047 c 257
 1120 1144 1120 1144 1083 1229.5 c 128
 1046 1315 1046 1315 982 1379 c 128
 918 1443 918 1443 832.5 1480 c 128
 747 1517 747 1517 650 1517 c 257
NamedP: "hr00"
650 701 m 257
 579 701 579 701 516 729 c 128
 453 757 453 757 406 804.5 c 128
 359 852 359 852 331.5 914.5 c 128
 304 977 304 977 304 1047 c 257
 304 1119 304 1119 331 1182 c 128
 358 1245 358 1245 405 1292 c 128
 452 1339 452 1339 515 1366 c 128
 578 1393 578 1393 650 1393 c 257
 722 1393 722 1393 785 1366 c 128
 848 1339 848 1339 895 1292 c 128
 942 1245 942 1245 969 1182 c 128
 996 1119 996 1119 996 1047 c 257
 996 976 996 976 968 913 c 128
 940 850 940 850 892.5 803 c 128
 845 756 845 756 782.5 728.5 c 128
 720 701 720 701 650 701 c 257
860 1231 m 257
 822 1269 822 1269 779 1285.5 c 128
 736 1302 736 1302 682 1302 c 257
 612 1302 612 1302 560.5 1281.5 c 128
 509 1261 509 1261 475.5 1227 c 128
 442 1193 442 1193 425.5 1149 c 128
 409 1105 409 1105 409 1058 c 257
 409 1006 409 1006 426 958 c 128
 443 910 443 910 477 873 c 128
 511 836 511 836 561.5 813.5 c 128
 612 791 612 791 679 791 c 257
 733 791 733 791 777 804.5 c 128
 821 818 821 818 858 841 c 257
 802 929 l 257
 776 912 776 912 744 900.5 c 128
 712 889 712 889 686 889 c 257
 654 889 654 889 632.5 903 c 128
 611 917 611 917 598 939.5 c 128
 585 962 585 962 579.5 991.5 c 128
 574 1021 574 1021 574 1052 c 257
 574 1082 574 1082 579.5 1109.5 c 128
 585 1137 585 1137 598 1158 c 128
 611 1179 611 1179 631.5 1191.5 c 128
 652 1204 652 1204 681 1204 c 257
 705 1204 705 1204 729.5 1197.5 c 128
 754 1191 754 1191 785 1165 c 257
 860 1231 l 257
EndSplineSet
PickledDataWithLists: "(dp0
Vcom.adobe.type.autohint
p1
(c_codecs
encode
p2
(Vdata
p3
Vlatin1
p4
tp5
Rp6
g2
(V<data>\\u000a        <hintSetList>\\u000a          <hintset pointTag=\"hr00\">\\u000a            <hstem pos=\"577\" width=\"124\"/>\\u000a            <hstem pos=\"791\" width=\"98\"/>\\u000a            <hstem pos=\"1204\" width=\"98\"/>\\u000a            <hstem pos=\"1393\" width=\"124\"/>\\u000a            <vstem pos=\"180\" width=\"124\"/>\\u000a            <vstem pos=\"409\" width=\"165\"/>\\u000a            <vstem pos=\"996\" width=\"124\"/>\\u000a          </hintset>\\u000a        </hintSetList>\\u000a      </data>
p7
g4
tp8
Rp9
Ntp10
s."
EndChar
StartChar: ordfeminine
Encoding: 356 170 356
GlifName: ordfeminine
Width: 1300
VWidth: 0
Flags: W
LayerCount: 2
Fore
SplineSet
159 810 m 257,0,-1
 601 810 l 257,1,-1
 601 690 l 257,2,-1
 159 690 l 257,3,-1
 159 810 l 257,0,-1
612 959 m 257,4,-1
NamedP: "hr01"
 442 959 l 257,5,-1
NamedP: "hr02"
 442 1009 l 257,6,-1
 400 961 l 257,7,8
 383 956 383 956 365.5 953 c 128,-1,9
 348 950 348 950 333 950 c 257,10,11
 292 950 292 950 250 962.5 c 128,-1,12
 208 975 208 975 174 998.5 c 128,-1,13
 140 1022 140 1022 119 1057 c 128,-1,14
 98 1092 98 1092 98 1138 c 257,15,16
 98 1186 98 1186 119.5 1221 c 128,-1,17
 141 1256 141 1256 176 1278.5 c 128,-1,18
 211 1301 211 1301 255.5 1312 c 128,-1,19
 300 1323 300 1323 347 1323 c 257,20,21
 375 1323 375 1323 398.5 1321.5 c 128,-1,22
 422 1320 422 1320 442 1316 c 257,23,24
 440 1359 440 1359 420.5 1384 c 128,-1,25
 401 1409 401 1409 361 1409 c 257,26,27
 339 1409 339 1409 316.5 1406.5 c 128,-1,28
 294 1404 294 1404 273.5 1399.5 c 128,-1,29
 253 1395 253 1395 235.5 1389.5 c 128,-1,30
 218 1384 218 1384 204 1378 c 257,31,-1
 157 1470 l 257,32,33
 180 1481 180 1481 201.5 1489.5 c 128,-1,34
 223 1498 223 1498 246.5 1504.5 c 128,-1,35
 270 1511 270 1511 298.5 1514 c 128,-1,36
 327 1517 327 1517 366 1517 c 257,37,38
 430 1517 430 1517 474.5 1501.5 c 128,-1,39
 519 1486 519 1486 547 1457 c 128,-1,40
 575 1428 575 1428 588 1388 c 128,-1,41
 601 1348 601 1348 601 1299 c 257,42,-1
 601 1059 l 257,43,-1
 612 959 l 257,4,-1
NamedP: "hr01"
442 1209 m 257,44,45
 435 1209 435 1209 425 1209.5 c 128,-1,46
 415 1210 415 1210 404.5 1210.5 c 128,-1,47
 394 1211 394 1211 383.5 1211 c 128,-1,48
 373 1211 373 1211 366 1211 c 257,49,50
 347 1211 347 1211 328 1207.5 c 128,-1,51
 309 1204 309 1204 294.5 1195.5 c 128,-1,52
 280 1187 280 1187 271 1173 c 128,-1,53
 262 1159 262 1159 262 1138 c 257,54,55
 262 1121 262 1121 268.5 1107.5 c 128,-1,56
 275 1094 275 1094 285.5 1084 c 128,-1,57
 296 1074 296 1074 309.5 1068.5 c 128,-1,58
 323 1063 323 1063 337 1063 c 257,59,60
 366 1063 366 1063 392 1075.5 c 128,-1,61
 418 1088 418 1088 442 1109 c 257,62,-1
 442 1209 l 257,44,45
EndSplineSet
PickledDataWithLists: "(dp0
Vcom.adobe.type.autohint
p1
(c_codecs
encode
p2
(Vdata
p3
Vlatin1
p4
tp5
Rp6
g2
(V<data>\\u000a        <hintSetList>\\u000a          <hintset pointTag=\"hr01\">\\u000a            <hstem pos=\"950\" width=\"113\"/>\\u000a            <hstem pos=\"1211\" width=\"112\"/>\\u000a            <hstem pos=\"1409\" width=\"108\"/>\\u000a            <vstem pos=\"98\" width=\"164\"/>\\u000a            <vstem pos=\"442\" width=\"159\"/>\\u000a          </hintset>\\u000a          <hintset pointTag=\"hr02\">\\u000a            <hstem pos=\"950\" width=\"113\"/>\\u000a            <hstem pos=\"969\" width=\"-10\"/>\\u000a            <hstem pos=\"1211\" width=\"112\"/>\\u000a            <hstem pos=\"1211\" width=\"112\"/>\\u000a            <hstem pos=\"1409\" width=\"108\"/>\\u000a            <hstem pos=\"1409\" width=\"108\"/>\\u000a            <vstem pos=\"98\" width=\"164\"/>\\u000a            <vstem pos=\"98\" width=\"164\"/>\\u000a            <vstem pos=\"442\" width=\"159\"/>\\u000a            <vstem pos=\"442\" width=\"159\"/>\\u000a          </hintset>\\u000a        </hintSetList>\\u000a      </data>
p7
g4
tp8
Rp9
Ntp10
s."
EndChar
StartChar: guillemotleft
Encoding: 271 171 271
GlifName: guillemotleft
Width: 1300
VWidth: 0
Flags: W
LayerCount: 2
Fore
SplineSet
584 1106 m 257,0,-1
NamedP: "at01"
 673 880 l 257,1,-1
NamedP: "sv01"
 342 583 l 257,2,-1
 266 550 l 257,3,-1
NamedP: "iv01"
 341 517 l 257,4,-1
 675 224 l 257,5,-1
NamedP: "sv02"
 581 -13 l 257,6,-1
NamedP: "ab01"
 26 476 l 257,7,-1
NamedP: "dv01"
 26 620 l 257,8,-1
NamedP: "dv02"
 584 1106 l 257,0,-1
NamedP: "at01"
1084 1106 m 257,9,-1
NamedP: "at02"
 1173 880 l 257,10,-1
NamedP: "sv03"
 842 583 l 257,11,-1
 766 550 l 257,12,-1
NamedP: "iv02"
 841 517 l 257,13,-1
 1175 224 l 257,14,-1
NamedP: "sv04"
 1081 -13 l 257,15,-1
NamedP: "ab02"
 526 476 l 257,16,-1
NamedP: "dv03"
 526 620 l 257,17,-1
NamedP: "dv04"
 1084 1106 l 257,9,-1
NamedP: "at02"
EndSplineSet
PickledDataWithLists: "(dp0
Vcom.adobe.type.autohint
p1
(c_codecs
encode
p2
(Vdata
p3
Vlatin1
p4
tp5
Rp6
g2
(V<data>\\u000a        <hintSetList>\\u000a          <hintset pointTag=\"at02\">\\u000a            <hstem pos=\"8\" width=\"-21\"/>\\u000a            <hstem pos=\"1106\" width=\"-20\"/>\\u000a          </hintset>\\u000a        </hintSetList>\\u000a      </data>
p7
g4
tp8
Rp9
Ntp10
sVcom.fontlab.ttprogram
p11
(g2
(Vdata
p12
g4
tp13
Rp14
g2
(V<data>\\u000a        <ttProgram>\\u000a          <ttc code=\"alignt\" point=\"at01\" zone=\"t: x\"/>\\u000a          <ttc code=\"alignb\" point=\"ab01\" zone=\"b: 0\"/>\\u000a          <ttc code=\"doublev\" point1=\"dv01\" point2=\"dv02\" stem=\"eq Y: 135\"/>\\u000a          <ttc code=\"singlev\" point1=\"at01\" point2=\"sv01\" stem=\"eq Y: 135\"/>\\u000a          <ttc code=\"interpolatev\" point=\"iv01\" point1=\"at01\" point2=\"ab01\"/>\\u000a          <ttc code=\"singlev\" point1=\"ab01\" point2=\"sv02\" stem=\"eq Y: 135\"/>\\u000a          <ttc code=\"alignt\" point=\"at02\" zone=\"t: x\"/>\\u000a          <ttc code=\"alignb\" point=\"ab02\" zone=\"b: 0\"/>\\u000a          <ttc code=\"doublev\" point1=\"dv03\" point2=\"dv04\" stem=\"eq Y: 135\"/>\\u000a          <ttc code=\"singlev\" point1=\"at02\" point2=\"sv03\" stem=\"eq Y: 135\"/>\\u000a          <ttc code=\"interpolatev\" point=\"iv02\" point1=\"at02\" point2=\"ab02\"/>\\u000a          <ttc code=\"singlev\" point1=\"ab02\" point2=\"sv04\" stem=\"eq Y: 135\"/>\\u000a        </ttProgram>\\u000a      </data>
p15
g4
tp16
Rp17
Ntp18
s."
EndChar
StartChar: logicalnot
Encoding: 314 172 314
GlifName: logicalnot
Width: 1300
VWidth: 0
Flags: W
LayerCount: 2
Fore
SplineSet
1261 827 m 257,0,-1
NamedP: "hr00"
 1242 586 l 257,1,-1
 1242 258 l 257,2,-1
 900 258 l 257,3,-1
 900 459 l 257,4,-1
 912 600 l 257,5,-1
 62 600 l 257,6,-1
 62 827 l 257,7,-1
 1261 827 l 257,0,-1
NamedP: "hr00"
EndSplineSet
PickledDataWithLists: "(dp0
Vcom.adobe.type.autohint
p1
(c_codecs
encode
p2
(Vdata
p3
Vlatin1
p4
tp5
Rp6
g2
(V<data>\\u000a        <hintSetList>\\u000a          <hintset pointTag=\"hr00\">\\u000a            <hstem pos=\"279\" width=\"-21\"/>\\u000a            <hstem pos=\"600\" width=\"227\"/>\\u000a            <vstem pos=\"900\" width=\"342\"/>\\u000a          </hintset>\\u000a        </hintSetList>\\u000a      </data>
p7
g4
tp8
Rp9
Ntp10
s."
EndChar
StartChar: registered
Encoding: 411 174 411
GlifName: registered
Width: 1300
VWidth: 0
Flags: W
LayerCount: 2
Fore
SplineSet
650 1517 m 257
 553 1517 553 1517 467.5 1480 c 128
 382 1443 382 1443 318 1379 c 128
 254 1315 254 1315 217 1229.5 c 128
 180 1144 180 1144 180 1047 c 257
 180 949 180 949 217 863.5 c 128
 254 778 254 778 318 714.5 c 128
 382 651 382 651 467.5 614 c 128
 553 577 553 577 650 577 c 257
 747 577 747 577 832.5 614 c 128
 918 651 918 651 982 714.5 c 128
 1046 778 1046 778 1083 863.5 c 128
 1120 949 1120 949 1120 1047 c 257
 1120 1144 1120 1144 1083 1229.5 c 128
 1046 1315 1046 1315 982 1379 c 128
 918 1443 918 1443 832.5 1480 c 128
 747 1517 747 1517 650 1517 c 257
650 701 m 257
 579 701 579 701 516 729 c 128
 453 757 453 757 406 804.5 c 128
 359 852 359 852 331.5 914.5 c 128
 304 977 304 977 304 1047 c 257
 304 1119 304 1119 331 1182 c 128
 358 1245 358 1245 405 1292 c 128
 452 1339 452 1339 515 1366 c 128
 578 1393 578 1393 650 1393 c 257
 722 1393 722 1393 785 1366 c 128
 848 1339 848 1339 895 1292 c 128
 942 1245 942 1245 969 1182 c 128
 996 1119 996 1119 996 1047 c 257
 996 976 996 976 968 913 c 128
 940 850 940 850 892.5 803 c 128
 845 756 845 756 782.5 728.5 c 128
 720 701 720 701 650 701 c 257
601 1231 m 257
 607 1232 607 1232 611.5 1232 c 128
 616 1232 616 1232 628 1232 c 257
 643 1232 643 1232 657.5 1228.5 c 128
 672 1225 672 1225 684 1216 c 128
 696 1207 696 1207 703.5 1191.5 c 128
 711 1176 711 1176 711 1153 c 257
 711 1118 711 1118 690.5 1091.5 c 128
 670 1065 670 1065 627 1065 c 257
 607 1065 l 257
 607 1174 l 257
NamedP: "hr01"
 601 1231 l 257
752 800 m 257
 869 800 l 257
 730 993 l 257
NamedP: "hr02"
 685 1004 l 257
 711 1011 711 1011 735 1023 c 128
 759 1035 759 1035 777 1053 c 128
 795 1071 795 1071 806 1096.5 c 128
 817 1122 817 1122 817 1158 c 257
 817 1228 817 1228 763 1264 c 128
 709 1300 709 1300 621 1300 c 257
 607 1300 607 1300 589 1299 c 128
 571 1298 571 1298 552 1297 c 128
 533 1296 533 1296 514.5 1294 c 128
 496 1292 496 1292 482 1291 c 257
 494 1218 l 257
 494 800 l 257
 607 800 l 257
 607 993 l 257
 609 993 609 993 613.5 992 c 128
 618 991 618 991 622 987 c 257
 752 800 l 257
EndSplineSet
PickledDataWithLists: "(dp0
Vcom.adobe.type.autohint
p1
(c_codecs
encode
p2
(Vdata
p3
Vlatin1
p4
tp5
Rp6
g2
(V<data>\\u000a        <hintSetList>\\u000a          <hintset pointTag=\"hr01\">\\u000a            <hstem pos=\"577\" width=\"488\"/>\\u000a            <hstem pos=\"1393\" width=\"124\"/>\\u000a            <vstem pos=\"180\" width=\"124\"/>\\u000a            <vstem pos=\"494\" width=\"113\"/>\\u000a            <vstem pos=\"711\" width=\"106\"/>\\u000a            <vstem pos=\"996\" width=\"124\"/>\\u000a          </hintset>\\u000a          <hintset pointTag=\"hr02\">\\u000a            <hstem pos=\"577\" width=\"124\"/>\\u000a            <hstem pos=\"800\" width=\"500\"/>\\u000a            <hstem pos=\"1393\" width=\"124\"/>\\u000a            <vstem pos=\"180\" width=\"124\"/>\\u000a            <vstem pos=\"494\" width=\"113\"/>\\u000a            <vstem pos=\"711\" width=\"106\"/>\\u000a            <vstem pos=\"996\" width=\"124\"/>\\u000a          </hintset>\\u000a        </hintSetList>\\u000a      </data>
p7
g4
tp8
Rp9
Ntp10
s."
EndChar
StartChar: macron
Encoding: 318 175 318
GlifName: macron
Width: 1300
VWidth: 0
Flags: W
LayerCount: 2
Fore
SplineSet
300 1500 m 257
NamedP: "at01"
 1000 1500 l 257
 1000 1282 l 257
NamedP: "sv02"
 300 1282 l 257
NamedP: "sv01"
 300 1500 l 257
NamedP: "at01"
EndSplineSet
PickledDataWithLists: "(dp0
Vcom.adobe.type.autohint
p1
(c_codecs
encode
p2
(Vdata
p3
Vlatin1
p4
tp5
Rp6
g2
(V<data>\\u000a        <hintSetList>\\u000a          <hintset pointTag=\"at01\">\\u000a            <hstem pos=\"1282\" width=\"218\"/>\\u000a          </hintset>\\u000a        </hintSetList>\\u000a      </data>
p7
g4
tp8
Rp9
Ntp10
sVcom.fontlab.ttprogram
p11
(g2
(Vdata
p12
g4
tp13
Rp14
g2
(V<data>\\u000a        <ttProgram>\\u000a          <ttc code=\"alignt\" point=\"at01\" zone=\"t: 1\"/>\\u000a          <ttc code=\"singlev\" point1=\"at01\" point2=\"sv01\" stem=\"eq Y: 153\"/>\\u000a          <ttc code=\"singlev\" point1=\"sv01\" point2=\"sv02\"/>\\u000a        </ttProgram>\\u000a      </data>
p15
g4
tp16
Rp17
Ntp18
s."
EndChar
StartChar: degree
Encoding: 206 176 206
GlifName: degree
Width: 1300
VWidth: 0
Flags: W
LayerCount: 2
Fore
SplineSet
500 1517 m 257
NamedP: "at01"
 561 1517 561 1517 615 1496 c 128
 669 1475 669 1475 709.5 1438 c 128
 750 1401 750 1401 773 1352 c 128
 796 1303 796 1303 796 1247 c 257
NamedP: "ah02"
 796 1191 796 1191 773 1142 c 128
 750 1093 750 1093 709.5 1056.5 c 128
 669 1020 669 1020 615 998.5 c 128
 561 977 561 977 500 977 c 257
NamedP: "av01"
 438 977 438 977 384.5 998.5 c 128
 331 1020 331 1020 290.5 1056.5 c 128
 250 1093 250 1093 227 1142 c 128
 204 1191 204 1191 204 1247 c 257
NamedP: "ah01"
 204 1303 204 1303 227 1352 c 128
 250 1401 250 1401 290.5 1438 c 128
 331 1475 331 1475 384.5 1496 c 128
 438 1517 438 1517 500 1517 c 257
NamedP: "at01"
500 1145 m 257
NamedP: "sv01"
 523 1145 523 1145 543.5 1153 c 128
 564 1161 564 1161 579 1175 c 128
 594 1189 594 1189 603 1207.5 c 128
 612 1226 612 1226 612 1247 c 257
NamedP: "sh01"
 612 1268 612 1268 603 1286.5 c 128
 594 1305 594 1305 579 1319 c 128
 564 1333 564 1333 543.5 1341 c 128
 523 1349 523 1349 500 1349 c 257
NamedP: "sv02"
 477 1349 477 1349 456.5 1341 c 128
 436 1333 436 1333 421 1319 c 128
 406 1305 406 1305 397 1286.5 c 128
 388 1268 388 1268 388 1247 c 257
NamedP: "sh02"
 388 1226 388 1226 397 1207.5 c 128
 406 1189 406 1189 421 1175 c 128
 436 1161 436 1161 456.5 1153 c 128
 477 1145 477 1145 500 1145 c 257
NamedP: "sv01"
EndSplineSet
PickledDataWithLists: "(dp0
Vcom.adobe.type.autohint
p1
(c_codecs
encode
p2
(Vdata
p3
Vlatin1
p4
tp5
Rp6
g2
(V<data>\\u000a        <hintSetList>\\u000a          <hintset pointTag=\"at01\">\\u000a            <hstem pos=\"977\" width=\"168\"/>\\u000a            <hstem pos=\"1349\" width=\"168\"/>\\u000a            <vstem pos=\"204\" width=\"184\"/>\\u000a            <vstem pos=\"612\" width=\"184\"/>\\u000a          </hintset>\\u000a        </hintSetList>\\u000a      </data>
p7
g4
tp8
Rp9
Ntp10
sVcom.fontlab.ttprogram
p11
(g2
(Vdata
p12
g4
tp13
Rp14
g2
(V<data>\\u000a        <ttProgram>\\u000a          <ttc align=\"round\" code=\"alignh\" point=\"ah01\"/>\\u000a          <ttc align=\"round\" code=\"alignh\" point=\"ah02\"/>\\u000a          <ttc code=\"singleh\" point1=\"ah02\" point2=\"sh01\" round=\"true\"/>\\u000a          <ttc code=\"singleh\" point1=\"ah01\" point2=\"sh02\" round=\"true\"/>\\u000a          <ttc align=\"round\" code=\"alignv\" point=\"av01\"/>\\u000a          <ttc code=\"alignt\" point=\"at01\" zone=\"t: 1\"/>\\u000a          <ttc code=\"singlev\" point1=\"av01\" point2=\"sv01\" round=\"true\"/>\\u000a          <ttc code=\"singlev\" point1=\"at01\" point2=\"sv02\" round=\"true\"/>\\u000a        </ttProgram>\\u000a      </data>
p15
g4
tp16
Rp17
Ntp18
s."
EndChar
